<svg width="18" height="18" viewBox="0 0 18 18" fill="none" xmlns="http://www.w3.org/2000/svg">
<path fill-rule="evenodd" clip-rule="evenodd" d="M9 18C13.9706 18 18 13.9706 18 9C18 4.02944 13.9706 0 9 0C4.02944 0 0 4.02944 0 9C0 13.9706 4.02944 18 9 18ZM13.8881 7.65738C14.2937 7.25184 14.2937 6.59431 13.8881 6.18877C13.4826 5.78323 12.8251 5.78323 12.4195 6.18877L8.21024 10.3981L6.16154 8.86154C5.70272 8.51742 5.05181 8.61041 4.70769 9.06923C4.36357 9.52805 4.45656 10.179 4.91538 10.5231L7.68462 12.6C8.09805 12.9101 8.67657 12.869 9.042 12.5035L13.8881 7.65738Z" fill="#FF838F"/>
</svg>
