<svg width="20" height="20" viewBox="0 0 20 20" fill="none" xmlns="http://www.w3.org/2000/svg">
<path fill-rule="evenodd" clip-rule="evenodd" d="M10 20C15.5229 20 20 15.5229 20 10C20 4.47715 15.5229 0 10 0C4.47715 0 0 4.47715 0 10C0 15.5229 4.47715 20 10 20ZM15.4312 8.5082C15.8818 8.0576 15.8818 7.32702 15.4312 6.87642C14.9807 6.42582 14.2501 6.42582 13.7995 6.87642L9.12249 11.5534L6.84615 9.84615C6.33635 9.4638 5.61312 9.56712 5.23077 10.0769C4.84842 10.5867 4.95174 11.31 5.46154 11.6923L8.53846 14C8.99783 14.3445 9.64063 14.2988 10.0467 13.8928L15.4312 8.5082Z" fill="white"/>
</svg>
