<svg width="100" height="100" viewBox="0 0 100 100" fill="none" xmlns="http://www.w3.org/2000/svg">
<path fill-rule="evenodd" clip-rule="evenodd" d="M50 100C77.6146 100 100 77.6146 100 50C100 22.3858 77.6146 0 50 0C22.3858 0 0 22.3858 0 50C0 77.6146 22.3858 100 50 100ZM77.1562 42.541C79.4092 40.288 79.4092 36.6351 77.1562 34.3821C74.9034 32.1291 71.2505 32.1291 68.9975 34.3821L45.6125 57.7671L34.2308 49.2308C31.6818 47.319 28.0656 47.8356 26.1538 50.3846C24.2421 52.9336 24.7587 56.5498 27.3077 58.4615L42.6923 70C44.9892 71.7226 48.2032 71.4942 50.2333 69.4641L77.1562 42.541Z" fill="white"/>
</svg>
