<svg width="104" height="50" viewBox="0 0 104 50" fill="none" xmlns="http://www.w3.org/2000/svg">
<path fill-rule="evenodd" clip-rule="evenodd" d="M25.8609 45.4428C27.0342 46.8122 29.881 46.6482 30.9126 45.6448C31.6738 44.904 31.9826 43.975 32.1234 42.972C32.2521 42.0556 32.2575 41.1296 32.2551 40.2042C32.2501 38.2503 32.2554 36.2964 32.2525 34.3426C32.2521 34.1077 32.2258 33.91 32.5797 33.9112C34.6986 33.9185 36.82 33.7799 38.9347 34.0174C40.6049 34.2049 42.1552 34.6714 43.2969 36.0105C43.7938 36.5933 44.1237 37.2817 44.4641 37.9613C44.5005 38.034 44.5065 38.1419 44.6994 38.1593C44.6994 37.959 44.6994 37.7611 44.6994 37.5632C44.6986 36.4446 44.7069 35.3258 44.6915 34.2075C44.6873 33.907 44.7586 33.7915 45.086 33.793C47.6541 33.8054 50.2223 33.804 52.7904 33.7938C53.078 33.7926 53.1771 33.8681 53.1825 34.1658C53.2028 35.2674 53.2132 35.267 52.0999 35.2674C50.6069 35.2676 49.1136 35.2777 47.6206 35.2615C47.2848 35.2578 47.1852 35.359 47.1879 35.6924C47.1976 36.8854 47.1921 38.0788 47.1611 39.2714C47.1512 39.6538 47.2424 39.7837 47.6506 39.777C49.2328 39.7511 50.816 39.7797 52.3983 39.754C52.8192 39.7471 52.9219 39.8778 52.9096 40.2817C52.8802 41.2486 52.9004 41.2509 51.9468 41.252C50.4986 41.2539 49.0502 41.2605 47.6019 41.2475C47.2903 41.2448 47.15 41.3009 47.1553 41.6584C47.1754 43.0302 47.171 44.4028 47.1574 45.7747C47.1547 46.0615 47.2286 46.1568 47.5282 46.1548C49.5438 46.1425 51.5597 46.1372 53.5752 46.1584C53.9686 46.1625 53.9588 45.9723 53.9584 45.6958C53.9543 41.9074 53.9633 38.1189 53.9456 34.3307C53.9436 33.9029 54.0636 33.8403 54.4777 33.7753C55.5611 33.6056 56.1736 34.1363 56.8095 34.9152C59.1463 37.7771 61.5465 40.5875 63.9238 43.4166C63.9892 43.4943 64.0637 43.5645 64.1555 43.6609C64.264 43.4726 64.223 43.2932 64.2232 43.1251C64.2258 40.1717 64.231 37.2188 64.2165 34.2657C64.2148 33.9033 64.2967 33.7883 64.6804 33.7895C68.9059 33.804 73.1315 33.8051 77.3569 33.7883C77.768 33.7866 77.8491 33.9108 77.8404 34.2914C77.8165 35.3173 77.834 35.3175 76.82 35.3169C75.9093 35.3164 74.9976 35.3404 74.0882 35.3057C73.6733 35.2899 73.6037 35.4331 73.6049 35.8105C73.6188 39.5838 73.6072 43.3575 73.6233 47.1306C73.625 47.5216 73.5388 47.6452 73.1363 47.6198C72.5266 47.5814 71.9118 47.5913 71.3008 47.6186C70.9598 47.6339 70.8796 47.5226 70.8805 47.1908C70.8927 43.4323 70.8899 39.6736 70.8874 35.9152C70.8869 35.1732 70.9524 35.2726 70.2432 35.2689C69.0787 35.2625 67.9138 35.2793 66.7494 35.2601C66.376 35.254 66.269 35.3774 66.2702 35.7477C66.2816 39.536 66.2679 43.3244 66.2859 47.1127C66.2879 47.5375 66.1476 47.5783 65.7675 47.629C64.6495 47.7781 63.9298 47.3505 63.2225 46.4679C60.9404 43.6192 58.5546 40.8538 56.2082 38.057C56.1167 37.9479 56.0514 37.8072 55.887 37.7671C55.784 37.9212 55.8268 38.0879 55.8268 38.244C55.8243 41.2417 55.8196 44.2397 55.8349 47.2376C55.8368 47.598 55.764 47.7185 55.3769 47.7131C52.0178 47.6675 48.6586 47.6393 45.2993 47.6215C44.957 47.6197 44.8807 47.5115 44.885 47.1852C44.9033 45.7549 44.8929 44.3242 44.8929 42.8883C44.6635 42.8834 44.6893 43.0618 44.6456 43.1662C44.2572 44.0896 43.8329 44.9862 43.0988 45.7025C42.144 46.6347 40.961 47.0998 39.6907 47.368C37.4488 47.8413 35.1835 47.8239 32.9134 47.6292C32.8721 47.6257 32.8327 47.6 32.7515 47.5689C33.2563 47.2571 33.7147 46.9347 34.0135 46.442C34.1253 46.2577 34.3072 46.326 34.4602 46.3285C35.7002 46.3473 36.9342 46.3305 38.1566 46.0671C40.5105 45.5602 41.749 44.0365 42.1396 41.7423C42.3131 40.7225 42.3612 39.6917 42.12 38.6742C41.6592 36.7304 40.2837 35.8058 38.4352 35.423C37.3138 35.1908 36.1794 35.2265 35.0445 35.2411C34.6988 35.2456 34.6692 35.4242 34.6712 35.6982C34.6865 37.8304 34.7773 39.9634 34.6505 42.0947C34.6133 42.7189 34.525 43.3402 34.4597 43.9627C34.3049 45.4423 33.5093 46.4423 32.1909 47.0988C29.7263 48.3261 27.2772 48.2918 24.8482 47.0429C24.1271 46.6723 23.5307 46.1245 23.1804 45.3604C23.1401 45.0832 23.0199 44.8433 22.8406 44.6309L22.8366 44.6112C22.7588 44.4156 22.9827 44.1324 22.6609 44.0077C22.6573 43.9754 22.6537 43.9429 22.65 43.9107C22.6495 40.7528 22.6535 37.5948 22.6416 34.4369C22.6404 34.0931 22.7234 33.9472 23.0894 33.9796C23.4297 34.0099 23.7748 33.9854 24.1178 33.9863C24.7126 33.9878 24.7964 34.0684 24.7968 34.652C24.798 37.08 24.8062 39.5082 24.7923 41.9361C24.7889 42.5326 25.0836 43.0884 24.9884 43.6921C24.9757 43.7727 25.061 43.8124 25.1384 43.8295C25.1433 43.8638 25.1482 43.8983 25.1531 43.9325C25.1524 44.5465 25.3854 45.0514 25.8609 45.4428Z" fill="#D72D21"/>
<path fill-rule="evenodd" clip-rule="evenodd" d="M12.2645 40.8928C12.2645 38.745 12.2655 36.5973 12.263 34.4496C12.2628 34.2141 12.2402 34.0176 12.5964 34.0256C14.5065 34.069 16.4184 33.9681 18.3276 34.0877C18.6697 34.1091 19.0131 34.1441 19.3497 34.2059C20.7781 34.4684 21.6489 35.3172 21.9794 36.7289C22.4555 38.763 21.925 40.1914 20.2095 41.3811C19.9334 41.5724 20.0131 41.7043 20.1434 41.9125C21.235 43.6551 22.3214 45.401 23.4063 47.1477C23.7016 47.6229 23.6971 47.631 23.1628 47.6648C22.5221 47.7053 21.8799 47.7246 21.2404 47.7766C20.9768 47.798 20.8439 47.6918 20.7159 47.4778C19.7368 45.8409 18.7397 44.2149 17.7659 42.5749C17.5915 42.2813 17.3987 42.1652 17.0534 42.1846C16.473 42.217 15.8888 42.2091 15.3072 42.1868C15.0074 42.1754 14.9347 42.2805 14.9368 42.5657C14.949 44.1615 14.9294 45.7578 14.9523 47.3532C14.9576 47.7203 14.8394 47.7995 14.5035 47.7868C13.8922 47.7633 13.2783 47.7588 12.6677 47.7905C12.2992 47.8094 12.2322 47.6738 12.2344 47.3359C12.2495 45.1882 12.2421 43.0405 12.2421 40.8928C12.2496 40.8928 12.257 40.8928 12.2645 40.8928ZM14.9414 37.866C14.9414 38.6416 14.9402 39.4169 14.9426 40.1925C14.9431 40.3335 14.8995 40.5121 15.1382 40.5099C16.1195 40.501 17.1062 40.6764 18.0804 40.4268C18.5653 40.3026 18.9429 40.0355 19.193 39.5952C19.7987 38.5288 19.6489 36.6861 18.8674 35.7381C18.6462 35.4698 18.3897 35.2549 18.0021 35.2587C17.0916 35.2677 16.1807 35.269 15.2703 35.2568C15.02 35.2536 14.932 35.327 14.9369 35.5845C14.9515 36.3448 14.9422 37.1056 14.9414 37.866Z" fill="#D82C21"/>
<path fill-rule="evenodd" clip-rule="evenodd" d="M25.1373 43.8293C25.0599 43.8123 24.9746 43.7726 24.9873 43.692C25.0826 43.0883 24.7878 42.5325 24.7912 41.936C24.805 39.5081 24.7968 37.0799 24.7957 34.6518C24.7953 34.0684 24.7115 33.9877 24.1167 33.9862C23.7738 33.9853 23.4288 34.0097 23.0883 33.9795C22.7223 33.9471 22.6393 34.093 22.6405 34.4368C22.6526 37.5946 22.6484 40.7527 22.6489 43.9106C22.4741 43.484 22.5073 43.0299 22.5053 42.5885C22.4933 39.8323 22.5051 37.076 22.4922 34.3198C22.4906 33.9857 22.5787 33.8762 22.9178 33.8954C23.4232 33.9242 23.9323 33.919 24.4384 33.8969C24.7648 33.8826 24.8789 33.9819 24.8802 34.3232C24.8892 36.558 24.9272 38.7925 24.9385 41.0273C24.9434 41.9672 24.9971 42.9007 25.1373 43.8293Z" fill="#D53025"/>
<path fill-rule="evenodd" clip-rule="evenodd" d="M81.2498 46.7242C81.24 46.8879 81.2489 47.1101 81.019 47.0715C80.8034 47.0353 80.8856 46.803 80.8855 46.6532C80.8815 42.6121 80.8762 38.5708 80.8915 34.5295C80.8932 34.1106 80.8004 33.9293 80.355 33.978C80.0332 34.0131 79.7042 33.9849 79.3779 33.9562C79.8698 33.8151 80.3879 33.9966 80.8751 33.8232C81.1445 33.8942 81.0179 34.1142 81.0181 34.2605C81.026 38.3092 81.0248 42.358 81.0254 46.4068C81.0254 46.5258 80.9979 46.657 81.0381 46.7614C81.1439 47.0372 81.1783 46.7436 81.2498 46.7242Z" fill="#D53025"/>
<path fill-rule="evenodd" clip-rule="evenodd" d="M25.8612 45.443C25.3856 45.0515 25.1527 44.5467 25.1533 43.9324C25.3583 44.4505 25.5316 44.9832 25.8612 45.443Z" fill="#D53025"/>
<path fill-rule="evenodd" clip-rule="evenodd" d="M22.8408 44.6311C23.0201 44.8436 23.1403 45.0835 23.1806 45.3606C22.9839 45.1563 22.8842 44.9067 22.8408 44.6311Z" fill="#D53025"/>
<path fill-rule="evenodd" clip-rule="evenodd" d="M22.6611 44.0078C22.9828 44.1325 22.759 44.4158 22.8368 44.6113C22.7122 44.4295 22.6672 44.2243 22.6611 44.0078Z" fill="#D53025"/>
<path fill-rule="evenodd" clip-rule="evenodd" d="M102.196 46.2529C102.219 45.9386 102.105 45.8434 101.793 45.8467C100.405 45.8605 99.0169 45.8573 97.6289 45.8506C96.9165 45.8472 96.9938 45.9575 96.9932 45.2033C96.9896 41.5205 96.9847 37.8376 97.0013 34.155C97.0034 33.7502 96.8854 33.6403 96.4984 33.6646C95.993 33.6964 95.4823 33.6968 94.9771 33.6647C94.5911 33.6403 94.4792 33.7484 94.4792 34.1521C94.4798 38.1777 94.4568 42.2034 94.4378 46.229C94.437 46.3693 94.4752 46.5186 94.3602 46.7032C94.2865 46.5611 94.2212 46.4528 94.1718 46.3378C92.543 42.5327 90.9119 38.7287 89.2904 34.9207C88.7513 33.6547 88.7628 33.6588 87.3473 33.6643C87.0496 33.6656 86.905 33.7544 86.7841 34.0346C85.8515 36.1941 84.8952 38.3434 83.9536 40.4991C83.048 42.5721 82.1513 44.649 81.2505 46.724C81.2407 46.8877 81.2496 47.11 81.0197 47.0714C80.8042 47.0351 80.8864 46.8029 80.8862 46.6531C80.8822 42.612 80.877 38.5707 80.8923 34.5294C80.8939 34.1105 80.8012 33.9292 80.3557 33.9779C80.0339 34.013 79.7049 33.9848 79.3786 33.9561C79.8705 33.815 80.3886 33.9965 80.8758 33.8231C80.1752 33.8152 79.4738 33.8225 78.7739 33.793C78.444 33.7791 78.3436 33.8725 78.3447 34.2138C78.358 38.5525 78.3602 42.8913 78.3489 47.2302C78.348 47.5657 78.4628 47.618 78.7563 47.6148C80.0548 47.6014 81.3536 47.5967 82.6519 47.617C82.9649 47.6217 83.0921 47.4971 83.2068 47.2346C83.6537 46.2114 84.1278 45.2003 84.5782 44.1786C84.6702 43.9701 84.7888 43.8929 85.0155 43.8939C86.732 43.9016 88.4485 43.9011 90.1651 43.8938C90.3922 43.8928 90.5095 43.9739 90.6033 44.1821C91.0552 45.187 91.5364 46.1791 91.9798 47.1875C92.1184 47.5029 92.2837 47.6212 92.642 47.6188C95.3882 47.6009 98.1346 47.6134 100.881 47.6032C101.306 47.6015 101.886 47.8025 102.116 47.5079C102.328 47.2349 102.166 46.6812 102.196 46.2529ZM89.5326 42.2309C88.2502 42.2144 86.9675 42.2248 85.685 42.2234C85.5094 42.2233 85.291 42.2663 85.4159 41.9533C86.0878 40.2684 86.7561 38.5821 87.4763 36.7682C87.7457 37.3494 87.9739 37.8291 88.1915 38.3134C88.7161 39.4806 89.2297 40.6528 89.7618 41.8166C89.8881 42.0929 89.9333 42.2362 89.5326 42.2309Z" fill="#D82C21"/>
<path fill-rule="evenodd" clip-rule="evenodd" d="M14.9436 37.8661C14.9439 37.1057 14.9534 36.3448 14.9387 35.5846C14.9337 35.327 15.0217 35.2536 15.2721 35.2569C16.1825 35.2691 17.0935 35.2678 18.0039 35.2588C18.3916 35.2551 18.6481 35.47 18.8692 35.7382C19.6507 36.6862 19.8005 38.529 19.1948 39.5953C18.9446 40.0356 18.567 40.3027 18.0822 40.4269C17.1079 40.6766 16.1213 40.5011 15.1399 40.51C14.9013 40.5122 14.9448 40.3336 14.9443 40.1926C14.9419 39.417 14.9432 38.6417 14.9436 37.8661Z" fill="#FDFAF9"/>
<path fill-rule="evenodd" clip-rule="evenodd" d="M11.4786 36.3869C11.0892 35.2871 10.3791 34.4746 9.18646 34.2133C8.69297 34.1051 8.18605 34.0376 7.68177 34.0035C6.01094 33.8911 4.33936 34.0339 2.66816 34.0173C2.30792 34.0138 2.22423 34.137 2.22661 34.4784C2.24092 36.6108 2.23389 38.743 2.23427 40.8753C2.23452 43.0375 2.24179 45.1997 2.22686 47.3616C2.2246 47.6927 2.30604 47.8081 2.6472 47.7879C3.13806 47.7591 3.63319 47.7585 4.12417 47.7875C4.46358 47.8076 4.55242 47.6977 4.5484 47.3635C4.53071 45.8875 4.55606 44.4109 4.53184 42.9351C4.52506 42.5256 4.63573 42.3972 5.05118 42.411C6.01985 42.4431 6.99103 42.5122 7.95957 42.4197C9.25811 42.2958 10.4311 41.8938 11.1284 40.6974C11.9265 39.3288 12.0028 37.8668 11.4786 36.3869ZM9.17115 39.7922C8.89611 40.466 8.34478 40.7937 7.67336 40.9305C6.73129 41.1228 5.77731 41.0737 4.82445 41.0106C4.59106 40.9951 4.53209 40.8906 4.53485 40.6715C4.54539 39.8531 4.53912 39.0344 4.53912 38.216C4.54 37.4271 4.55505 36.638 4.53297 35.8498C4.52343 35.511 4.60436 35.3806 4.97213 35.3939C5.76074 35.4224 6.55098 35.4017 7.34072 35.4017C8.4439 35.4021 9.04468 35.8175 9.34519 36.8626C9.62939 37.8514 9.56176 38.8355 9.17115 39.7922Z" fill="#D72D21"/>
<path d="M31.0234 9.7371C31.0234 9.7371 31.3538 8.2437 32.0068 7.83058C32.6596 7.41772 32.65 8.09617 32.8555 8.4223C33.0625 8.74906 33.5511 9.27285 35.4037 8.91137C37.2544 8.54914 39.1492 7.02578 40.9589 8.46993C42.768 9.91408 43.4075 10.4441 43.4075 10.4441C43.4075 10.4441 44.8795 11.1074 42.8501 12.3253C40.82 13.544 40.82 13.544 40.82 13.544C40.82 13.544 41.1212 13.9362 36.643 12.5357C36.643 12.5357 34.5381 13.2398 34.1572 13.8852C33.7762 14.5305 33.7629 13.8065 33.8417 13.4125C33.92 13.019 33.9897 11.6375 35.2408 11.2503C36.4942 10.8633 38.8065 10.8644 40.1961 11.4275C41.5849 11.9898 41.2977 11.0333 41.1685 10.957C41.0404 10.8807 39.7381 10.1551 39.6179 9.66516C39.4977 9.17483 37.3527 9.37425 36.706 9.63721C36.0589 9.90092 34.2355 10.4223 34.2355 10.4223C34.2355 10.4223 32.0059 11.5433 31.0234 9.7371Z" fill="#EC2227"/>
<path d="M44.8509 7.65836C44.8509 7.65836 43.1215 6.58233 43.5537 8.32503C43.5537 8.32503 43.1626 10.7946 45.599 10.3842C48.0332 9.97323 57.2238 9.42024 58.4365 11.3528L59.5665 12.6569L60.3251 10.0948C60.3251 10.0948 60.1593 9.1168 59.2739 8.77475C58.3907 8.43245 51.6978 7.46622 48.8413 8.65881C45.9847 9.8514 45.5153 8.74429 44.8509 7.65836Z" fill="#EC2227"/>
<path d="M68.0958 15.0965C68.0958 15.0965 68.5338 15.1495 68.3488 14.2423C68.1626 13.3352 67.2188 11.6548 65.9179 13.3537C64.6186 15.0526 63.2908 20.6841 63.2908 20.6841C63.2908 20.6841 62.7102 22.9009 63.4675 24.1846C63.4675 24.1846 65.0891 15.3819 67.2723 14.9287C67.2724 14.9288 67.8127 14.8993 68.0958 15.0965Z" fill="#414141"/>
<path d="M53.4083 12.9504C53.4083 12.9504 50.8454 13.0256 50.1674 13.7726C49.4923 14.5199 47.9087 13.3322 49.4694 12.6759C51.0294 12.0195 52.5593 12.3638 53.0126 12.4953C53.4666 12.626 53.9881 12.7833 53.9881 12.7833C53.9881 12.7833 54.2032 12.8922 53.4083 12.9504Z" fill="#414141"/>
<path d="M55.724 23.1805C55.724 23.1805 56.3768 22.7702 55.9293 22.4869C55.4822 22.2023 55.3481 22.6075 55.179 22.5872C54.9464 22.5567 54.7898 22.4906 54.7026 22.2753C54.6144 22.0593 54.2321 22.0734 54.1003 22.2544C53.9713 22.4379 53.0259 22.7645 52.849 22.7499C52.6684 22.7346 52.0361 22.6984 52.0361 22.6984C52.0361 22.6984 52.234 23.1347 52.7255 23.1665C53.214 23.197 53.8874 22.7937 54.1874 22.9315C55.0193 23.3125 55.724 23.1805 55.724 23.1805Z" fill="#414141"/>
<path d="M55.6001 23.836C55.6001 23.836 54.641 24.1301 53.8945 23.834C53.1487 23.5375 53.2828 23.8627 53.3699 24.0792C53.4582 24.294 54.7516 24.79 55.1146 24.5945C55.4754 24.3982 56.0809 24.0062 55.6001 23.836Z" fill="#414141"/>
<path d="M59.5998 17.5244C59.7924 16.8091 60.6414 16.5671 60.2636 17.9716C59.886 19.3754 59.6265 21.9124 56.4026 26.2636C56.4026 26.2636 55.1141 28.3071 53.7782 27.9508C52.4426 27.5918 48.2731 26.738 47.8537 25.0611C47.8537 25.0611 47.4947 24.1973 48.5363 25.0358C49.5764 25.8743 52.4758 27.262 53.6515 26.9274C54.8261 26.5926 56.0216 26.9083 57.5039 23.4439C58.9849 19.9801 59.2062 18.9758 59.5998 17.5244Z" fill="#414141"/>
<path d="M44.3805 19.6009C44.3805 19.6009 44.2655 20.6319 43.9001 19.688C43.9001 19.688 43.1414 17.5105 43.1335 16.6466C43.124 15.7811 42.7969 13.9418 43.6782 14.8086C44.5592 15.6754 44.0251 16.5786 44.0251 17.602C44.0267 18.6246 44.3805 19.6009 44.3805 19.6009Z" fill="#414141"/>
<path d="M44.0691 22.9563C43.8796 22.4373 43.3311 21.837 42.5929 21.341C42.6561 20.625 42.6657 20.0788 42.5967 19.8316C42.3051 18.7987 42.0555 18.3579 42.0555 18.3579C42.0555 18.3579 41.7028 19.1417 41.3236 20.6905C40.998 20.5671 40.6612 20.4631 40.3118 20.4046C38.5068 20.0951 39.8676 21.9042 39.8676 21.9042C39.8676 21.9042 40.4192 21.7976 41.0689 21.8478C40.8548 22.9237 40.6581 24.2464 40.5331 25.8165C40.285 25.9258 40.0218 26.0447 39.7366 26.1855C36.9386 27.5551 38.5919 29.4081 38.7019 29.8953C38.8126 30.3825 39.4201 30.4485 39.5403 30.1431C39.6605 29.8375 39.4196 29.0468 39.4945 27.8939C39.5269 27.4201 39.9244 27.0616 40.4729 26.744C40.4175 27.7298 40.3875 28.7883 40.4049 29.9442C40.4049 29.9442 40.6942 32.0386 41.2427 29.5479C41.4309 28.6987 41.6806 27.4155 41.9192 26.0562C42.3501 25.8644 42.7777 25.6693 43.1402 25.4482C44.4819 24.6332 44.425 23.9338 44.0691 22.9563ZM42.0664 25.1865C42.2324 24.1912 42.3811 23.2002 42.487 22.3324C42.7573 22.5477 42.9722 22.8444 43.0663 23.2674C43.3388 24.4801 43.0425 24.7761 42.0664 25.1865Z" fill="#414141"/>
<path d="M42.2467 16.0527C42.2467 16.0527 41.9551 17.6743 40.5523 18.6977C40.5523 18.6977 39.2465 19.2111 40.3119 17.5601C40.9886 16.9694 41.4326 17.0063 41.8419 16.2646C42.2513 15.5235 42.2467 16.0527 42.2467 16.0527Z" fill="#414141"/>
<path d="M53.0624 14.5648C53.4923 14.5988 53.8007 14.696 53.8007 14.696C53.7988 14.3165 53.9774 14.4825 52.9677 14.1833C51.956 13.8847 50.7108 13.8578 50.3232 14.7818C49.9352 15.7052 50.8902 15.4262 50.8902 15.4262C51.0708 15.1652 51.2887 14.9797 51.5241 14.8478C51.6144 14.7977 51.6615 14.8546 51.6049 14.9393C51.3175 15.3628 51.4658 15.6907 51.79 15.9077C52.1125 16.1253 52.487 16.1517 52.7743 15.7276C52.9804 15.423 53.023 15.0683 52.9105 14.8118C52.8664 14.7114 52.9433 14.5556 53.0624 14.5648Z" fill="#414141"/>
<path d="M59.3954 14.3822C59.7116 14.2895 59.8935 14.1098 59.1978 13.9043C58.5028 13.6981 56.4633 14.4217 56.5994 18.0604C56.7336 21.7008 55.6035 20.9106 54.5632 20.8311C53.9736 20.7709 53.2012 20.3147 53.5329 20.9811C53.8662 21.6481 54.5098 21.2702 54.5098 21.2702C54.5098 21.2702 55.2129 21.3261 56.0569 21.3482C56.8996 21.3712 57.271 19.2451 57.3675 17.6438C57.3752 17.0606 57.3865 16.3538 57.5143 15.9595C57.7312 16.3921 58.137 16.4791 58.4803 16.3278C58.8358 16.1707 58.9827 15.8055 58.7773 15.3379C58.6526 15.059 58.6379 14.9739 58.4135 14.8891C58.9497 14.3531 59.3954 14.3822 59.3954 14.3822Z" fill="#414141"/>
<path d="M60.5568 27.3398C60.5568 27.3398 60.8036 24.4585 62.2866 26.1089C62.2866 26.1089 62.871 26.8234 62.4365 26.8792C62.0034 26.9345 61.6365 26.7503 61.2697 27.9299C60.9032 29.1093 60.5777 30.3349 59.8744 31.3041C59.1692 32.2724 58.7 33.3081 58.7 33.3081C58.7 33.3081 57.9394 33.993 58.1723 32.6978C58.4044 31.402 58.9193 30.0446 60.045 29.5783C61.1685 29.1126 60.5568 27.3398 60.5568 27.3398Z" fill="#414141"/>
<path d="M63.665 29.7747C63.665 29.7747 61.9614 31.0464 62.1413 31.9738C62.3213 32.9007 60.7974 31.3895 61.2242 30.7199C61.6497 30.051 63.3254 29.2583 63.665 29.7747Z" fill="#414141"/>
<path d="M63.7226 28.0486C63.7226 28.0486 63.0778 28.8808 62.85 28.8521C62.6207 28.8222 62.3313 28.3953 62.6257 27.914C62.9196 27.4323 63.5566 27.5823 63.6927 27.5093C63.8282 27.4354 63.7951 27.8053 63.7951 27.8053L63.7226 28.0486Z" fill="#414141"/>
<path d="M60.1623 5.89025C60.1623 5.89025 60.1794 7.67745 58.8722 6.49476L58.5668 5.00248C58.5668 5.00248 58.5369 4.0469 59.0271 4.64577C59.5186 5.24651 60.1623 5.89025 60.1623 5.89025Z" fill="#414141"/>
<path d="M56.4348 5.8123C56.4348 5.8123 57.3073 6.71937 57.2505 5.10802C57.1921 3.49743 56.2104 3.73795 55.4536 3.28636C54.6964 2.83489 54.162 2.33604 54.162 2.33604C54.162 2.33604 52.4171 1.53501 53.6738 2.9398C54.9316 4.34384 56.372 4.76973 56.4348 5.8123Z" fill="#414141"/>
<path d="M54.1289 6.22907C54.1289 6.22907 54.1245 7.17425 53.1904 6.55746C52.2575 5.94054 50.92 4.56032 50.5372 4.44739C50.1532 4.33371 47.6446 3.58444 47.3524 3.29353C47.0589 3.00174 45.8427 1.47336 47.3758 2.18867C47.3758 2.18867 47.9119 2.42593 48.3622 2.44198C48.8301 2.27528 49.1115 2.09304 50.2724 3.42187C50.8806 4.05633 51.2998 4.17992 51.9363 3.95193C52.5735 3.72281 53.1693 3.96233 53.7194 5.26835C54.2693 6.57338 54.1289 6.22907 54.1289 6.22907Z" fill="#414141"/>
</svg>
