<svg width="126" height="50" viewBox="0 0 126 50" fill="none" xmlns="http://www.w3.org/2000/svg">
<path fill-rule="evenodd" clip-rule="evenodd" d="M125.702 9.82625C125.579 10.2618 125.455 10.6975 125.359 11.0368C124.608 11.0368 123.879 10.9347 123.189 11.0568C121.43 11.3678 120.746 12.8356 120.844 14.262C120.892 14.9557 121.406 15.4836 122.148 15.6491C122.918 15.8209 123.673 15.7512 124.403 15.447C124.533 15.3927 124.662 15.3348 124.899 15.2322C124.869 15.644 124.848 15.9753 124.821 16.3061C124.734 17.3714 124.68 17.4419 123.612 17.6609C122.697 17.8486 121.777 17.915 120.857 17.6838C118.975 17.2107 117.844 15.5617 118.082 13.6394C118.437 10.7769 120.321 9.01834 123.207 8.88825C123.782 8.86234 124.367 8.89538 124.936 8.98069C125.206 9.02112 125.448 9.2486 125.702 9.39138C125.702 9.53643 125.702 9.6813 125.702 9.82625Z" fill="#6E7072"/>
<path fill-rule="evenodd" clip-rule="evenodd" d="M107.348 45.9924C107.35 46.024 107.353 46.0555 107.355 46.087C105.587 46.087 103.819 46.087 102.051 46.087C102.066 46.0472 102.082 46.0074 102.097 45.9675C103.847 45.9759 105.598 45.9841 107.348 45.9924Z" fill="#FAC9A0"/>
<path fill-rule="evenodd" clip-rule="evenodd" d="M125.705 36.9566C125.674 36.9525 125.644 36.9484 125.613 36.9443C125.616 35.9327 125.618 34.9211 125.62 33.9097C125.649 33.9109 125.677 33.9119 125.705 33.9131C125.705 34.9277 125.705 35.9421 125.705 36.9566Z" fill="#F7A560"/>
<path fill-rule="evenodd" clip-rule="evenodd" d="M125.617 33.9096C125.614 34.9212 125.612 35.9327 125.609 36.9442C121.785 36.9483 117.96 36.9526 114.136 36.9564C113.312 36.9573 112.488 36.9566 111.622 36.9566C111.72 38.1681 112.078 39.2435 112.852 40.1515C114.18 41.7106 115.947 42.2566 117.923 42.2961C119.956 42.3368 121.888 41.9176 123.72 41.0363C123.796 41 123.876 40.9739 123.996 40.9265C124.012 41.0621 124.034 41.1678 124.034 41.2738C124.037 42.3459 124.026 43.4181 124.042 44.49C124.047 44.7697 123.952 44.8869 123.691 44.9821C121.682 45.716 119.604 46.0008 117.474 46.0192C115.824 46.0333 114.206 45.8648 112.657 45.2726C110.359 44.3947 108.687 42.831 107.626 40.6134C107.566 40.4876 107.504 40.3621 107.346 40.2495C107.346 42.1639 107.346 44.0781 107.346 45.9923C105.596 45.9841 103.846 45.9758 102.096 45.9674C102.092 42.287 102.108 38.6064 102.07 34.9262C102.06 33.9931 101.98 33.0356 101.753 32.1343C101.05 29.3386 98.8348 29.083 96.9374 29.7657C95.8186 30.1683 95.1455 31.0567 94.6679 32.1011C94.1599 33.2123 93.9675 34.395 93.9647 35.6074C93.9573 38.8967 93.9622 42.1861 93.9622 45.4754C93.9622 45.6333 93.9622 45.7912 93.9622 45.9809C92.1973 45.9809 90.4565 45.9809 88.671 45.9809C88.671 45.7936 88.6712 45.6234 88.671 45.4533C88.6666 41.7439 88.6866 38.0341 88.6391 34.3253C88.6283 33.4843 88.4789 32.6164 88.2269 31.813C87.6519 29.9797 86.2424 29.188 84.3483 29.5132C81.9716 29.9211 80.6594 31.2716 80.2326 33.8042C80.1201 34.472 80.0608 35.1563 80.057 35.8334C80.0393 39.0501 80.0491 42.2671 80.0491 45.4841C80.0491 45.6411 80.0491 45.7981 80.0491 45.9841C78.4333 45.9841 76.8469 45.9841 75.2266 45.9841C75.2266 38.9986 75.2266 32.0089 75.2266 24.9506C76.4123 25.0133 77.6133 24.8034 78.7893 25.1343C79.5814 25.3572 79.9982 25.9381 80.0456 26.8161C80.0652 27.1774 80.0595 27.5401 80.062 27.9023C80.0644 28.2574 80.0626 28.6127 80.0626 29.0762C80.359 28.6467 80.5802 28.2984 80.8286 27.9707C82.5784 25.6617 84.9588 24.8105 87.7734 25.014C90.3337 25.1991 92.065 26.5628 93.1182 28.857C93.1724 28.9751 93.2309 29.0912 93.324 29.2842C93.4658 29.0598 93.583 28.8763 93.6982 28.6916C95.7509 25.3992 99.2425 24.4643 102.436 25.2152C104.709 25.7497 106.022 27.3251 106.749 29.4567C106.925 29.9746 107.046 30.5116 107.172 30.9678C107.631 30.2087 108.048 29.3553 108.613 28.614C110.286 26.4186 112.554 25.283 115.291 25.0323C116.884 24.8864 118.452 24.9868 119.962 25.5192C122.865 26.5421 124.508 28.6969 125.249 31.6C125.441 32.3521 125.498 33.1388 125.617 33.9096ZM111.612 33.6938C114.772 33.6938 117.878 33.6938 121.019 33.6938C120.895 32.4052 120.638 31.1966 119.895 30.1481C118.359 27.9835 115.253 27.726 113.359 29.5934C112.224 30.7125 111.813 32.1354 111.612 33.6938Z" fill="#F48221"/>
<path fill-rule="evenodd" clip-rule="evenodd" d="M61.3255 46.0739C59.3066 45.9953 57.3586 45.684 55.5807 44.6931C52.7495 43.1152 51.2682 40.6252 50.8384 37.468C50.5721 35.5116 50.6333 33.5593 51.2238 31.6656C52.3654 28.0049 54.9295 25.9202 58.6416 25.2332C61.0823 24.7816 63.523 24.8551 65.8755 25.732C69.1842 26.9655 71.108 29.4024 71.7715 32.8291C72.2041 35.0636 72.1545 37.3094 71.4205 39.4804C70.239 42.975 67.7334 44.9987 64.1637 45.7286C63.2329 45.9191 62.2724 45.9628 61.3255 46.0739ZM66.5881 35.4749C66.5993 34.0026 66.3511 32.5058 65.5164 31.1545C63.7762 28.3377 60.0174 27.9411 57.8472 30.349C56.8091 31.5008 56.3198 32.8889 56.1822 34.4107C56.0234 36.1664 56.1468 37.8864 57.0004 39.4749C57.9109 41.1694 59.2915 42.1695 61.2658 42.2046C63.2134 42.2392 64.6441 41.3423 65.6174 39.6905C66.3666 38.419 66.5903 37.0148 66.5881 35.4749Z" fill="#F48221"/>
<path fill-rule="evenodd" clip-rule="evenodd" d="M14.3256 45.9795C12.6793 45.9795 11.0783 45.9795 9.45312 45.9795C9.45312 38.983 9.45312 32.0043 9.45312 24.9564C9.68295 24.9564 9.92191 24.9555 10.1609 24.9567C10.8129 24.9599 11.4654 24.947 12.1165 24.9714C13.5662 25.0257 14.2523 25.7337 14.2753 27.183C14.2849 27.7824 14.277 28.382 14.277 29.031C14.7347 28.4405 15.1157 27.8804 15.5651 27.382C17.064 25.7195 19.0041 25.0429 21.1876 24.9742C22.5774 24.9304 23.9387 25.1041 25.1949 25.7488C27.1187 26.7362 28.0603 28.442 28.462 30.4663C28.6691 31.51 28.7741 32.5894 28.7841 33.6539C28.8209 37.5803 28.7987 41.5073 28.7987 45.4341C28.7987 45.6055 28.7987 45.7766 28.7987 45.9738C27.031 45.9738 25.3021 45.9738 23.5293 45.9738C23.5293 45.7921 23.5295 45.6225 23.5293 45.4528C23.525 41.7436 23.542 38.0341 23.4991 34.3252C23.4902 33.5558 23.3357 32.7662 23.1156 32.0255C22.5178 30.0129 20.9532 29.1985 18.9616 29.438C16.3666 29.7499 14.947 31.217 14.4909 33.9876C14.3879 34.6131 14.3357 35.2539 14.3327 35.888C14.3171 39.0901 14.3255 42.2925 14.3255 45.4948C14.3256 45.6497 14.3256 45.8046 14.3256 45.9795Z" fill="#F48221"/>
<path fill-rule="evenodd" clip-rule="evenodd" d="M48.2723 26.0201C48.1427 27.3432 48.0134 28.6635 47.8796 30.0308C47.3349 29.8468 46.8347 29.6761 46.3334 29.5089C44.9044 29.0323 43.4553 28.8748 41.9758 29.2475C39.3737 29.9032 37.5699 32.137 37.4415 34.8448C37.3761 36.225 37.5098 37.5682 38.1877 38.8021C39.5365 41.2568 42.0331 42.1695 44.627 41.8714C45.8859 41.7267 47.0832 41.3515 48.2799 40.7862C48.3794 41.7772 48.4754 42.7316 48.5704 43.6862C48.579 43.7726 48.578 43.8599 48.5864 43.9463C48.6762 44.8756 48.6845 44.8996 47.7846 45.1969C44.398 46.3156 40.9902 46.4789 37.7147 44.9299C34.4966 43.4081 32.6034 40.7802 32.1391 37.2236C31.8263 34.828 32.0055 32.4674 33.2182 30.3082C34.9999 27.1356 37.7426 25.4106 41.3556 25.0336C43.6627 24.7928 45.8816 25.1713 48.0553 25.9163C48.1219 25.9391 48.1833 25.9771 48.2723 26.0201Z" fill="#F48221"/>
<path fill-rule="evenodd" clip-rule="evenodd" d="M5.28232 45.9863C3.64641 45.9863 2.07119 45.9863 0.464844 45.9863C0.464844 38.9902 0.464844 32.0043 0.464844 24.8948C1.62989 24.9623 2.79858 24.96 3.94476 25.1196C4.79641 25.2381 5.1518 25.9399 5.26076 26.7498C5.28189 26.907 5.28154 27.0677 5.28154 27.2268C5.2825 33.3519 5.28241 39.4772 5.28241 45.6024C5.28232 45.7164 5.28232 45.8304 5.28232 45.9863Z" fill="#F48322"/>
<path fill-rule="evenodd" clip-rule="evenodd" d="M97.968 17.7023C96.993 17.7023 96.0574 17.7023 95.0773 17.7023C95.3326 16.485 95.5837 15.2999 95.8289 14.1136C95.9546 13.5053 96.0766 12.8961 96.1871 12.285C96.2636 11.8618 96.2921 11.4223 95.912 11.1238C95.5199 10.8159 95.0599 10.8801 94.6293 11.0414C93.9187 11.3076 93.5147 11.8838 93.3372 12.5763C93.0181 13.8212 92.7664 15.0834 92.4881 16.3388C92.3884 16.7882 92.2932 17.2387 92.1925 17.7048C91.2362 17.7048 90.2997 17.7048 89.3047 17.7048C89.4791 16.8621 89.6471 16.0345 89.8219 15.2085C90.22 13.328 90.6226 11.4485 91.0209 9.56811C91.1655 8.88559 91.181 8.8695 91.8617 8.86941C92.3829 8.86941 92.9052 8.8888 93.4252 8.86307C93.8094 8.84411 93.8776 9.00376 93.7866 9.33063C93.7371 9.50863 93.7137 9.69394 93.6546 9.99985C93.8827 9.80941 94.0205 9.69341 94.1593 9.57854C95.0498 8.84254 96.0505 8.48776 97.2179 8.66394C98.7382 8.89359 99.3591 9.9935 99.1938 11.2902C98.9787 12.9776 98.5891 14.6431 98.2684 16.3167C98.1791 16.7823 98.0681 17.2437 97.968 17.7023Z" fill="#6E7072"/>
<path fill-rule="evenodd" clip-rule="evenodd" d="M101.767 10.582C101.361 10.582 101.032 10.582 100.626 10.582C100.748 10.0576 100.841 9.58147 100.981 9.11999C101.014 9.01121 101.202 8.90016 101.332 8.88086C101.586 8.84329 101.85 8.86981 102.142 8.86981C102.288 8.1746 102.448 7.50147 102.567 6.82112C102.643 6.38851 102.831 6.20721 103.293 6.23703C103.928 6.27799 104.568 6.25538 105.205 6.24416C105.515 6.23868 105.616 6.33921 105.542 6.65808C105.378 7.37503 105.242 8.09868 105.084 8.86955C105.458 8.86955 105.801 8.88094 106.144 8.86607C106.439 8.85329 106.543 8.97225 106.481 9.25581C106.388 9.67834 106.298 10.1018 106.196 10.5743C105.785 10.5743 105.382 10.5565 104.982 10.5857C104.869 10.5941 104.691 10.723 104.669 10.8241C104.324 12.4206 103.988 14.0193 103.676 15.6226C103.54 16.322 103.799 16.6035 104.507 16.5656C104.818 16.5489 104.901 16.6642 104.84 16.9437C104.801 17.1274 104.788 17.3207 104.72 17.4931C104.682 17.5919 104.56 17.7255 104.473 17.7275C103.739 17.7437 102.993 17.8126 102.272 17.7115C101.258 17.5691 100.652 16.8073 100.767 15.7624C100.894 14.6169 101.174 13.4882 101.395 12.3536C101.505 11.7875 101.631 11.2243 101.767 10.582Z" fill="#6D6F71"/>
<path fill-rule="evenodd" clip-rule="evenodd" d="M112.5 17.796C111.754 17.796 111.006 17.8323 110.263 17.7833C109.764 17.7504 109.257 17.6426 108.78 17.4878C107.685 17.1327 107.051 16.3159 107.114 15.172C107.17 14.1542 107.38 13.1428 107.553 12.1339C107.663 11.4934 107.818 10.8595 107.979 10.2294C108.026 10.0465 108.126 9.79116 108.269 9.7329C109.053 9.41246 109.852 9.12003 110.66 8.86612C111.028 8.75046 111.125 8.9382 111.037 9.32299C110.675 10.9163 110.327 12.5136 110.016 14.1177C109.93 14.5646 109.934 15.0469 109.992 15.5006C110.136 16.6192 110.825 17.2754 111.896 17.5546C112.091 17.6054 112.291 17.6392 112.489 17.6808C112.492 17.7192 112.496 17.7576 112.5 17.796Z" fill="#6E7072"/>
<path fill-rule="evenodd" clip-rule="evenodd" d="M113.898 15.4629C113.178 15.4332 112.747 15.0529 112.836 14.3403C112.961 13.3271 113.207 12.3288 113.404 11.3245C113.438 11.1545 113.51 10.9876 113.516 10.8176C113.544 9.96817 114.019 9.5146 114.799 9.30512C115.327 9.16347 115.846 8.98964 116.376 8.85904C116.68 8.78425 116.799 8.92782 116.727 9.24582C116.371 10.8235 116.04 12.4069 115.668 13.9805C115.437 14.9577 114.756 15.4983 113.898 15.4629Z" fill="#6E7072"/>
</svg>
