<svg width="153" height="50" viewBox="0 0 153 50" fill="none" xmlns="http://www.w3.org/2000/svg">
<path d="M116.188 24.0343C118.107 24.0343 119.067 22.3678 119.067 20.609V17.4888L117.34 18.3223C114.975 19.4666 113.725 20.0821 113.725 21.8424C113.725 23.325 114.748 24.0343 116.188 24.0343ZM119.451 25.4563C119.162 24.3139 119.195 23.543 118.939 23.543C118.81 23.543 118.778 23.6026 118.746 23.6349C117.915 24.8081 117.244 25.7638 115.004 25.7638C112.799 25.7638 111.038 24.5915 111.038 22.3375C111.038 19.6509 114.652 18.5383 116.795 17.5523C118.62 16.7184 119.067 16.6544 119.067 14.6496C119.067 13.1064 118.459 11.9317 116.573 11.9317C113.532 11.9317 114.782 14.896 112.7 14.896C111.999 14.896 111.519 14.5553 111.519 13.8162C111.519 11.7171 114.748 11.0059 117.213 11.0059C119.482 11.0059 121.436 11.5001 121.436 13.5072V20.3029C121.436 22.1215 121.337 24.0059 122.33 25.2715L119.451 25.4563Z" fill="#034694"/>
<path d="M127.879 21.9083V12.6603C129.348 12.4803 130.774 12.0655 131.383 11.1083C130.258 11.208 129.071 11.258 127.879 11.2854V6.93091L125.64 7.51895L125.513 11.3138C125.002 11.3167 124.501 11.3167 124.012 11.3167V12.7989L125.513 12.7974V22.3698C125.513 24.2542 126.281 25.5824 128.389 25.5824C129.606 25.5824 131.111 24.6565 131.142 24.3788L131.27 23.0507C130.917 23.3899 129.895 23.7908 129.32 23.7908C128.039 23.7898 127.879 22.9256 127.879 21.9083Z" fill="#034694"/>
<path d="M111.006 44.819V35.5729C112.473 35.3929 113.902 34.9805 114.51 34.0214C113.383 34.1186 112.196 34.1697 111.006 34.1985V29.845L108.768 30.4321L108.638 34.225C108.13 34.2279 107.627 34.2279 107.137 34.2279V35.7115L108.638 35.7086V45.2829C108.638 47.1654 109.404 48.495 111.516 48.495C112.735 48.495 114.236 47.5677 114.268 47.2895L114.396 45.9614C114.044 46.3026 113.019 46.7034 112.446 46.7034C111.167 46.7034 111.006 45.8387 111.006 44.819Z" fill="#034694"/>
<path d="M85.3419 8.7522C83.1692 7.05207 81.3438 6.43467 78.8792 6.43467C73.9217 6.43467 71.2028 10.4812 71.2028 14.9888C71.2028 20.6998 73.8587 24.4061 80.0309 24.4061C80.8634 24.4061 81.6 24.3138 82.4006 24.1891C82.7207 23.1386 82.7207 22.0588 82.7207 21.0088V19.4949C82.7207 18.4838 82.7106 17.3592 82.4481 16.4136C82.2844 15.8338 81.7187 15.8338 80.9346 15.4531H85.5913L85.5985 22.5847C85.5985 23.3869 85.694 24.499 85.8223 25.2709C83.8691 25.5798 81.2494 25.7641 79.0094 25.7641C72.2605 25.7641 67.8789 22.8937 67.8789 15.9473C67.8789 8.47358 73.3483 5.07764 80.5127 5.07764C82.1124 5.07764 83.7107 5.29467 85.3423 5.41738V8.7522" fill="#034694"/>
<path d="M89.6006 16.4402C89.6006 14.2473 89.6006 12.1155 88.7695 11.4678C89.9537 11.4385 91.0725 11.3143 91.4541 11.3143C92.0304 11.3143 91.6798 12.859 92.0304 12.859C92.1917 12.859 93.2465 11.0054 95.133 11.0054C96.2537 11.0054 96.892 11.438 96.892 12.1786C96.892 12.7652 96.5714 13.1968 95.7732 13.1968C95.1635 13.1968 94.5256 13.1064 93.7585 13.1064C92.1597 13.1064 91.966 14.1857 91.966 15.5466V21.9054C91.966 23.0483 91.966 24.375 92.5438 25.2705H89.0248C89.6001 24.3755 89.6001 23.0483 89.6001 21.9054V16.4402" fill="#034694"/>
<path d="M103.862 15.4528C105.428 15.4528 106.261 15.4528 106.261 14.2791C106.261 13.1352 105.398 11.9312 103.83 11.9312C101.813 11.9312 100.951 13.8157 100.567 15.4528H103.862ZM100.332 16.3772C100.269 16.9652 100.206 17.4585 100.206 18.1076C100.206 20.9795 101.549 23.7268 104.876 23.7268C106.442 23.7268 107.977 23.1094 108.746 22.2754V22.6152C108.746 24.2508 106.058 25.7633 103.692 25.7633C99.5018 25.7633 97.5195 22.1205 97.5195 18.3838C97.5195 14.3695 99.8205 11.0049 104.203 11.0049C107.276 11.0049 109.096 12.9495 109.096 14.9576C109.096 16.3767 108.041 16.3767 106.059 16.3767H100.332V16.3772Z" fill="#034694"/>
<path d="M71.3807 46.766H75.2184C77.1988 46.766 79.2474 46.3026 80.7498 45.0043L80.1758 47.8459C79.3104 47.9075 78.256 48.0003 77.1048 48.0003H67.7812C68.4859 46.9498 68.5813 45.3435 68.5813 43.9552V32.3473C68.5813 30.9557 68.5813 29.3503 67.8786 28.3018H79.1186L79.2474 30.679C78.1286 29.7502 76.4011 29.537 74.5127 29.537H71.3807V36.9146C73.8434 36.9146 76.5919 36.9146 79.0551 36.699C77.9364 38.4593 74.1645 38.4593 72.1793 38.4593H71.3812V46.766" fill="#034694"/>
<path d="M87.5623 46.7659C89.4812 46.7659 90.4416 45.0966 90.4416 43.3387V40.2195L88.7135 41.0539C86.3477 42.1973 85.0996 42.8108 85.0996 44.573C85.0996 46.0542 86.1229 46.7659 87.5623 46.7659ZM90.8237 48.1841C90.537 47.0426 90.5699 46.2708 90.3137 46.2708C90.1868 46.2708 90.1534 46.3328 90.1219 46.3632C89.2899 47.5378 88.6167 48.4945 86.3786 48.4945C84.1697 48.4945 82.4131 47.3198 82.4131 45.0672C82.4131 42.3797 86.027 41.2676 88.1701 40.2816C89.9936 39.4481 90.4416 39.3855 90.4416 37.3784C90.4416 35.8332 89.8328 34.6614 87.9449 34.6614C84.9083 34.6614 86.1539 37.6252 84.0777 37.6252C83.372 37.6252 82.893 37.2855 82.893 36.5439C82.893 34.4463 86.1234 33.7336 88.5862 33.7336C90.8571 33.7336 92.806 34.2274 92.806 36.235V43.0288C92.806 44.8497 92.712 46.7342 93.7044 47.9998L90.8237 48.1841Z" fill="#034694"/>
<path d="M105.329 44.0793C105.329 47.0114 102.388 48.4945 99.6691 48.4945C98.3881 48.4945 97.3018 48.2466 96.1181 47.8135C95.765 47.6904 95.5752 47.5672 95.5752 47.1355C95.5752 46.394 95.7035 45.6524 95.7341 44.8829C96.7264 46.4267 97.5255 47.3819 99.6371 47.3819C101.524 47.3819 102.641 46.5196 102.641 44.7569C102.641 40.9909 96.3109 41.6063 96.3109 37.0401C96.3109 34.7221 98.1668 33.7336 101.17 33.7336C102.131 33.7336 103.123 33.8881 104.083 34.1032C104.18 34.1364 104.497 34.1985 104.497 34.3828C104.497 34.9372 104.467 35.8332 104.433 36.4819C103.187 34.9699 102.546 34.6614 101.075 34.6614C99.828 34.6614 98.6772 35.2168 98.6772 36.5439C98.6772 40.219 105.329 39.7873 105.329 44.0793Z" fill="#034694"/>
<path d="M122.229 38.181C123.797 38.181 124.629 38.181 124.629 37.0074C124.629 35.8659 123.765 34.6619 122.198 34.6619C120.183 34.6619 119.319 36.5444 118.935 38.181H122.229ZM118.746 39.1088C118.681 39.694 118.618 40.1882 118.618 40.8354C118.618 43.7068 119.96 46.4551 123.284 46.4551C124.853 46.4551 126.388 45.8386 127.157 45.0037V45.3435C127.157 46.9806 124.468 48.4945 122.104 48.4945C117.912 48.4945 115.93 44.8502 115.93 41.1141C115.93 37.1026 118.233 33.7336 122.613 33.7336C125.685 33.7336 127.507 35.6806 127.507 37.6849C127.507 39.1088 126.45 39.1088 124.468 39.1088H118.746Z" fill="#034694"/>
<path d="M130.536 39.1699C130.536 36.9751 130.536 34.8467 129.707 34.1985C130.892 34.1667 132.011 34.045 132.395 34.045C132.971 34.045 132.619 35.5868 132.971 35.5868C133.13 35.5868 134.185 33.7336 136.072 33.7336C137.192 33.7336 137.83 34.1663 137.83 34.9078C137.83 35.4949 137.513 35.9275 136.713 35.9275C136.104 35.9275 135.462 35.8327 134.697 35.8327C133.097 35.8327 132.906 36.914 132.906 38.273V44.6337C132.906 45.7741 132.906 47.1047 133.48 47.9998H129.964C130.536 47.1047 130.536 45.7741 130.536 44.6337V39.1699Z" fill="#034694"/>
<path d="M142.433 34.045V35.1253C142.433 35.3707 142.399 35.6176 142.623 35.6176C142.912 35.6176 144.318 33.7336 146.815 33.7336C149.215 33.7336 150.716 34.8761 150.716 37.7475V44.663C150.716 45.8074 150.716 47.1355 151.226 48.0003H148.349V39.5386C148.349 37.5627 148.06 35.4015 145.502 35.4015C142.975 35.4015 142.496 37.5944 142.496 39.694V44.663C142.496 45.8074 142.496 47.1355 143.071 48.0003H139.554C140.129 47.1355 140.129 45.8074 140.129 44.663V37.3163C140.129 36.0512 140.129 34.8467 139.457 34.2279L142.433 34.045Z" fill="#034694"/>
<path d="M62.7215 44.3002C63.2595 45.1794 64.2596 46.7096 63.6451 47.6663C63.0295 48.6215 60.7987 48.1225 58.7951 47.8939C56.7963 47.6663 55.7163 47.9314 54.9879 47.9314C54.2556 47.9314 53.8328 47.3973 53.4473 46.7852C53.0623 46.1731 52.9833 45.9835 53.024 45.1794C53.0623 44.3786 52.9465 44.8348 52.0229 42.7718C51.0994 40.706 50.138 39.8278 49.4842 39.4447C48.8289 39.0631 48.9461 38.8326 49.0216 38.6416C49.1001 38.4505 49.3674 37.9905 48.7528 36.5786C48.1373 35.1614 47.6757 34.6667 47.6757 34.6667C46.5584 35.6123 43.5963 36.3495 43.5963 36.3495C43.5963 36.3495 43.5963 37.2268 44.1349 39.8278C44.6003 42.0697 45.4803 43.9936 45.8276 44.1467C46.1763 44.3002 47.312 43.6419 48.1978 43.6679C49.612 43.7054 49.6697 44.817 49.983 46.2501C50.2925 47.6437 49.906 48.0854 48.9839 48.0113C48.0603 47.9314 44.1732 47.8939 42.5962 47.8174C41.0188 47.7404 41.3268 47.4372 40.7888 46.8246C40.2492 46.2116 40.4807 45.3343 40.4052 44.8738C40.3248 44.4161 38.7479 41.6631 38.3638 41.0881C37.9788 40.5154 37.5555 40.5154 37.1719 40.0583C36.7849 39.5973 36.9792 39.0636 37.093 38.642C37.2082 38.2215 37.0552 37.3803 37.0552 37.3803C37.0552 37.3803 35.9011 37.4506 34.7465 37.4506C33.5923 37.4506 32.5535 37.2662 32.5535 37.2662C32.5535 37.2662 31.4357 38.2989 29.8597 38.8331C28.2823 39.3706 26.5509 39.7123 26.1276 39.9442C25.7043 40.1718 26.0109 40.668 26.4734 42.0827C26.9345 43.4994 27.7428 44.4311 27.7428 44.4311L28.8984 44.0466C29.7052 43.7814 30.4051 43.8339 30.7819 44.1265C31.5214 44.6953 32.0924 46.534 32.0135 47.4517C31.9374 48.3689 30.6671 48.0628 27.5893 47.9868C24.5109 47.9098 24.0877 48.0623 23.5859 47.9098C23.088 47.7563 22.856 47.1066 22.8168 46.725C22.7786 46.342 23.0105 46.2284 22.0482 44.3531C21.0868 42.4793 21.2016 42.1588 20.3555 41.6227C19.5075 41.0881 19.4697 41.1641 19.3544 40.5149C19.1123 39.1516 20.1235 38.9847 21.1634 38.5261C22.2012 38.0689 22.7011 36.8851 22.7011 36.8851L21.6622 36.9616C21.6622 36.9616 20.6238 38.259 17.4307 38.9457C14.2357 39.6348 12.3488 40.0842 11.0237 41.0534C10.2944 41.5885 9.27343 44.4032 9.27343 44.4032C9.27343 44.4032 9.657 44.2131 10.5811 43.9436C11.5047 43.678 11.6974 43.9436 12.4675 45.3993C13.2361 46.8492 12.9286 48.0753 11.5047 48.1133C10.0808 48.1494 10.3113 47.6663 7.57833 47.8564C4.84824 48.0474 4.44335 48.3992 3.88252 47.8121C3.45777 47.3689 3.58321 46.4993 3.58854 45.9248C3.59726 45.1794 4.10046 44.9036 4.46709 44.177C4.6889 43.7343 5.42845 42.205 5.89097 41.2421C6.63778 39.6969 6.73174 38.7277 6.84846 37.8384C6.91288 37.3466 7.84809 36.6152 8.6196 36.6931C10.2687 36.8548 11.1584 35.5069 11.8122 34.6667C12.4675 33.8256 13.1969 32.5628 13.1969 32.5628C13.1969 32.5628 10.0508 34.1619 6.17672 33.1995C2.24166 32.225 1.49097 28.6356 2.84172 26.4894C3.94257 24.7359 6.66927 23.5434 9.34075 23.1748C12.4191 22.7504 14.2919 22.838 14.5985 22.1128C14.7375 21.787 13.9616 20.5695 14.3863 19.1797C14.7699 17.9199 15.3918 17.4743 16.3527 16.5562C17.3155 15.639 17.2007 14.8748 17.2007 14.8748C17.2007 14.8748 19.3167 18.6571 18.1621 20.7986C16.1589 24.5131 11.5802 24.2417 8.92617 24.8913C6.27213 25.5409 4.12371 27.1689 4.15373 28.7906C4.20991 31.8405 10.2813 32.4353 12.0035 30.3825C14.0798 27.9104 15.8611 25.5092 22.6241 25.1444C28.3191 24.8384 29.7052 25.4895 33.9769 22.5074C34.4704 22.1623 34.9077 21.8341 35.3 21.5242C35.1833 20.7086 35.2114 19.6326 35.549 18.2447C36.0648 16.1144 37.3216 14.19 37.1671 14.0346C37.0121 13.8825 36.1645 14.8782 35.9345 14.4927C35.7025 14.1116 36.9525 11.1406 38.1696 9.7484C40.1727 7.4506 42.3308 7.22009 42.6384 6.83849C42.9478 6.45448 41.1767 6.76053 41.4043 6.37748C41.6363 5.99444 43.2559 5.00025 46.9541 5.00025C51.0408 4.99928 50.0382 5.7673 51.4229 6.07191C52.8104 6.37748 54.1224 6.60799 54.815 6.83849C55.5095 7.06755 55.8176 7.75665 56.2011 7.98667C56.5891 8.21621 56.8181 8.14066 58.3602 8.29272C59.9013 8.44623 60.5798 8.85142 60.6433 9.28836C60.7498 10.0145 60.6728 11.2022 60.3536 12.1015C60.0694 12.9085 59.0547 13.039 59.0547 13.039C59.0547 13.039 57.9752 13.346 56.0462 12.8864C54.1215 12.4268 53.5045 12.4268 53.5045 14.4927C53.5045 16.5634 53.967 16.4075 56.2781 16.4075C58.5922 16.4075 59.1317 15.4147 59.5158 15.4147C59.9008 15.4147 59.9008 15.8728 59.9008 16.637C59.9008 17.4041 59.8248 18.1697 59.4393 18.4781C59.0547 18.7827 57.7819 18.4266 57.7819 18.4266C57.7819 18.4266 58.5312 19.4574 58.6455 20.1225C59.3342 24.1478 56.5774 26.7921 56.1948 26.7377C55.5541 26.6458 55.6471 23.9178 54.9143 24.4621C54.5884 24.707 54.9143 26.3407 53.9403 27.8055L54.1665 29.6178C54.1665 29.6178 54.6784 34.2827 55.9856 38.527C57.2942 42.7728 58.5636 43.6881 58.8334 44.1087C59.1022 44.5316 59.8345 43.958 60.8733 43.6501C61.9117 43.343 62.1819 43.4215 62.7215 44.3002ZM45.1055 8.59878C46.108 8.36827 46.9541 9.21185 46.9541 9.21185C46.9541 9.21185 46.493 7.83172 44.9495 8.06366C43.4089 8.29272 42.7929 9.51742 43.4874 10.8961C44.1804 12.2748 45.4145 12.1983 45.4145 12.1983C45.4145 12.1983 45.4145 13.9581 46.0291 14.9556C46.6461 15.9513 47.6476 16.9445 47.6476 16.9445C47.6476 16.9445 46.4935 14.9556 46.34 14.0351C46.1836 13.1174 46.1836 11.6636 46.1836 11.6636C46.1836 11.6636 44.641 11.5087 44.2579 10.6661C43.8729 9.82299 43.8274 8.89184 45.1055 8.59878ZM42.7173 30.0162C44.023 32.1663 45.9501 32.2837 46.2204 32.2837C45.9501 32.2837 43.6549 31.1928 42.557 28.4648C41.9555 26.9677 41.8034 26.1001 41.8034 26.1001C41.1878 25.8696 41.0203 28.7454 40.6348 28.7454C40.2488 28.7454 39.1532 27.7685 38.0921 25.5299C37.6916 24.6892 37.7618 23.0814 37.7715 20.9737C37.1516 23.5497 37.2712 24.7927 37.9618 26.7007C38.5701 28.3743 40.4735 30.1159 40.8575 30.1014C41.5588 30.075 41.1244 27.8099 41.7405 28.0385C41.7405 28.0385 41.8765 28.6395 42.7173 30.0162ZM49.1669 31.0841C49.784 31.8771 52.0602 33.2356 52.2598 31.7395C52.0602 32.7293 49.8179 31.0172 49.1752 29.9162C48.5146 28.779 48.4763 27.7685 48.0491 27.6467C47.8142 27.5789 46.7981 28.5601 46.7967 30.444C47.4641 29.1481 47.7595 28.5601 48.0845 29.2362C48.2743 29.6342 48.7272 30.5182 49.1669 31.0841ZM53.6023 9.66996L53.9723 8.90579C53.9723 8.90579 53.3504 8.50927 52.5944 8.42843C51.7314 8.33748 50.6741 8.8851 50.6741 8.8851C50.6741 8.8851 51.6752 8.69694 52.4118 8.92119C53.2323 9.16998 53.6023 9.66996 53.6023 9.66996ZM59.3012 12.7661C59.3012 12.7661 59.926 12.3908 59.8679 11.2854C59.8374 10.6752 59.8582 10.2729 59.8582 10.2729C59.8582 10.2729 60.0185 10.2493 60.2331 10.0622C60.4762 9.85138 60.6224 9.63195 60.4549 9.28547C60.2626 8.89039 60.0921 9.40433 59.5163 9.2898C58.9409 9.17527 58.0023 9.39182 58.366 9.63532C58.7104 9.86149 59.4751 10.2763 59.4751 10.2763C59.4751 10.2763 59.5313 10.5039 59.5313 11.3634C59.5318 12.2204 59.3012 12.7661 59.3012 12.7661ZM48.3615 17.8453C48.3615 17.8453 48.4196 20.8861 52.9838 19.1095C54.2348 18.6215 56.1256 18.0956 57.1271 18.3246C57.4836 18.405 56.3338 17.3593 53.101 18.6331C49.7476 19.954 48.3615 17.8453 48.3615 17.8453Z" fill="#ED1C24"/>
<path d="M55.5869 15.1466C55.5869 15.1466 56.2233 13.8824 57.3794 13.7107C58.5349 13.5374 59.6043 14.0095 60.6165 13.6938C61.2718 13.4883 61.7706 13.1924 61.7706 13.1924C61.7706 13.1924 61.3251 14.2847 60.6742 14.8001C59.8072 15.4902 58.9946 15.3882 57.3217 14.9734C56.3967 14.7429 55.5869 15.1466 55.5869 15.1466Z" fill="#ED1C24"/>
</svg>
