<svg width="124" height="50" viewBox="0 0 124 50" fill="none" xmlns="http://www.w3.org/2000/svg">
<g clip-path="url(#clip0)">
<path fill-rule="evenodd" clip-rule="evenodd" d="M68.5508 20.7588C68.6023 20.543 68.6347 20.3814 68.6793 20.2234C69.8049 16.2337 71.8972 12.8309 74.8663 9.97072C78.7209 6.25756 83.3239 4.01813 88.5361 2.98967C91.3492 2.43459 94.1891 2.329 97.0276 2.63896C102.713 3.2598 107.809 5.33896 112.156 9.12921C115.571 12.1075 117.972 15.7623 119.239 20.1471C119.277 20.2771 119.308 20.4091 119.338 20.5411C119.348 20.589 119.347 20.6396 119.357 20.7524C119.177 20.7734 119.002 20.8081 118.827 20.8114C118.305 20.8215 117.783 20.8052 117.262 20.8272C116.958 20.84 116.771 20.7354 116.605 20.4731C115.799 19.1982 114.873 18.016 113.837 16.9218C111.507 14.4635 108.788 12.5614 105.715 11.1672C103.042 9.9539 100.244 9.1942 97.3289 8.854C95.2802 8.61498 93.2287 8.57733 91.1827 8.78358C86.2473 9.28119 81.7105 10.8939 77.6584 13.8132C75.1397 15.6277 73.0193 17.8257 71.3459 20.452C71.1844 20.7055 71.0096 20.8353 70.6973 20.8207C70.1767 20.7965 69.6541 20.8173 69.1324 20.8104C68.9535 20.808 68.775 20.7796 68.5508 20.7588Z" fill="#04714C"/>
<path fill-rule="evenodd" clip-rule="evenodd" d="M11.2541 36.8533C11.6105 36.0858 11.9181 35.4314 12.2189 34.7738C13.3443 32.3135 14.4674 29.8522 15.5915 27.3913C15.9428 26.6223 16.3068 25.859 16.64 25.0822C16.7734 24.7713 16.9577 24.655 17.294 24.6641C18.0992 24.6858 18.9054 24.6711 19.6722 24.6711C19.723 24.7195 19.7362 24.7302 19.747 24.7431C19.7575 24.7555 19.771 24.7691 19.7737 24.7839C19.7858 24.8499 19.8034 24.9165 19.8033 24.983C19.798 31.3667 19.7912 37.7503 19.783 44.1339C19.7829 44.182 19.7603 44.2301 19.7492 44.2744C19.3856 44.3752 17.4539 44.3965 16.8415 44.2986C16.8415 40.0827 16.8415 35.8569 16.8415 31.6192C16.5682 31.6095 16.5721 31.8043 16.5168 31.9213C15.2261 34.6589 13.9429 37.4001 12.6523 40.1377C12.2892 40.9079 12.4343 40.7774 11.6518 40.7708C11.2816 40.7676 10.9109 40.74 10.5415 40.7535C10.2446 40.7643 10.0804 40.6359 9.95636 40.3758C8.93023 38.2239 7.89653 36.0756 6.86388 33.9269C6.51229 33.1953 6.15808 32.4649 5.8023 31.7354C5.7624 31.6536 5.70423 31.5808 5.5659 31.5277C5.5659 35.7822 5.5659 40.0367 5.5659 44.2714C5.23113 44.3963 3.11908 44.4084 2.59766 44.3001C2.59766 37.7834 2.59766 31.2595 2.59766 24.708C2.75734 24.6942 2.88738 24.6736 3.01747 24.6732C3.72428 24.6711 4.43135 24.6848 5.13781 24.6698C5.42551 24.6637 5.59514 24.7474 5.72377 25.0252C7.47853 28.8155 9.2445 32.6004 11.0087 36.3863C11.0638 36.5044 11.1298 36.6174 11.2541 36.8533Z" fill="#747579"/>
<path fill-rule="evenodd" clip-rule="evenodd" d="M52.1935 44.3213C51.2979 44.3213 50.4299 44.3213 49.4931 44.3213C49.471 43.9119 49.4488 43.5038 49.423 43.0269C49.2762 43.14 49.1675 43.2069 49.0789 43.2945C48.3654 44.0009 47.4997 44.3465 46.5138 44.465C45.4321 44.5952 44.3986 44.4765 43.4269 43.9739C42.3564 43.4202 41.6361 42.5708 41.3191 41.385C41.0384 40.3354 40.867 39.2681 40.8628 38.1842C40.8588 37.1369 40.8761 36.0856 40.9632 35.0428C41.0799 33.6473 41.5211 32.3676 42.5217 31.3325C43.0183 30.8187 43.5995 30.4778 44.2976 30.3326C45.2481 30.135 46.2003 30.1221 47.1526 30.3055C47.7932 30.4288 48.3638 30.7037 48.8532 31.1446C49.0111 31.2869 49.1822 31.4145 49.4455 31.6288C49.4603 30.7659 49.4527 30.0148 49.454 29.2641C49.4553 28.5191 49.4543 27.7741 49.4543 27.0291C49.4543 26.2713 49.4543 25.5135 49.4543 24.709C50.391 24.6384 51.2712 24.6783 52.1391 24.6777C52.2499 25.0898 52.2951 43.2772 52.1935 44.3213ZM49.4847 36.8684C49.4308 36.3613 49.4158 35.7641 49.297 35.1885C48.9556 33.5353 48.4523 32.9191 47.0071 32.7112C46.7926 32.6803 46.5705 32.6787 46.3536 32.692C45.0043 32.7743 44.3928 33.3669 44.0504 34.3865C43.9647 34.6417 43.8877 34.9029 43.8396 35.1674C43.5678 36.6628 43.5739 38.161 43.8633 39.6516C43.9364 40.0284 44.0776 40.3988 44.2345 40.7509C44.5412 41.4393 45.1136 41.7945 45.8326 41.9278C46.0303 41.9644 46.2329 41.9927 46.4332 41.9924C47.8523 41.9904 48.7202 41.6232 49.1466 40.1132C49.439 39.077 49.482 38.0169 49.4847 36.8684Z" fill="#747579"/>
<path fill-rule="evenodd" clip-rule="evenodd" d="M92.7377 44.3452C91.7889 44.3452 90.9214 44.3452 90.0154 44.3452C89.9965 43.9847 89.9786 43.643 89.9555 43.2016C89.7466 43.3595 89.6184 43.4546 89.4919 43.5522C88.7931 44.0913 88.0156 44.4027 87.1266 44.4594C86.3334 44.51 85.5463 44.516 84.7657 44.3593C82.8006 43.9649 81.5737 42.4998 81.4868 40.4735C81.4356 39.2805 81.7496 38.2289 82.6254 37.3879C83.2288 36.8085 83.9607 36.4751 84.7758 36.3471C85.2385 36.2745 85.7113 36.2501 86.1803 36.2391C87.3075 36.2126 88.4351 36.2076 89.5626 36.1917C89.6769 36.1902 89.791 36.1736 89.9547 36.1599C90.0178 35.298 90.0692 34.4628 89.6374 33.684C89.3765 33.2134 88.9568 32.9356 88.4551 32.7943C87.4448 32.5096 86.4269 32.5136 85.4123 32.7767C84.9433 32.8983 84.5613 33.1728 84.2223 33.5129C84.1059 33.6297 83.988 33.7449 83.8283 33.9029C83.2198 33.3286 82.6368 32.7784 82.0301 32.2059C82.5845 31.5449 83.2029 31.0274 83.9616 30.7271C84.4887 30.5184 85.0482 30.3452 85.6079 30.2756C87.0538 30.0957 88.4978 30.1209 89.8957 30.6148C91.5298 31.1921 92.4716 32.3371 92.6571 34.082C92.7017 34.5016 92.7318 34.9249 92.7328 35.3466C92.74 38.1576 92.7373 40.9686 92.7378 43.7796C92.7378 43.9459 92.7377 44.1122 92.7377 44.3452ZM90.0382 38.208C89.867 38.185 89.7863 38.1648 89.7055 38.1647C88.6298 38.1637 87.5541 38.1578 86.4786 38.172C86.1956 38.1757 85.9077 38.2195 85.6319 38.2864C84.4985 38.5618 84.077 39.4432 84.2114 40.5108C84.3119 41.3088 84.789 41.7786 85.5279 42.009C85.6717 42.0538 85.8229 42.1 85.9709 42.101C86.6417 42.1057 87.3182 42.1476 87.982 42.0764C89.0163 41.9656 89.7712 41.2068 89.9132 40.166C89.9994 39.535 89.9977 38.8919 90.0382 38.208Z" fill="#07724E"/>
<path fill-rule="evenodd" clip-rule="evenodd" d="M121.516 38.1747C118.555 38.1747 115.616 38.1747 112.621 38.1747C112.565 39.0172 112.723 39.7629 113.101 40.4582C113.628 41.4276 114.478 41.9192 115.547 42.0364C116.912 42.1859 118.164 41.9377 119.184 40.9287C119.267 40.8468 119.366 40.7807 119.512 40.6628C120.082 41.2051 120.65 41.7447 121.242 42.3074C121.122 42.4461 121.045 42.5525 120.951 42.6411C119.669 43.852 118.164 44.5034 116.39 44.4892C115.463 44.4819 114.541 44.461 113.65 44.1494C111.621 43.4389 110.435 41.9934 110.038 39.8943C109.91 39.2164 109.847 38.5193 109.826 37.8288C109.789 36.592 109.827 35.355 110.238 34.1666C110.873 32.3326 112.005 30.9436 113.916 30.4307C115.756 29.9369 117.566 30.0584 119.156 31.271C120.423 32.2378 121.152 33.5637 121.397 35.1214C121.543 36.0516 121.525 37.008 121.577 37.9529C121.58 38 121.552 38.0489 121.516 38.1747ZM118.808 36.1729C118.737 34.8485 118.454 33.6812 117.295 32.9754C116.211 32.3157 115.061 32.3227 113.997 33.0111C112.882 33.7326 112.614 34.8876 112.587 36.1729C114.662 36.1729 116.689 36.1729 118.808 36.1729Z" fill="#07724E"/>
<path fill-rule="evenodd" clip-rule="evenodd" d="M36.6861 38.1754C33.69 38.1754 30.736 38.1754 27.761 38.1754C27.7428 38.3448 27.703 38.4635 27.7231 38.5707C27.8102 39.0354 27.8634 39.5154 28.0225 39.9555C28.4896 41.2473 29.4394 41.9415 30.7982 42.0352C31.2655 42.0674 31.7414 42.0478 32.2079 41.999C32.989 41.9173 33.6365 41.5263 34.2205 41.0185C34.3454 40.9098 34.4701 40.8009 34.6346 40.6575C35.23 41.2165 35.8014 41.7529 36.4239 42.3374C36.0886 42.6274 35.807 42.8869 35.509 43.1256C34.4636 43.9632 33.2773 44.4205 31.9343 44.46C31.076 44.4852 30.2176 44.5006 29.3759 44.3047C27.2067 43.7998 25.8038 42.4556 25.2641 40.2912C24.7741 38.3261 24.7516 36.3302 25.3159 34.371C25.8185 32.6262 26.8321 31.242 28.5719 30.6042C30.7165 29.818 32.7917 29.9825 34.5978 31.5183C35.7053 32.4601 36.3231 33.7282 36.5471 35.1546C36.6828 36.0191 36.6758 36.9065 36.728 37.7839C36.7338 37.8817 36.7079 37.9815 36.6861 38.1754ZM33.8879 36.1775C33.9553 35.6024 33.8755 35.1518 33.6149 34.4335C32.8155 32.2294 29.9412 31.9698 28.6255 33.4348C27.9687 34.1662 27.7532 35.0547 27.7254 36.0079C27.7238 36.0653 27.7784 36.1244 27.8043 36.1775C29.8357 36.1775 31.848 36.1775 33.8879 36.1775Z" fill="#747578"/>
<path fill-rule="evenodd" clip-rule="evenodd" d="M77.4086 31.6805C76.8017 32.2983 76.2401 32.87 75.6611 33.4594C75.6281 33.4443 75.5636 33.4241 75.5091 33.3884C74.2558 32.5682 72.87 32.4391 71.4335 32.6162C71.1724 32.6484 70.9084 32.7472 70.6709 32.8662C69.9127 33.2462 69.589 34.0899 69.8671 34.8919C70.0115 35.3085 70.3063 35.5853 70.7141 35.6975C71.1335 35.813 71.5679 35.8827 71.9999 35.9406C73.0486 36.0812 74.1132 36.1369 75.147 36.3475C77.0379 36.7327 78.0814 38.1886 78.0207 40.1389C77.9621 42.0194 77.0098 43.2381 75.337 43.9496C74.2297 44.4206 73.057 44.5217 71.8735 44.4948C70.6414 44.4669 69.4221 44.3338 68.2782 43.8169C67.5962 43.5087 66.9957 43.0846 66.4814 42.5444C66.6596 42.2065 67.7017 41.1186 68.2236 40.7213C68.2634 40.7366 68.3191 40.7425 68.3527 40.7731C69.6063 41.9109 71.123 42.1547 72.7321 42.0736C73.291 42.0454 73.836 41.9313 74.3352 41.6653C74.995 41.3136 75.3141 40.7594 75.2606 40.0019C75.2041 39.2004 74.7887 38.7065 73.9954 38.5892C73.314 38.4885 72.6236 38.4481 71.9366 38.3886C71.0815 38.3145 70.2249 38.2509 69.4077 37.9573C67.9159 37.4213 67.1647 36.3226 67.088 34.7327C66.9746 32.3803 68.3343 31.0615 69.9996 30.5573C72.2797 29.8668 74.5224 30.0648 76.6551 31.18C76.9208 31.3187 77.158 31.5121 77.4086 31.6805Z" fill="#08734E"/>
<path fill-rule="evenodd" clip-rule="evenodd" d="M108.039 30.3622C106.352 35.0483 104.664 39.6757 102.968 44.3546C102.267 44.3546 101.582 44.3636 100.897 44.3447C100.796 44.3419 100.675 44.2243 100.606 44.1283C100.53 44.0222 100.503 43.8806 100.456 43.7534C98.9005 39.4622 97.3448 35.171 95.7901 30.8795C95.7397 30.7403 95.7008 30.5969 95.6338 30.3831C95.8535 30.3562 96.027 30.3192 96.2011 30.3165C96.8569 30.3063 97.5136 30.3242 98.1685 30.2968C98.4867 30.2834 98.61 30.4224 98.7015 30.7011C99.3711 32.7412 100.052 34.7776 100.731 36.8146C101.03 37.7128 101.332 38.61 101.636 39.5066C101.677 39.6276 101.736 39.7423 101.837 39.9756C101.939 39.7316 102.008 39.5916 102.057 39.4447C103.011 36.5725 103.962 33.6995 104.913 30.8266C105.086 30.3066 105.085 30.3036 105.603 30.3044C106.259 30.3054 106.915 30.3094 107.571 30.3167C107.7 30.3182 107.829 30.3411 108.039 30.3622Z" fill="#07734E"/>
<path fill-rule="evenodd" clip-rule="evenodd" d="M61.0579 44.3433C60.1492 44.3433 59.265 44.3433 58.3884 44.3433C58.285 43.9545 58.2444 31.3161 58.3365 30.438C58.6634 30.3173 60.1916 30.2801 61.0236 30.3726C61.1339 30.7082 61.1735 43.5839 61.0579 44.3433Z" fill="#747679"/>
<path fill-rule="evenodd" clip-rule="evenodd" d="M57.9074 25.7447C57.9128 24.7553 58.7712 23.9408 59.7844 23.9636C60.7165 23.9845 61.5151 24.8357 61.5074 25.7999C61.4995 26.771 60.6587 27.6313 59.7002 27.6116C58.5187 27.5873 57.8361 26.5471 57.9074 25.7447Z" fill="#75767A"/>
</g>
<defs>
<clipPath id="clip0">
<rect width="124" height="50" fill="white"/>
</clipPath>
</defs>
</svg>
