<svg width="50" height="50" viewBox="0 0 50 50" fill="none" xmlns="http://www.w3.org/2000/svg">
<path fill-rule="evenodd" clip-rule="evenodd" d="M2.22656 42.0873C2.22656 28.7249 2.22656 15.3624 2.22656 2C16.6909 2 31.1552 2 45.6194 2C45.5724 2.07507 45.5315 2.1547 45.4776 2.22448C39.9515 9.37805 34.4244 16.531 28.8974 23.684C28.6431 24.0132 28.3895 24.343 28.0986 24.7205C28.9168 24.7205 29.6735 24.7123 30.4298 24.7256C30.6513 24.7295 30.7885 24.6652 30.927 24.485C35.6489 18.342 40.3769 12.2037 45.1057 6.06601C46.1378 4.72636 47.1765 3.39176 48.2121 2.05481C48.217 2.16468 48.2261 2.27448 48.2261 2.38435C48.2267 17.4762 48.2267 32.568 48.2267 47.6598C48.2267 47.7657 48.2267 47.8716 48.2267 48.0001C48.0664 48.0001 47.9479 48.0001 47.8294 48.0001C32.7476 48.0001 17.6658 48.0001 2.58392 47.9991C2.4648 47.9991 2.34568 47.9848 2.22656 47.9772C2.22656 46.4546 2.22656 44.932 2.22656 43.4095C2.89729 43.4095 3.56796 43.4095 4.21711 43.4095C4.48744 43.001 4.72592 42.5943 5.00864 42.221C6.48892 40.2662 7.98327 38.322 9.46296 36.3667C9.58941 36.1997 9.71796 36.1537 9.91263 36.1542C11.996 36.1596 14.0794 36.1576 16.1628 36.1576C16.26 36.1576 16.3571 36.1576 16.4612 36.1576C16.7216 37.0554 16.9773 37.9273 17.2229 38.8019C17.2431 38.8737 17.2209 38.9856 17.1744 39.0438C16.0578 40.4427 15.0695 41.9486 13.7455 43.1756C13.678 43.2381 13.6197 43.3105 13.5282 43.4097C14.5715 43.4097 15.5622 43.4153 16.5526 43.4003C16.6439 43.399 16.7747 43.2853 16.8168 43.192C17.1671 42.4163 17.7084 41.7765 18.2873 41.0505C18.4972 41.877 18.6894 42.6341 18.8864 43.4097C19.8287 43.4097 20.7896 43.3993 21.7499 43.4166C22.0042 43.4212 22.1417 43.3555 22.2458 43.1163C22.5684 42.3744 23.1155 41.7942 23.6931 41.1467C23.8871 41.9375 24.0651 42.6632 24.2424 43.3855C25.5931 43.3855 26.9556 43.3855 28.3181 43.3855C28.0588 42.8564 27.7565 42.3655 27.5698 41.8339C27.1132 40.534 26.706 39.2165 26.2925 37.9018C26.2577 37.7913 26.2877 37.6242 26.3518 37.525C26.607 37.1306 26.8963 36.7583 27.1549 36.366C27.262 36.2034 27.381 36.1524 27.5723 36.153C29.6957 36.1602 31.8192 36.1575 33.9426 36.1575C34.0213 36.1575 34.1 36.1575 34.1934 36.1575C34.4072 36.8485 34.6213 37.5239 34.825 38.2024C35.2295 39.5509 35.6409 40.8978 36.0215 42.253C36.1249 42.6209 36.1284 43.0167 36.1778 43.399C37.6039 43.399 39.0122 43.399 40.4209 43.399C40.2704 43.0998 40.1131 42.8143 39.9813 42.5176C39.8436 42.2076 39.7188 41.8908 39.6083 41.5701C37.8781 36.5487 36.2893 31.485 35.0016 26.3057C33.9629 26.3057 32.8559 26.3057 31.8117 26.3057C31.4032 26.9627 31.0602 27.6121 30.6268 28.1943C28.9774 30.41 27.2989 32.6042 25.6308 34.8059C25.5566 34.9038 25.4765 34.9973 25.3762 35.1213C25.2048 34.5381 25.0369 34.0048 24.8983 33.464C24.8678 33.3449 24.8999 33.1664 24.9743 33.0703C25.9182 31.8515 26.8653 30.635 27.8317 29.4339C28.5591 28.5298 29.3152 27.6486 30.0588 26.7574C30.1898 26.6005 30.3222 26.4448 30.4352 26.3107C29.3594 26.3107 28.2443 26.3107 27.1242 26.3107C27.0704 26.8316 26.8618 27.2631 26.5448 27.6544C26.0724 28.2378 25.6171 28.8351 25.1517 29.4242C24.7133 29.9793 24.2712 30.5315 23.7776 31.1517C23.4201 29.478 22.7581 27.9572 22.5599 26.3068C21.2239 26.3068 19.8789 26.3068 18.5149 26.3068C18.6742 26.6612 18.8544 26.9856 18.97 27.3317C19.6885 29.4815 20.3935 31.6356 21.0965 33.7905C21.1192 33.8601 21.0975 33.9723 21.0527 34.0315C20.7032 34.4928 20.3429 34.946 19.9578 35.4375C19.9082 35.2917 19.8677 35.1817 19.8332 35.0699C19.3502 33.5048 18.8624 31.9411 18.3878 30.3734C18.1072 29.4468 17.8268 28.5191 17.5884 27.5812C17.4838 27.1699 17.4845 26.7319 17.4358 26.2915C16.2932 26.2915 15.1721 26.2872 14.0512 26.3009C13.9709 26.3019 13.8672 26.4212 13.8167 26.5097C13.4006 27.2372 13.0729 28.0297 12.5728 28.6925C9.62463 32.5992 6.64026 36.4786 3.65955 40.3608C3.2044 40.9538 2.70533 41.5127 2.22656 42.0873Z" fill="#00008E"/>
<path fill-rule="evenodd" clip-rule="evenodd" d="M2.22662 42.0874C2.70539 41.5128 3.20446 40.9538 3.65955 40.361C6.64019 36.4788 9.62463 32.5994 12.5728 28.6926C13.0729 28.0298 13.4006 27.2374 13.8167 26.5099C13.8672 26.4213 13.9709 26.302 14.0512 26.301C15.1721 26.2873 16.2932 26.2917 17.4358 26.2917C17.4846 26.7321 17.4838 27.1701 17.5884 27.5814C17.8268 28.5193 18.1072 29.447 18.3878 30.3736C18.8624 31.9413 19.3502 33.505 19.8332 35.0701C19.8677 35.1819 19.9082 35.2919 19.9578 35.4377C20.3429 34.9461 20.7032 34.493 21.0527 34.0316C21.0975 33.9725 21.1192 33.8603 21.0965 33.7907C20.3935 31.6358 19.6885 29.4816 18.97 27.3319C18.8544 26.9858 18.6742 26.6613 18.5149 26.307C19.8789 26.307 21.2238 26.307 22.5599 26.307C22.7581 27.9573 23.4201 29.4782 23.7776 31.1519C24.2712 30.5317 24.7133 29.9794 25.1517 29.4244C25.6171 28.8352 26.0723 28.238 26.5448 27.6546C26.8618 27.2632 27.0704 26.8318 27.1242 26.3109C28.2443 26.3109 29.3593 26.3109 30.4352 26.3109C30.3222 26.4449 30.1898 26.6006 30.0588 26.7576C29.3152 27.6488 28.5592 28.5299 27.8317 29.4341C26.8653 30.6351 25.9181 31.8517 24.9743 33.0705C24.8999 33.1666 24.8678 33.345 24.8983 33.4642C25.0368 34.005 25.2048 34.5383 25.3762 35.1215C25.4766 34.9975 25.5566 34.904 25.6308 34.8061C27.2989 32.6044 28.9774 30.4102 30.6268 28.1944C31.0602 27.6122 31.4032 26.9629 31.8117 26.3059C32.8559 26.3059 33.9629 26.3059 35.0016 26.3059C36.2894 31.4852 37.8781 36.5488 39.6083 41.5703C39.7188 41.891 39.8436 42.2078 39.9813 42.5178C40.1131 42.8146 40.2705 43.1 40.4209 43.3992C39.0122 43.3992 37.604 43.3992 36.1778 43.3992C36.1285 43.0169 36.1249 42.6211 36.0215 42.2532C35.6409 40.8979 35.2295 39.5511 34.8249 38.2026C34.6213 37.524 34.4072 36.8487 34.1934 36.1577C34.1 36.1577 34.0213 36.1577 33.9426 36.1577C31.8192 36.1577 29.6957 36.1604 27.5723 36.1532C27.3809 36.1526 27.262 36.2036 27.1549 36.3661C26.8963 36.7585 26.607 37.1308 26.3518 37.5252C26.2877 37.6244 26.2577 37.7914 26.2925 37.902C26.706 39.2167 27.1132 40.5342 27.5698 41.8341C27.7565 42.3657 28.0588 42.8566 28.3181 43.3857C26.9556 43.3857 25.5931 43.3857 24.2424 43.3857C24.0651 42.6633 23.8871 41.9377 23.6931 41.1469C23.1155 41.7943 22.5684 42.3746 22.2458 43.1165C22.1417 43.3557 22.0042 43.4213 21.7499 43.4168C20.7896 43.3995 19.8287 43.4099 18.8864 43.4099C18.6895 42.6343 18.4972 41.8772 18.2873 41.0507C17.7084 41.7767 17.1671 42.4165 16.8168 43.1922C16.7747 43.2855 16.6439 43.3991 16.5526 43.4005C15.5622 43.4155 14.5715 43.4099 13.5282 43.4099C13.6197 43.3108 13.678 43.2383 13.7455 43.1758C15.0695 41.9488 16.0578 40.4429 17.1744 39.0439C17.2208 38.9857 17.2431 38.8739 17.2229 38.8021C16.9773 37.9274 16.7216 37.0556 16.4612 36.1578C16.3571 36.1578 16.26 36.1578 16.1628 36.1578C14.0794 36.1578 11.996 36.1598 9.91263 36.1543C9.71796 36.1539 9.58947 36.1998 9.46296 36.3669C7.98321 38.3222 6.48892 40.2664 5.00863 42.2212C4.72592 42.5945 4.48744 43.0012 4.21711 43.4097C3.56802 43.4097 2.89729 43.4097 2.22656 43.4097C2.22662 42.9689 2.22662 42.5281 2.22662 42.0874ZM28.9506 34.1438C30.4439 34.1438 31.9394 34.1438 33.4434 34.1438C33.0784 32.6015 32.3026 31.1798 32.3171 29.6623C31.2195 31.1234 30.0879 32.6299 28.9506 34.1438ZM14.6624 29.662C13.5599 31.1297 12.4268 32.6383 11.2954 34.1444C12.7952 34.1444 14.293 34.1444 15.7905 34.1444C15.426 32.6134 14.6566 31.197 14.6624 29.662ZM21.9588 36.2739C21.5661 36.7835 21.1873 37.2709 20.816 37.7639C20.7824 37.8085 20.7747 37.8963 20.7922 37.9523C21.0311 38.713 21.2765 39.4716 21.5359 40.279C21.9546 39.7029 22.3481 39.1647 22.7361 38.6225C22.7646 38.5826 22.7756 38.5074 22.759 38.4614C22.5002 37.7433 22.2355 37.0272 21.9588 36.2739Z" fill="#FDFDFD"/>
<path fill-rule="evenodd" clip-rule="evenodd" d="M48.2111 2.05481C47.1755 3.39176 46.1368 4.72636 45.1047 6.06601C40.3759 12.2037 35.6479 18.342 30.926 24.485C30.7874 24.6652 30.6503 24.7295 30.4288 24.7256C29.6725 24.7123 28.9158 24.7205 28.0977 24.7205C28.3885 24.343 28.6421 24.0131 28.8965 23.684C34.4234 16.531 39.9504 9.37811 45.4766 2.22448C45.5305 2.1547 45.5714 2.07507 45.6184 2C46.4799 2 47.3413 2 48.2028 2C48.2056 2.01827 48.2083 2.03654 48.2111 2.05481Z" fill="#FC1722"/>
<path fill-rule="evenodd" clip-rule="evenodd" d="M48.2118 2.05462C48.2089 2.03634 48.2062 2.01807 48.2034 1.9998C48.3028 2.00269 48.436 1.96248 48.3851 2.15048C48.375 2.1878 48.3837 2.23017 48.3837 2.27026C48.3837 17.5659 48.3837 32.8616 48.3837 48.1573C33.088 48.1573 17.7923 48.1574 2.49658 48.1547C2.38034 48.1547 2.17756 48.2452 2.22613 47.977C2.34525 47.9847 2.46437 47.999 2.58349 47.999C17.6653 48 32.7471 47.9999 47.829 47.9999C47.9475 47.9999 48.0661 47.9999 48.2263 47.9999C48.2263 47.8714 48.2263 47.7656 48.2263 47.6597C48.2263 32.5679 48.2264 17.476 48.2257 2.38421C48.2257 2.27428 48.2166 2.16448 48.2118 2.05462Z" fill="#D1D1EA"/>
<path fill-rule="evenodd" clip-rule="evenodd" d="M28.9492 34.1437C30.0865 32.6297 31.2181 31.1232 32.3157 29.6621C32.3012 31.1797 33.077 32.6013 33.442 34.1437C31.938 34.1437 30.4425 34.1437 28.9492 34.1437Z" fill="#02028F"/>
<path fill-rule="evenodd" clip-rule="evenodd" d="M14.6638 29.6619C14.658 31.1969 15.4274 32.6132 15.7919 34.1443C14.2944 34.1443 12.7966 34.1443 11.2969 34.1443C12.4282 32.6381 13.5614 31.1296 14.6638 29.6619Z" fill="#02028F"/>
<path fill-rule="evenodd" clip-rule="evenodd" d="M21.9608 36.2737C22.2376 37.0269 22.5022 37.743 22.761 38.4612C22.7776 38.5072 22.7667 38.5824 22.7381 38.6223C22.3501 39.1645 21.9567 39.7027 21.5379 40.2787C21.2786 39.4714 21.0332 38.7128 20.7943 37.9521C20.7767 37.896 20.7844 37.8083 20.8181 37.7637C21.1893 37.2707 21.5681 36.7833 21.9608 36.2737Z" fill="#040490"/>
</svg>
