<svg width="50" height="50" viewBox="0 0 50 50" fill="none" xmlns="http://www.w3.org/2000/svg">
<path d="M23.1885 34.0039H26.0035V48H23.1885V34.0039Z" fill="#D02149"/>
<path d="M18.0825 32.8979C17.6 32.6341 16.1644 31.9199 14.4976 33.3724L5.53125 40.9397L7.8028 42.7434L10.5845 40.2735C11.8898 41.5207 12.7041 41.9094 13.0505 42.0938C13.3922 42.2861 14.1585 42.7622 15.9126 43.1897L15.3316 46.8635L18.0755 47.8043L19.6154 36.1732C19.9402 33.9862 18.5646 33.1617 18.0825 32.8979ZM14.2596 39.8842C13.5133 39.4901 12.6911 38.8674 12.4839 38.5858L16.1542 35.3109C16.3115 35.1726 16.5667 35.0935 16.808 35.227C17.0492 35.3602 17.121 35.6157 17.0899 35.8226L16.3096 40.6791C15.9609 40.6568 14.9931 40.3002 14.2596 39.8842Z" fill="#D02149"/>
<path d="M29.5296 36.1729L31.0695 47.804L33.8133 46.8632L33.2323 43.1894C34.9864 42.7615 35.7527 42.2858 36.0944 42.0935C36.4408 41.9094 37.2548 41.5204 38.5605 40.2732L41.3422 42.7431L43.6137 40.9394L34.6473 33.3724C32.9806 31.9199 31.5446 32.6341 31.0625 32.8979C30.5803 33.1617 29.2047 33.9862 29.5296 36.1729ZM32.8357 40.6794L32.0554 35.8229C32.0239 35.616 32.0961 35.3605 32.3373 35.2273C32.5785 35.0938 32.8338 35.173 32.9911 35.3112L36.6614 38.5862C36.4542 38.8678 35.632 39.4904 34.8857 39.8845C34.1515 40.3002 33.1837 40.6569 32.8357 40.6794Z" fill="#D02149"/>
<path d="M20.1369 20.6461C19.4414 20.4474 18.9186 20.4077 18.5477 20.3283C18.1768 20.2488 18.7327 20.0101 18.9183 19.9837C19.1039 19.9573 20.5341 19.507 21.0373 19.1628C21.5404 18.8185 23.2357 17.865 23.4741 17.4941C23.7125 17.1232 24.5331 17.3352 24.6393 17.3352C24.6393 17.3352 24.692 17.4674 24.4804 17.6794C24.2687 17.8914 24.2687 18.1295 24.1892 18.3946C24.1098 18.6596 23.9509 18.8716 23.6594 19.0569C23.3679 19.2422 22.3614 19.8512 22.4939 20.6988C22.6264 21.5465 23.4477 22.5531 23.9509 22.8178C24.454 23.0826 26.3769 24.5745 26.7055 24.8838C27.1559 25.3074 27.447 26.102 27.7385 26.976C28.0299 27.8501 28.957 28.2741 29.5927 28.2741C30.2284 28.2741 31.2346 28.2474 31.6319 28.8567C31.6319 28.8567 31.5264 28.9625 31.2613 28.9361C30.9963 28.9097 29.9897 29.2543 29.7249 29.3865C29.4602 29.5187 28.48 29.5718 27.659 29.4923C26.8381 29.4129 26.2555 29.4126 25.9376 29.7571C25.6198 30.1016 25.3283 30.3397 24.7721 30.3928C24.2159 30.4458 20.9845 30.2605 20.3225 29.8896C19.5597 29.4621 21.0112 29.4393 21.2496 29.3598C21.488 29.2803 23.1566 29.0156 23.6333 28.7772C24.0192 28.5846 25.09 27.2675 25.5934 27.1086C26.0965 26.9497 26.0438 26.1284 25.567 25.8636C25.0903 25.5989 24.8783 26.0489 24.5077 25.5458C24.1371 25.0427 24.481 24.8307 24.1368 24.3275C23.7926 23.8244 22.6007 22.9771 22.0709 22.2352C21.541 21.4934 20.6931 20.805 20.1369 20.6461Z" fill="#D02149"/>
<path d="M24.6123 2C12.6761 2 3 11.6761 3 23.612C3 28.5833 4.68261 33.1588 7.50338 36.8101L8.19689 36.2828C6.59024 34.208 5.39106 31.8188 4.71312 29.2278C4.71725 28.9491 5.31637 29.0714 5.66217 29.148C6.01973 29.2275 8.48294 30.0221 9.43644 29.8632C10.3899 29.7043 11.701 29.2672 12.6545 28.8302C13.608 28.3932 14.8396 28.3137 15.2369 28.3535C15.6342 28.3932 15.0382 27.9164 14.6807 27.7575C14.3231 27.5986 13.3696 27.7575 12.3764 27.7575C11.3832 27.7575 14.2039 24.897 14.4423 24.7381C14.6807 24.5792 14.9191 24.4203 14.6012 24.4203C14.2834 24.4203 12.4161 25.4532 11.7805 25.6519C11.1448 25.8505 9.794 25.8108 9.07888 25.8505C8.36375 25.8903 6.61567 27.0424 6.09919 27.2808C5.58271 27.5191 4.41054 27.8319 4.41054 27.8319C4.41054 27.8319 4.66894 24.3805 5.82109 22.7516C6.97323 21.1228 8.5624 19.4939 9.15834 19.772C9.75427 20.0501 9.15834 20.6063 9.43644 20.8844C9.71454 21.1625 10.1118 21.1228 10.1118 21.7584C10.1118 22.3941 10.2708 22.7119 9.43644 23.6257C8.60213 24.5395 8.32402 25.1751 9.11861 24.897C9.91319 24.6189 11.8202 24.023 12.3367 23.8641C12.8531 23.7052 13.9258 22.553 14.5218 22.2352C15.1177 21.9173 17.8193 19.176 18.3755 18.8979C18.9317 18.6198 19.9249 17.865 20.203 17.4279C20.4811 16.9909 21.1565 16.0772 21.7525 15.7593C22.3484 15.4415 24.2554 14.2893 24.613 13.7331C24.9705 13.1769 25.4473 12.2234 25.6857 12.2632C25.924 12.3029 26.6392 12.6604 26.957 13.018C27.2748 13.3756 27.1954 13.7729 27.394 14.0907C27.5927 14.4085 28.0297 14.8853 28.6256 15.0839C29.2216 15.2826 30.8505 16.5539 30.4929 16.7128C30.2002 16.8428 29.1024 16.0374 28.6256 15.9977C28.1489 15.958 27.831 15.9977 27.9502 16.2758C28.0694 16.5539 29.4599 17.7458 29.7778 18.1828C30.0956 18.6198 30.0956 19.6528 30.3737 20.4871C30.6518 21.3214 31.2875 21.4009 31.3669 22.7119C31.4464 24.023 32.5985 25.2546 33.0753 25.6519C33.552 26.0492 34.2274 26.6451 34.6247 26.6848C35.022 26.7246 34.9426 26.4465 35.5782 26.6848C36.2139 26.9232 36.0947 26.6848 35.8166 26.1684C35.5385 25.6519 36.0947 25.493 36.0947 25.493C37.4852 25.4135 38.0414 26.9232 38.0017 28.1945C37.962 29.4659 37.0879 29.148 36.6112 30.1413C36.1344 31.1345 36.6112 30.8564 36.8496 30.6578C37.0879 30.4591 38.7565 30.4988 39.5909 30.4194C40.4252 30.3399 41.1403 29.2672 41.4581 28.9891C41.776 28.711 42.0541 28.711 42.3322 28.8699C42.6103 29.0289 42.2924 29.9029 42.4514 30.0221C42.6103 30.1413 43.4843 29.5056 43.8022 29.2672C44.12 29.0289 44.557 29.0289 44.557 29.0289C44.5599 29.0225 44.5621 29.0165 44.5646 29.0101C43.8924 31.7053 42.6592 34.1882 40.9881 36.332L41.6822 36.8603C44.5268 33.2007 46.2253 28.6061 46.2253 23.612C46.2253 11.6761 36.5489 2 24.6123 2ZM41.9746 23.2681C41.4581 22.8708 40.1073 21.2817 39.4319 21.083C38.7565 20.8844 36.8098 19.5733 36.2139 19.2952C35.6179 19.0171 34.9028 18.0636 34.7836 17.5869C34.6644 17.1101 33.552 15.6004 32.9561 15.4812C32.3602 15.362 29.6586 14.1702 29.2613 14.0112C28.864 13.8523 27.4735 12.9783 26.8775 12.5015C26.2816 12.0248 25.6656 11.985 25.467 12.0645C25.2683 12.144 24.6524 13.2564 24.414 13.6139C24.1756 13.9715 21.8713 15.4018 21.5932 15.4812C21.3151 15.5607 20.5603 16.0374 20.163 16.395C19.6618 16.846 19.5273 17.4677 18.8917 17.865C18.2948 18.2381 15.5941 20.0898 15.1174 20.4076C14.6406 20.7255 13.8858 21.7982 13.3296 21.7584C12.7734 21.7187 10.8266 20.8844 10.3896 20.4076C9.9526 19.9309 9.07856 19.4939 9.07856 19.4939C8.17877 19.4939 5.31541 22.1843 4.10511 23.3625C4.60983 12.7812 13.5972 4.35197 24.6123 4.35197C35.358 4.35197 44.1699 12.3738 45.0639 22.5889C44.2595 23.955 42.4727 23.6511 41.9746 23.2681Z" fill="#D02149"/>
</svg>
