<svg width="71" height="50" viewBox="0 0 71 50" fill="none" xmlns="http://www.w3.org/2000/svg">
<path d="M44.6475 24.9256L42.3905 2.073L40.1016 25.3048C41.585 25.1447 43.1002 25.0175 44.6475 24.9256Z" fill="#FCCA12"/>
<path d="M50.1547 24.7576L50.1626 2.07296L42.3867 2.06982V2.07296L44.6437 24.9256C46.4461 24.8173 48.2885 24.7607 50.1547 24.7576Z" fill="#59C247"/>
<path d="M40.0986 25.3048L42.3875 2.07296V2.06982L22.0664 2.07296L22.0744 29.6594C26.8516 27.6002 33.0644 26.0686 40.0986 25.3048Z" fill="#176FC1"/>
<path d="M33.1279 35.6516C33.4071 35.7011 34.4119 35.9899 34.4119 36.691V47.9297H37.8094V35.2512H33.1279V35.6516Z" fill="#176FC1"/>
<path d="M6.44354 35.2512V35.6516C6.85028 35.7356 7.74353 35.9813 7.38463 36.7719L2.32031 47.9297H4.99203L6.57913 44.4519H12.1858L13.5735 47.9297H17.0906L12.0661 35.2512H6.44354ZM7.29691 42.8771L9.56986 37.8882L11.5637 42.8771H7.29691Z" fill="#176FC1"/>
<path d="M58.4826 35.2512V35.6516C58.8893 35.7356 59.7826 35.9813 59.4237 36.7719L54.3594 47.9297H57.0311L58.6182 44.4519H64.2248L65.6125 47.9297H69.1296L64.1052 35.2512H58.4826ZM59.336 42.8771L61.6089 37.8882L63.5948 42.8771H59.336Z" fill="#176FC1"/>
<path d="M49.4543 47.9297L54.8217 35.2512H52.2776L48.3458 44.5485L44.5974 35.2512H39.8281V35.6516C40.3784 35.756 41.0005 35.9899 41.2797 36.691L45.8096 47.9297H49.4543Z" fill="#176FC1"/>
<path d="M25.927 47.9297L31.2943 35.2512H28.7502L24.8184 44.5485L21.07 35.2512H16.3008V35.6516C16.8511 35.756 17.4731 35.9899 17.7523 36.691L22.2822 47.9297H25.927Z" fill="#176FC1"/>
</svg>
