<svg width="42" height="42" viewBox="0 0 42 42" fill="none" xmlns="http://www.w3.org/2000/svg">
<rect width="42" height="42" rx="21" fill="#FFF2F5"/>
<rect x="5.04004" y="5.04004" width="31.92" height="31.92" rx="15.96" fill="#FF838F"/>
<path d="M28.1639 24.5366L26.0495 22.4265C25.2943 21.6729 24.0105 21.9744 23.7084 22.954C23.4819 23.6323 22.7267 24.0091 22.047 23.8583C20.5367 23.4815 18.4977 21.5222 18.1202 19.9397C17.8936 19.2614 18.3467 18.5078 19.0264 18.2818C20.0081 17.9803 20.3102 16.6992 19.555 15.9456L17.4405 13.8356C16.8364 13.3081 15.9302 13.3081 15.4015 13.8356L13.9667 15.2674C12.5319 16.7746 14.1177 20.7686 17.6671 24.3105C21.2164 27.8524 25.2188 29.5103 26.7291 28.0031L28.1639 26.5713C28.6926 25.9684 28.6926 25.0641 28.1639 24.5366Z" fill="white"/>
</svg>
