<svg width="25" height="25" viewBox="0 0 25 25" fill="none" xmlns="http://www.w3.org/2000/svg">
<rect width="25" height="25" rx="12.5" fill="#ECEFF1"/>
<rect x="2" y="2" width="21.1111" height="21.1111" rx="10.5556" fill="#4DBDCD"/>
<path d="M6.27161 8.79107C8.05581 10.3021 11.1865 12.9604 12.1067 13.7893C12.2302 13.9012 12.3627 13.9581 12.5002 13.9581C12.6375 13.9581 12.7698 13.9017 12.893 13.7904C13.8139 12.9607 16.9447 10.3021 18.7289 8.79107C18.84 8.69718 18.8569 8.53214 18.767 8.41735C18.5591 8.15209 18.2491 8 17.9169 8H7.08358C6.75139 8 6.4414 8.15209 6.23353 8.41737C6.14359 8.53214 6.16053 8.69718 6.27161 8.79107Z" fill="#ECEFF1"/>
<path d="M18.8429 9.61021C18.7469 9.56552 18.634 9.58111 18.5541 9.64936C16.5754 11.3267 14.0501 13.4767 13.2556 14.1927C12.8097 14.5952 12.1908 14.5952 11.7438 14.1922C10.8969 13.4291 8.06111 11.0183 6.44591 9.64934C6.3655 9.58109 6.25231 9.56603 6.15709 9.61019C6.06137 9.65464 6 9.75039 6 9.85592V16.667C6 17.2644 6.48585 17.7503 7.08334 17.7503H17.9167C18.5142 17.7503 19 17.2644 19 16.667V9.85592C19 9.75039 18.9386 9.65439 18.8429 9.61021Z" fill="#ECEFF1"/>
</svg>
