<svg width="80" height="80" viewBox="0 0 80 80" fill="none" xmlns="http://www.w3.org/2000/svg">
<circle cx="40" cy="40" r="40" fill="white"/>
<path d="M58.0376 42.3451C62.9119 37.4585 62.9085 29.5461 58.0266 24.6642C53.348 19.9856 45.886 19.7876 40.9714 24.0694C40.6141 24.3808 40.0765 24.3808 39.7192 24.0694C34.8047 19.7875 27.3426 19.9855 22.6641 24.6642C17.7822 29.546 17.7788 37.4585 22.653 42.3451L39.7379 59.4305C40.0733 59.7659 40.6172 59.7659 40.9526 59.4305L58.0376 42.3451Z" fill="url(#paint0_linear)"/>
<path d="M58.0373 42.3444L40.9525 59.4301C40.6171 59.7655 40.0725 59.7655 39.7372 59.4301L37.6016 57.2936L53.921 40.9742C58.7952 36.0877 58.7913 28.1749 53.9095 23.2932C53.0334 22.4169 52.0587 21.6974 51.0219 21.1356C53.5856 21.515 56.0537 22.6912 58.0259 24.6634C62.9077 29.5462 62.9115 37.4579 58.0373 42.3444Z" fill="#FFAFAC"/>
<defs>
<linearGradient id="paint0_linear" x1="53.9662" y1="25.6692" x2="23.1494" y2="48.0814" gradientUnits="userSpaceOnUse">
<stop stop-color="#FFBFBD"/>
<stop offset="1" stop-color="#FFADAA"/>
</linearGradient>
</defs>
</svg>
