<svg width="80" height="80" viewBox="0 0 80 80" fill="none" xmlns="http://www.w3.org/2000/svg">
<circle cx="40" cy="40" r="40" fill="url(#paint0_linear)"/>
<path d="M60.0516 26.202L54.4012 20.5516C54.1139 20.2643 53.7414 20.0777 53.3393 20.0194C52.9373 19.9612 52.5272 20.0346 52.1702 20.2285C50.4342 21.168 48.4928 21.6635 46.5189 21.6708C44.545 21.6781 42.6 21.1971 40.8571 20.2704C40.5637 20.0937 40.2277 20.0003 39.8852 20.0003C39.5427 20.0003 39.2067 20.0937 38.9133 20.2704C37.1689 21.1921 35.2245 21.6704 33.2516 21.6631C31.2786 21.6557 29.3378 21.1631 27.6003 20.2285C27.2433 20.0346 26.8332 19.9612 26.4311 20.0194C26.029 20.0777 25.6566 20.2643 25.3693 20.5516L19.7188 26.202C19.5439 26.3769 19.4051 26.5846 19.3104 26.8131C19.2157 27.0417 19.167 27.2867 19.167 27.5341L19.167 48.2523C19.167 48.5347 19.2305 48.8136 19.3528 49.0682C19.475 49.3228 19.6529 49.5467 19.8733 49.7233L38.708 64.7911C39.0421 65.0586 39.4573 65.2043 39.8852 65.2043C40.3131 65.2043 40.7283 65.0586 41.0624 64.7911L59.8971 49.7233C60.1175 49.5467 60.2954 49.3228 60.4176 49.0682C60.5399 48.8136 60.6034 48.5347 60.6034 48.2523L60.6034 27.5341C60.6035 27.2867 60.5547 27.0417 60.46 26.8131C60.3653 26.5846 60.2266 26.3769 60.0516 26.202Z" fill="#F7FDFF"/>
<path d="M29.2907 45.9564C29.0702 45.7798 28.8922 45.556 28.7699 45.3013C28.6477 45.0467 28.5843 44.7678 28.5844 44.4854L28.5844 23.7671C28.5845 23.2676 28.783 22.7886 29.1362 22.4355L30.2757 21.296C29.3442 21.0492 28.4459 20.6908 27.6003 20.2285C27.2433 20.0346 26.8332 19.9612 26.4311 20.0194C26.029 20.0777 25.6566 20.2643 25.3693 20.5516L19.7188 26.202C19.5439 26.3769 19.4051 26.5846 19.3104 26.8131C19.2157 27.0417 19.167 27.2867 19.167 27.5341L19.167 48.2523C19.167 48.5347 19.2305 48.8136 19.3528 49.0682C19.475 49.3228 19.6529 49.5467 19.8733 49.7233L38.708 64.7911C39.0421 65.0586 39.4573 65.2043 39.8852 65.2043C40.3132 65.2043 40.7283 65.0586 41.0624 64.7911L46.9483 60.0824L29.2907 45.9564Z" fill="white"/>
<path d="M54.4011 28.5429L53.0333 27.1774C52.7967 26.9412 52.5017 26.7722 52.1783 26.6876C51.855 26.6029 51.515 26.6057 51.1931 26.6957C47.6739 27.6565 43.944 27.5085 40.5119 26.2719C40.1063 26.1288 39.664 26.1288 39.2585 26.2719C35.8264 27.5085 32.0965 27.6565 28.5773 26.6957C28.2554 26.6058 27.9154 26.603 27.592 26.6877C27.2687 26.7723 26.9737 26.9413 26.7371 27.1774L25.3692 28.5429C25.1943 28.7178 25.0555 28.9255 24.9608 29.154C24.8661 29.3826 24.8174 29.6276 24.8174 29.875L24.8174 45.5365C24.8173 45.819 24.8807 46.0979 25.003 46.3525C25.1252 46.6071 25.3032 46.831 25.5237 47.0075L38.708 57.555C39.0421 57.8225 39.4572 57.9682 39.8852 57.9682C40.3131 57.9682 40.7283 57.8225 41.0623 57.555L54.2467 47.0075C54.4672 46.831 54.6451 46.6071 54.7674 46.3525C54.8897 46.0979 54.9531 45.819 54.953 45.5365L54.953 29.875C54.953 29.6276 54.9043 29.3826 54.8096 29.154C54.7149 28.9255 54.5761 28.7178 54.4011 28.5429Z" fill="url(#paint1_linear)"/>
<path d="M38.0019 46.3691C37.7546 46.3694 37.5096 46.3208 37.2811 46.2262C37.0526 46.1315 36.845 45.9927 36.6703 45.8177L32.9033 42.0508L35.5666 39.3866L38.0019 41.8219L44.2042 35.6196L46.8674 38.2838L39.3335 45.8177C39.1588 45.9927 38.9512 46.1315 38.7227 46.2262C38.4942 46.3208 38.2492 46.3694 38.0019 46.3691Z" fill="white"/>
<defs>
<linearGradient id="paint0_linear" x1="72.0833" y1="1.39698e-07" x2="-5.83333" y2="84.5833" gradientUnits="userSpaceOnUse">
<stop stop-color="#DEF5FF"/>
<stop offset="1" stop-color="#AAE0F7"/>
</linearGradient>
<linearGradient id="paint1_linear" x1="28.0456" y1="49.5455" x2="51.7247" y2="25.8665" gradientUnits="userSpaceOnUse">
<stop stop-color="#B2D7F3"/>
<stop offset="1" stop-color="#8BBBFF"/>
</linearGradient>
</defs>
</svg>
