<svg width="86" height="63" viewBox="0 0 86 63" fill="none" xmlns="http://www.w3.org/2000/svg">
<g clip-path="url(#clip0)">
<path fill-rule="evenodd" clip-rule="evenodd" d="M86.0001 7.80626C85.5767 8.272 85.154 8.73821 84.7299 9.2032C83.3488 10.7166 81.9677 12.2297 80.585 13.7412C80.5045 13.8292 80.4087 13.9035 80.3034 13.9992C80.2218 13.8808 80.1582 13.7889 80.095 13.6967C79.5364 12.882 78.8518 12.2077 77.9508 11.7714C77.2296 11.4221 76.4624 11.2633 75.668 11.2182C73.4749 11.0939 71.6957 11.9423 70.2175 13.5125C68.9168 14.894 67.9554 16.488 67.2136 18.2218C66.4298 20.0543 65.9036 21.961 65.5712 23.9234C65.2788 25.6503 65.0826 27.3846 65.1629 29.1399C65.2292 30.5924 65.4878 32.0032 66.1217 33.3264C66.5426 34.2046 67.0932 34.986 67.8767 35.5857C68.7701 36.2696 69.7876 36.5896 70.9073 36.6193C72.1148 36.6516 73.284 36.4851 74.3933 35.9865C74.4651 35.9541 74.5353 35.9175 74.6077 35.8866C74.9014 35.7611 75.0458 35.5322 75.0985 35.2241C75.2708 34.2171 75.4477 33.2107 75.6279 32.2051C75.8622 30.8985 76.1012 29.593 76.3384 28.287C76.3461 28.2441 76.357 28.2016 76.3629 28.1583C76.4013 27.8768 76.3698 27.8409 76.0806 27.8408C74.5458 27.8403 73.0109 27.8411 71.476 27.8387C71.374 27.8385 71.2719 27.8162 71.1377 27.8004C71.1677 27.5988 71.1897 27.4204 71.2214 27.2439C71.6068 25.1038 71.9933 22.9641 72.3803 20.8244C72.4607 20.3787 72.4948 20.351 72.9398 20.3509C76.8694 20.3494 80.7987 20.3481 84.7281 20.3468C84.8684 20.3468 85.0091 20.3446 85.149 20.3523C85.3402 20.363 85.3775 20.41 85.3445 20.6017C85.2229 21.3074 85.0976 22.0125 84.9744 22.7179C84.7371 24.0772 84.4994 25.4363 84.2636 26.7958C84.01 28.2585 83.7598 29.7217 83.5056 31.1844C83.2528 32.6384 82.9965 34.0919 82.7424 35.5456C82.4523 37.2058 82.1627 38.8663 81.8735 40.5266C81.8496 40.6643 81.8213 40.8019 81.8098 40.9407C81.782 41.2755 81.6064 41.5136 81.3263 41.6772C80.8426 41.9597 80.3624 42.2499 79.8658 42.5084C78.2748 43.3366 76.6104 43.9715 74.8515 44.3465C73.8464 44.5608 72.8287 44.6912 71.8029 44.728C70.954 44.7584 70.1006 44.7806 69.2535 44.731C66.7665 44.5851 64.4457 43.8977 62.3698 42.4891C60.5623 41.2628 59.2584 39.6112 58.312 37.6625C57.6347 36.2678 57.2125 34.7957 56.9451 33.274C56.6276 31.4653 56.5546 29.6416 56.6457 27.8137C56.8367 23.9741 57.5603 20.2414 58.9922 16.6594C59.9576 14.2446 61.1764 11.9698 62.7841 9.91387C64.3861 7.86505 66.2862 6.14931 68.5448 4.84124C70.14 3.91734 71.8544 3.3338 73.6841 3.0963C74.8531 2.94459 76.0263 2.9365 77.202 3.01411C78.1838 3.07892 79.1562 3.20002 80.1081 3.45283C82.111 3.98488 83.8595 4.94846 85.248 6.50682C85.4862 6.77405 85.6915 7.07014 85.9132 7.35191C85.9383 7.38393 85.9711 7.41006 86.0002 7.43887C86.0001 7.56143 86.0001 7.6838 86.0001 7.80626Z" fill="#79C917"/>
<path fill-rule="evenodd" clip-rule="evenodd" d="M0.000219386 40.2798C0.0675437 40.2158 0.14353 40.1589 0.200986 40.087C1.7581 38.138 3.31303 36.1874 4.86895 34.2373C5.09516 33.9538 5.10393 33.9648 5.35612 34.2285C5.87279 34.7688 6.45864 35.2276 7.09504 35.6204C8.42289 36.4401 9.86533 36.8856 11.4309 36.8627C13.0421 36.8391 14.3748 36.1955 15.3769 34.9344C16.1152 34.0057 16.4088 32.9247 16.3319 31.7443C16.2447 30.4105 15.6597 29.3233 14.6851 28.424C13.9993 27.7911 13.2389 27.2645 12.4419 26.7823C11.6555 26.3064 10.8623 25.8382 10.1047 25.3193C8.78176 24.4129 7.6718 23.2913 6.84175 21.9109C6.05348 20.6 5.60108 19.1785 5.46402 17.6587C5.26972 15.5047 5.47399 13.3918 6.26489 11.3697C7.89844 7.19268 10.8668 4.47522 15.2481 3.34519C16.7934 2.94658 18.3672 2.76448 19.9627 2.82995C22.5247 2.93521 24.9448 3.57067 27.1868 4.82901C27.9162 5.23844 28.5711 5.75116 29.1599 6.34573C29.2215 6.40792 29.2835 6.47011 29.3411 6.5358C29.5049 6.72215 29.5041 6.74357 29.3488 6.93211C28.3072 8.19496 27.2658 9.45794 26.2243 10.7209C25.6897 11.3693 25.1554 12.0178 24.6201 12.6657C24.5487 12.7522 24.4729 12.8349 24.3826 12.9383C24.276 12.8326 24.1838 12.7419 24.0925 12.6505C23.062 11.6187 21.8329 10.9476 20.4001 10.6662C19.2271 10.4359 18.0701 10.495 16.9842 11.031C15.4612 11.7828 14.5008 13.004 14.2424 14.6789C13.9847 16.3487 14.4679 17.7877 15.8406 18.8731C16.6814 19.5379 17.589 20.0987 18.5027 20.6538C19.6653 21.3598 20.782 22.1292 21.7763 23.0638C23.3933 24.5835 24.5101 26.3952 25.0214 28.5627C25.2031 29.3326 25.2605 30.115 25.2674 30.9037C25.2813 32.5032 25.1315 34.0816 24.633 35.6105C23.949 37.7083 22.858 39.5584 21.2298 41.0737C19.8951 42.3158 18.3395 43.1869 16.6269 43.7947C14.8472 44.4264 13.0099 44.68 11.1255 44.6548C9.05688 44.6271 7.04317 44.3046 5.10162 43.5812C3.74966 43.0775 2.46118 42.4469 1.30548 41.576C0.893857 41.2657 0.51831 40.908 0.125219 40.5731C0.0872804 40.5407 0.0419954 40.517 0 40.4893C0.000219297 40.4197 0.000219386 40.3498 0.000219386 40.2798Z" fill="#79C917"/>
<path fill-rule="evenodd" clip-rule="evenodd" d="M49.2103 -0.116211C49.2123 -0.0739138 49.205 -0.0286682 49.2176 0.010134C49.599 1.1817 49.6603 2.39042 49.6454 3.60898C49.6192 5.78991 49.209 7.91157 48.659 10.0119C48.396 11.0168 48.129 12.0204 47.7382 12.9861C47.4885 13.6027 47.1913 14.1954 46.8447 14.7633C46.6846 15.0257 46.6238 15.0556 46.331 14.9567C45.9337 14.8226 45.5415 14.6737 45.1478 14.5292C45.108 14.5147 45.0732 14.4867 45.0127 14.4512C45.0488 14.3458 45.0748 14.2374 45.1211 14.1386C46.3063 11.6137 47.3472 9.03353 48.1272 6.35312C48.5085 5.04362 48.814 3.71752 48.9801 2.36331C49.078 1.56621 49.1684 0.76615 49.0673 -0.039266C49.0641 -0.0650587 49.0574 -0.0904183 49.0523 -0.116098C49.1051 -0.116211 49.1577 -0.116211 49.2103 -0.116211Z" fill="#039740"/>
<path fill-rule="evenodd" clip-rule="evenodd" d="M9.63867 61.6244C9.63867 60.8481 9.63867 60.0718 9.63867 59.2908C9.82381 59.2249 9.9478 59.2691 10.0677 59.4242C10.4205 59.8806 10.7894 60.3245 11.1524 60.7729C11.1954 60.826 11.2411 60.877 11.3013 60.9473C11.395 60.7596 11.3389 60.5779 11.3481 60.4048C11.3583 60.2132 11.3505 60.0205 11.3505 59.8285C11.3505 59.6463 11.3505 59.4639 11.3505 59.2727C11.4661 59.2727 11.5612 59.2727 11.6752 59.2727C11.6798 59.3352 11.6889 59.4021 11.689 59.4689C11.6901 60.1239 11.6883 60.7789 11.691 61.4341C11.6915 61.5388 11.6888 61.6341 11.5786 61.6861C11.5259 61.6861 11.4733 61.6861 11.4207 61.6861C11.3834 61.6279 11.3511 61.5658 11.308 61.5123C10.925 61.036 10.5403 60.5611 10.1558 60.0858C10.1148 60.0353 10.0728 59.9856 10.0312 59.9355C10.0173 59.9419 10.0033 59.9482 9.98938 59.9546C9.98938 60.5102 9.98938 61.0657 9.98938 61.6213C9.87257 61.6224 9.75567 61.6234 9.63867 61.6244Z" fill="#1F1F20"/>
<path fill-rule="evenodd" clip-rule="evenodd" d="M18.9999 61.6861C18.9538 61.6545 18.9121 61.6083 18.8611 61.5939C18.3394 61.4471 17.8646 60.8823 18.0792 60.0896C18.2447 59.4785 18.8887 59.1212 19.5481 59.2512C20.0748 59.355 20.4352 59.693 20.5332 60.1748C20.6372 60.6854 20.457 61.1658 20.0493 61.4371C19.9493 61.5036 19.8294 61.5398 19.7222 61.5967C19.6862 61.6158 19.6614 61.6556 19.6315 61.6859C19.4211 61.6861 19.2105 61.6861 18.9999 61.6861ZM20.2128 60.4519C20.2174 59.9364 19.8225 59.5392 19.3031 59.5365C18.7819 59.5341 18.3794 59.9243 18.3744 60.4369C18.3694 60.9483 18.765 61.3452 19.2878 61.3535C19.8048 61.3616 20.2084 60.9681 20.2128 60.4519Z" fill="#1F1F20"/>
<path fill-rule="evenodd" clip-rule="evenodd" d="M29.1581 61.6854C29.1467 61.5621 29.0327 61.5956 28.9651 61.5668C28.4922 61.3664 28.2023 60.9254 28.2153 60.4123C28.2281 59.8991 28.5388 59.4749 29.0267 59.3041C29.7442 59.053 30.4944 59.402 30.7008 60.0832C30.8908 60.7101 30.5856 61.3385 29.978 61.5781C29.9114 61.6043 29.8523 61.6493 29.7897 61.6854C29.5792 61.6854 29.3687 61.6854 29.1581 61.6854ZM28.5719 60.4319C28.5662 60.9527 28.9477 61.3419 29.4747 61.3528C29.9872 61.3635 30.3994 60.9681 30.41 60.4561C30.4205 59.9527 30.0122 59.5402 29.4987 59.5356C28.9732 59.5311 28.5778 59.9134 28.5719 60.4319Z" fill="#1F1F20"/>
<path fill-rule="evenodd" clip-rule="evenodd" d="M43.8949 61.6862C43.8472 61.6499 43.8041 61.6042 43.751 61.5787C43.2901 61.3565 43.2212 60.8771 43.6068 60.537C43.6976 60.4568 43.8009 60.3905 43.9095 60.3095C43.8522 60.2309 43.7919 60.1594 43.744 60.0804C43.5334 59.7336 43.6864 59.353 44.0824 59.2688C44.2228 59.239 44.3811 59.2387 44.5208 59.2706C44.8879 59.3543 45.0218 59.7585 44.7808 60.0489C44.6826 60.1674 44.5474 60.2556 44.4172 60.3679C44.591 60.5372 44.7708 60.7122 44.9756 60.912C45.0298 60.7743 45.0782 60.6517 45.1338 60.5102C45.2176 60.5385 45.2958 60.5648 45.3967 60.5989C45.3286 60.7888 45.2674 60.9591 45.1892 61.1772C45.2795 61.2441 45.3922 61.3279 45.4855 61.3973C45.4349 61.5222 45.4017 61.6044 45.3685 61.6865C45.3334 61.6865 45.2982 61.6865 45.2632 61.6865C45.1804 61.5797 45.0977 61.4731 45.0241 61.3783C44.8035 61.491 44.6123 61.5888 44.4211 61.6865C44.2457 61.6863 44.0703 61.6862 43.8949 61.6862ZM44.1232 60.4992C44.0364 60.5552 43.9693 60.5946 43.9066 60.6402C43.8645 60.6708 43.824 60.7062 43.7908 60.7461C43.6119 60.9614 43.6708 61.2078 43.9268 61.3238C44.1997 61.4477 44.5369 61.3795 44.7538 61.1628C44.5502 60.9486 44.3465 60.7342 44.1232 60.4992ZM44.1947 60.1782C44.313 60.0934 44.4177 60.0324 44.5046 59.9523C44.6297 59.8372 44.6428 59.6902 44.5556 59.5826C44.4709 59.4782 44.2661 59.4486 44.1238 59.5204C43.9853 59.59 43.9239 59.7215 43.9886 59.865C44.0364 59.9709 44.1168 60.0622 44.1947 60.1782Z" fill="#1F1F20"/>
<path fill-rule="evenodd" clip-rule="evenodd" d="M13.2102 61.6857C13.1628 61.6544 13.1192 61.6132 13.0675 61.5932C12.4603 61.359 12.172 60.8927 12.2511 60.2657C12.3223 59.7013 12.7559 59.2994 13.3679 59.2294C13.6767 59.1942 14.2141 59.294 14.4093 59.5932C14.3471 59.6608 14.2849 59.7281 14.224 59.7943C13.6678 59.4425 13.1621 59.4599 12.8147 59.8382C12.5189 60.16 12.51 60.6717 12.7857 61.0175C13.0663 61.3692 13.6768 61.4579 14.071 61.1873C14.071 60.9529 14.071 60.7025 14.071 60.4388C14.1928 60.4388 14.2923 60.4388 14.4137 60.4388C14.4137 60.7239 14.418 61.0017 14.4096 61.2791C14.4082 61.3285 14.3657 61.3955 14.3222 61.4213C14.2109 61.4876 14.0869 61.5328 13.9709 61.5918C13.9241 61.6158 13.8846 61.654 13.8417 61.6857C13.6313 61.6857 13.4207 61.6857 13.2102 61.6857Z" fill="#1F1F20"/>
<path fill-rule="evenodd" clip-rule="evenodd" d="M40.8423 61.6847C40.7804 61.6494 40.7199 61.6113 40.6565 61.5791C40.5266 61.513 40.395 61.4503 40.249 61.3787C40.2973 61.2756 40.3329 61.1992 40.366 61.1289C40.5758 61.2035 40.7715 61.2985 40.978 61.3384C41.1347 61.3688 41.309 61.348 41.4685 61.3161C41.6574 61.2782 41.7415 61.166 41.749 61.0174C41.7575 60.8475 41.6498 60.7606 41.5132 60.7092C41.3751 60.6569 41.2287 60.6264 41.0866 60.5839C40.9529 60.544 40.8151 60.5124 40.6884 60.4567C40.4534 60.3535 40.312 60.1766 40.3156 59.9082C40.3191 59.6357 40.4511 59.4359 40.6969 59.3322C41.1365 59.1467 41.565 59.2022 41.9996 59.4285C41.9611 59.5255 41.9277 59.609 41.8873 59.7107C41.6347 59.5819 41.3877 59.4979 41.1203 59.535C41.0189 59.5491 40.9107 59.5729 40.824 59.6237C40.6034 59.753 40.6071 60.0274 40.8296 60.1514C40.9269 60.2056 41.0403 60.2331 41.1484 60.2663C41.3235 60.32 41.5026 60.3609 41.6754 60.4208C41.9284 60.5082 42.0882 60.6782 42.1008 60.9577C42.1127 61.2239 41.9613 61.4438 41.6901 61.5712C41.6307 61.5991 41.5288 61.5731 41.5266 61.6848C41.2984 61.6847 41.0704 61.6847 40.8423 61.6847Z" fill="#1F1F20"/>
<path fill-rule="evenodd" clip-rule="evenodd" d="M66.8949 61.6851C66.8424 61.6514 66.7924 61.6129 66.7369 61.5856C66.5989 61.5178 66.4582 61.455 66.3008 61.382C66.3537 61.2746 66.3908 61.1991 66.4248 61.1305C66.6322 61.2042 66.8281 61.2991 67.0349 61.3392C67.1917 61.3695 67.3657 61.3485 67.5253 61.317C67.71 61.2807 67.7996 61.1636 67.8064 61.0176C67.8145 60.8485 67.7063 60.7608 67.5701 60.7092C67.4319 60.6567 67.2852 60.6272 67.1432 60.5846C67.0097 60.5446 66.8729 60.5107 66.7453 60.4563C66.508 60.3549 66.3691 60.1765 66.3719 59.9092C66.3749 59.637 66.5078 59.4378 66.7532 59.3332C67.1926 59.1456 67.6206 59.2026 68.0557 59.43C68.0177 59.5256 67.9845 59.6092 67.9437 59.712C67.6915 59.5802 67.4439 59.4997 67.1769 59.5353C67.0754 59.5489 66.9672 59.5731 66.8806 59.6239C66.6601 59.753 66.6613 60.0344 66.8887 60.1499C67.0419 60.2277 67.2178 60.2616 67.384 60.3138C67.517 60.3558 67.6556 60.3845 67.7828 60.4393C68.0073 60.5364 68.1519 60.7011 68.1554 60.9597C68.1588 61.2201 68.0366 61.4026 67.816 61.5378C67.7373 61.586 67.6071 61.557 67.5793 61.6851C67.3511 61.6851 67.123 61.6851 66.8949 61.6851Z" fill="#1F1F20"/>
<path fill-rule="evenodd" clip-rule="evenodd" d="M1.78998 61.6846C1.72397 61.6441 1.66202 61.5943 1.59141 61.5643C0.886369 61.2655 0.625952 60.399 1.05172 59.7607C1.47738 59.1223 2.49085 59.0338 3.0096 59.6047C2.94744 59.6704 2.88395 59.7373 2.81158 59.8136C2.56739 59.6095 2.2993 59.495 1.98439 59.5462C1.76257 59.5824 1.56761 59.6752 1.41751 59.849C1.13297 60.1782 1.13078 60.7034 1.41345 61.0311C1.74755 61.4186 2.25007 61.4395 2.81367 61.0837C2.85007 61.1162 2.88998 61.1491 2.9265 61.1852C2.95686 61.2153 2.98318 61.2496 3.03822 61.313C2.87638 61.4078 2.72847 61.4938 2.58153 61.5814C2.52693 61.6138 2.47474 61.6501 2.42145 61.6845C2.21103 61.6846 2.00051 61.6846 1.78998 61.6846Z" fill="#1F1F20"/>
<path fill-rule="evenodd" clip-rule="evenodd" d="M47.6319 61.6854C47.5884 61.6533 47.5492 61.6066 47.5004 61.5913C46.8799 61.3958 46.5648 60.7451 46.7215 60.1259C46.887 59.4717 47.5322 59.154 48.1379 59.2378C48.4613 59.2824 48.6417 59.3818 48.8316 59.5988C48.7704 59.6695 48.7097 59.7399 48.6516 59.8068C48.0926 59.4396 47.5761 59.4613 47.244 59.8527C46.949 60.2007 46.9654 60.7484 47.2805 61.0729C47.6277 61.4304 48.1468 61.4381 48.6209 61.0833C48.6575 61.1101 48.7 61.1368 48.7373 61.1696C48.7756 61.2036 48.8087 61.2434 48.8727 61.3107C48.709 61.4075 48.5614 61.4933 48.4153 61.5816C48.3628 61.6133 48.314 61.6507 48.2634 61.6855C48.0529 61.6854 47.8425 61.6854 47.6319 61.6854Z" fill="#1F1F20"/>
<path fill-rule="evenodd" clip-rule="evenodd" d="M79.7891 61.685C79.779 61.5921 79.7608 61.4991 79.7604 61.406C79.7575 60.882 79.7589 60.3577 79.7589 59.8337C79.7589 59.7487 79.7589 59.6637 79.7589 59.5589C79.4797 59.5589 79.2285 59.5589 78.957 59.5589C78.9521 59.4574 78.9482 59.3752 78.9434 59.2764C79.6019 59.2764 80.2455 59.2764 80.9121 59.2764C80.9161 59.3555 80.9201 59.4375 80.9256 59.5461C80.6492 59.5461 80.3906 59.5461 80.1048 59.5461C80.1048 60.276 80.1048 60.9805 80.1048 61.6849C79.9996 61.685 79.8944 61.685 79.7891 61.685Z" fill="#1F1F20"/>
<path fill-rule="evenodd" clip-rule="evenodd" d="M8.5792 61.6863C8.56878 61.6107 8.54959 61.5352 8.54937 61.4597C8.54707 60.7702 8.54794 60.0809 8.54839 59.3914C8.54839 59.3578 8.55332 59.3244 8.55705 59.2764C8.66527 59.2764 8.76736 59.2764 8.89499 59.2764C8.89499 60.0757 8.89499 60.8809 8.89499 61.6863C8.78973 61.6863 8.68446 61.6863 8.5792 61.6863Z" fill="#1F1F20"/>
<path fill-rule="evenodd" clip-rule="evenodd" d="M52.1582 61.686C52.1582 60.8866 52.1582 60.0871 52.1582 59.2744C52.269 59.2744 52.3706 59.2744 52.4922 59.2744C52.4966 59.3332 52.5045 59.3907 52.5046 59.448C52.5055 60.11 52.5063 60.7719 52.5037 61.4337C52.5034 61.5179 52.4843 61.6019 52.474 61.6861C52.3688 61.686 52.2635 61.686 52.1582 61.686Z" fill="#1F1F20"/>
<path fill-rule="evenodd" clip-rule="evenodd" d="M36.3053 61.6221C36.3088 61.6433 36.3123 61.6647 36.316 61.6859C35.7371 61.6859 35.158 61.6859 34.5791 61.6859C34.58 61.6673 34.5809 61.6486 34.5817 61.6301C35.1562 61.6274 35.7307 61.6247 36.3053 61.6221Z" fill="#1F1F20"/>
<path fill-rule="evenodd" clip-rule="evenodd" d="M60.6309 61.6853C60.6326 61.6658 60.6342 61.6462 60.636 61.6267C61.2105 61.6256 61.7852 61.6248 62.3599 61.624C62.3625 61.6445 62.3651 61.6649 62.3678 61.6854C61.7888 61.6853 61.2097 61.6853 60.6309 61.6853Z" fill="#1F1F20"/>
<path fill-rule="evenodd" clip-rule="evenodd" d="M74.1469 61.6201C74.1505 61.6415 74.154 61.6629 74.1578 61.6844C73.5788 61.6844 72.9998 61.6844 72.4209 61.6844C72.4219 61.6655 72.4229 61.6469 72.4236 61.628C72.998 61.6254 73.5725 61.6227 74.1469 61.6201Z" fill="#1F1F20"/>
<path fill-rule="evenodd" clip-rule="evenodd" d="M53.21 61.6861C53.2273 61.6686 53.2446 61.6511 53.2618 61.6337C53.8001 61.6285 54.3385 61.6234 54.8769 61.6182C54.8828 61.6408 54.8885 61.6634 54.8943 61.6861C54.3329 61.6861 53.7715 61.6861 53.21 61.6861Z" fill="#1F1F20"/>
<path fill-rule="evenodd" clip-rule="evenodd" d="M78.8768 61.6182C78.8827 61.6408 78.8884 61.6634 78.8941 61.6861C78.3328 61.6861 77.7714 61.6861 77.21 61.6861C77.2273 61.6686 77.2445 61.6511 77.2618 61.6337C77.8 61.6284 78.3384 61.6234 78.8768 61.6182Z" fill="#1F1F20"/>
<path fill-rule="evenodd" clip-rule="evenodd" d="M56.5166 61.6214C56.52 61.6428 56.5234 61.6643 56.5268 61.6857C56.1057 61.6857 55.6847 61.6857 55.2637 61.6857C55.2709 61.6612 55.2784 61.6368 55.2858 61.6123C55.6961 61.6153 56.1064 61.6184 56.5166 61.6214Z" fill="#1F1F20"/>
<path fill-rule="evenodd" clip-rule="evenodd" d="M25.4711 61.6289C25.472 61.6477 25.473 61.6665 25.4739 61.6853C25.351 61.6853 25.2282 61.6853 25.1055 61.6853C25.1059 61.6671 25.1066 61.6487 25.1072 61.6304C25.2285 61.6299 25.3499 61.6294 25.4711 61.6289Z" fill="#1F1F20"/>
<path fill-rule="evenodd" clip-rule="evenodd" d="M6.39724 61.6201C6.40525 61.6418 6.41315 61.6635 6.42115 61.6854C6.29834 61.6854 6.17553 61.6854 6.05273 61.6854C6.05613 61.6655 6.05953 61.6457 6.06293 61.6258C6.17433 61.6239 6.28584 61.622 6.39724 61.6201Z" fill="#1F1F20"/>
<path fill-rule="evenodd" clip-rule="evenodd" d="M7.63184 61.6844C7.63293 61.6654 7.63413 61.6465 7.63512 61.6274C7.75595 61.6278 7.87678 61.6283 7.99762 61.6287C7.99838 61.6473 7.99938 61.6659 8.00014 61.6846C7.87745 61.6844 7.75464 61.6844 7.63184 61.6844Z" fill="#1F1F20"/>
<path fill-rule="evenodd" clip-rule="evenodd" d="M9.98894 61.6201C9.99234 61.6416 9.99584 61.6633 9.99924 61.6847C9.87648 61.6847 9.75372 61.6847 9.63086 61.6847C9.63332 61.6642 9.63577 61.6437 9.63833 61.6231C9.75523 61.6222 9.87213 61.6211 9.98894 61.6201Z" fill="#1F1F20"/>
<path fill-rule="evenodd" clip-rule="evenodd" d="M21.45 61.6201C21.458 61.6418 21.466 61.6635 21.4739 61.6854C21.3511 61.6854 21.2283 61.6854 21.1055 61.6854C21.1089 61.6655 21.1124 61.6456 21.1158 61.6258C21.2272 61.6238 21.3386 61.622 21.45 61.6201Z" fill="#1F1F20"/>
<path fill-rule="evenodd" clip-rule="evenodd" d="M22.6836 61.6859C22.6852 61.6664 22.6866 61.6469 22.6882 61.6274C22.808 61.6275 22.9277 61.6275 23.0473 61.6276C23.049 61.6471 23.0505 61.6664 23.0521 61.6859C22.9292 61.6859 22.8065 61.6859 22.6836 61.6859Z" fill="#1F1F20"/>
<path fill-rule="evenodd" clip-rule="evenodd" d="M83 61.6858C83.0076 61.6639 83.0153 61.6421 83.0231 61.6201C83.1348 61.6222 83.2464 61.6242 83.3581 61.6262C83.3615 61.6461 83.365 61.6659 83.3684 61.6858C83.2455 61.6858 83.1228 61.6858 83 61.6858Z" fill="#1F1F20"/>
<path fill-rule="evenodd" clip-rule="evenodd" d="M51.0527 61.6857C51.0559 61.6645 51.0593 61.6432 51.0625 61.6221C51.1796 61.6229 51.2969 61.6239 51.414 61.6247C51.4163 61.6451 51.4188 61.6652 51.4211 61.6857C51.2984 61.6857 51.1756 61.6857 51.0527 61.6857Z" fill="#1F1F20"/>
<path fill-rule="evenodd" clip-rule="evenodd" d="M26.7363 61.6859C26.7418 61.6633 26.7474 61.6408 26.7529 61.6182C26.8696 61.6225 26.9863 61.6269 27.103 61.6313C27.1036 61.6495 27.1042 61.6678 27.1048 61.6859C26.9819 61.6859 26.8592 61.6859 26.7363 61.6859Z" fill="#1F1F20"/>
<path fill-rule="evenodd" clip-rule="evenodd" d="M71.3154 61.6846C71.3188 61.6632 71.3223 61.6416 71.3257 61.6201C71.4418 61.6203 71.5577 61.6205 71.6737 61.6208C71.6771 61.6421 71.6806 61.6634 71.684 61.6846C71.561 61.6846 71.4383 61.6846 71.3154 61.6846Z" fill="#1F1F20"/>
<path fill-rule="evenodd" clip-rule="evenodd" d="M74.7298 61.624C74.7323 61.6447 74.7351 61.6654 74.7375 61.6861C74.6148 61.6861 74.4919 61.6861 74.3691 61.6861C74.3708 61.6664 74.3725 61.6469 74.3741 61.6272C74.4926 61.6263 74.6111 61.6252 74.7298 61.624Z" fill="#1F1F20"/>
<path fill-rule="evenodd" clip-rule="evenodd" d="M76.4736 61.6845C76.477 61.6631 76.4805 61.6415 76.4839 61.6201C76.6022 61.6225 76.7204 61.6249 76.8385 61.6273C76.8397 61.6463 76.8409 61.6653 76.8421 61.6844C76.7193 61.6845 76.5965 61.6845 76.4736 61.6845Z" fill="#1F1F20"/>
<path fill-rule="evenodd" clip-rule="evenodd" d="M81.6603 61.6201C81.668 61.6417 81.6761 61.6634 81.6838 61.6851C81.5611 61.6851 81.4382 61.6851 81.3154 61.6851C81.3188 61.6652 81.3223 61.6454 81.3257 61.6254C81.4373 61.6236 81.5489 61.6219 81.6603 61.6201Z" fill="#1F1F20"/>
<path fill-rule="evenodd" clip-rule="evenodd" d="M63.264 61.6338C63.2672 61.6509 63.2669 61.6681 63.2632 61.685C63.1579 61.685 63.0525 61.685 62.9473 61.685C62.9483 61.6663 62.9492 61.6477 62.9499 61.6289C63.0546 61.6307 63.1592 61.6321 63.264 61.6338Z" fill="#1F1F20"/>
<path fill-rule="evenodd" clip-rule="evenodd" d="M64.6846 61.686C64.6866 61.6658 64.6884 61.6457 64.6904 61.6255C64.7903 61.6242 64.8903 61.6232 64.9902 61.6221C64.9934 61.6433 64.997 61.6647 65.0004 61.686C64.8951 61.686 64.7898 61.686 64.6846 61.686Z" fill="#1F1F20"/>
<path fill-rule="evenodd" clip-rule="evenodd" d="M69.9478 61.6341C69.952 61.651 69.9516 61.6681 69.9467 61.6848C69.8415 61.6848 69.7362 61.6848 69.6309 61.6848C69.6317 61.6662 69.6326 61.6477 69.6334 61.6289C69.7383 61.6307 69.843 61.6323 69.9478 61.6341Z" fill="#1F1F20"/>
<path fill-rule="evenodd" clip-rule="evenodd" d="M38.6318 61.6861C38.6334 61.6664 38.635 61.6468 38.6365 61.6273C38.7368 61.6255 38.8371 61.6239 38.9375 61.6221C38.9409 61.6434 38.9444 61.6648 38.9478 61.6861C38.8424 61.6861 38.737 61.6861 38.6318 61.6861Z" fill="#1F1F20"/>
<path fill-rule="evenodd" clip-rule="evenodd" d="M49.6871 61.6382C49.6929 61.6542 49.6918 61.6696 49.6839 61.6846C49.5786 61.6846 49.4734 61.6846 49.3682 61.6846C49.3689 61.6661 49.3698 61.6475 49.3704 61.6289C49.476 61.632 49.5817 61.6351 49.6871 61.6382Z" fill="#1F1F20"/>
<path fill-rule="evenodd" clip-rule="evenodd" d="M16.3681 61.6309C16.3684 61.6489 16.3688 61.6668 16.3691 61.6848C16.2638 61.6848 16.1585 61.6848 16.0533 61.6848C16.0477 61.6679 16.0474 61.6509 16.0523 61.6339C16.1576 61.6329 16.2629 61.6318 16.3681 61.6309Z" fill="#1F1F20"/>
<path fill-rule="evenodd" clip-rule="evenodd" d="M37.211 61.6329C37.2143 61.6501 37.2141 61.6671 37.2104 61.6843C37.1051 61.6843 36.9998 61.6843 36.8945 61.6843C36.8948 61.6665 36.895 61.6487 36.8954 61.6309C37.0005 61.6315 37.1058 61.6322 37.211 61.6329Z" fill="#1F1F20"/>
<path fill-rule="evenodd" clip-rule="evenodd" d="M33.5266 61.6856C33.5255 61.6686 33.5252 61.6514 33.5255 61.6344C33.6272 61.631 33.7288 61.6275 33.8306 61.624C33.8345 61.6446 33.8385 61.6651 33.8424 61.6855C33.7372 61.6856 33.6319 61.6856 33.5266 61.6856Z" fill="#1F1F20"/>
<path fill-rule="evenodd" clip-rule="evenodd" d="M31.6264 61.6255C31.6283 61.6453 31.63 61.665 31.6319 61.6848C31.5266 61.6848 31.4214 61.6848 31.3161 61.6848C31.3104 61.6683 31.3101 61.6513 31.3149 61.6344C31.4188 61.6315 31.5225 61.6284 31.6264 61.6255Z" fill="#1F1F20"/>
<path fill-rule="evenodd" clip-rule="evenodd" d="M45.0918 40.1255C45.1159 40.0819 45.1335 40.0326 45.165 39.9955C47.3233 37.4569 48.8772 34.5821 49.9659 31.4466C50.5721 29.7008 51.022 27.9167 51.3033 26.0912C51.5797 24.2973 51.669 22.4916 51.5678 20.6804C51.4542 18.6451 51.0926 16.6579 50.3186 14.7595C49.9113 13.7605 49.4255 12.8032 48.7731 11.9384C48.6105 11.7229 48.573 11.5024 48.6496 11.2495C48.9941 10.1118 49.2728 8.95797 49.4996 7.79155C49.7401 6.55498 49.9148 5.31074 49.9542 4.04977C49.9608 3.83489 49.9865 3.62056 50.0072 3.35596C50.1631 3.43574 50.2804 3.48536 50.3869 3.55226C50.9238 3.88944 51.4015 4.3004 51.8529 4.74185C53.0432 5.90532 53.8807 7.29865 54.5214 8.82005C55.1663 10.3517 55.5719 11.9458 55.7981 13.5892C55.9904 14.9861 56.0784 16.3886 56.0428 17.7978C56.0117 19.0309 55.8806 20.2548 55.6951 21.4743C55.4425 23.1348 55.0787 24.7694 54.583 26.3746C53.4081 30.1791 51.5681 33.6275 49.0116 36.6896C48.0032 37.8976 46.8613 38.9673 45.5861 39.8936C45.5153 39.9451 45.4513 40.0066 45.3779 40.0534C45.3014 40.102 45.2172 40.1386 45.1364 40.1803C45.1217 40.1619 45.1067 40.1437 45.0918 40.1255Z" fill="#79C917"/>
<path fill-rule="evenodd" clip-rule="evenodd" d="M29.5588 41.2634C29.4636 41.1453 29.3921 41.069 29.3348 40.9834C28.2887 39.4198 27.6452 37.695 27.2773 35.8612C26.916 34.06 26.8091 32.2391 26.9124 30.4087C27.0546 27.891 27.5695 25.4427 28.3744 23.0553C29.3613 20.1279 30.8104 17.4512 32.783 15.0631C33.6958 13.9581 34.7209 12.97 35.8839 12.1272C35.9689 12.0656 36.0454 11.9922 36.1313 11.9322C36.1997 11.8844 36.2741 11.8306 36.3759 11.8945C35.3719 13.0661 34.5042 14.3193 33.7693 15.6632C32.5612 17.8722 31.7266 20.2172 31.2095 22.6771C30.8667 24.3077 30.6971 25.9557 30.7123 27.6222C30.7299 29.5392 30.9731 31.4192 31.6224 33.2344C31.9534 34.1596 32.3648 35.0448 32.9252 35.856C33.0569 36.0467 33.0617 36.2089 32.9268 36.4047C31.8689 37.9383 30.8184 39.4771 29.7644 41.0132C29.7116 41.0905 29.6455 41.1588 29.5588 41.2634Z" fill="#039740"/>
<path fill-rule="evenodd" clip-rule="evenodd" d="M33.5742 43.6324C33.9873 43.1116 34.4032 42.5931 34.8129 42.0697C36.7216 39.6319 38.4327 37.0676 39.8132 34.2926C40.821 32.2669 41.6291 30.1682 42.1307 27.9586C42.4058 26.7463 42.5784 25.5204 42.6401 24.278C42.8647 19.7491 41.5365 15.698 38.8719 12.055C37.267 9.86072 35.3266 8.00182 33.1577 6.37087C31.5165 5.13657 29.7756 4.06108 27.9488 3.122C27.8749 3.08397 27.8077 3.03314 27.7373 2.98811C27.7451 2.96843 27.7528 2.94888 27.7606 2.9292C27.8283 2.94582 27.9002 2.95292 27.9635 2.98035C30.1745 3.93868 32.3384 4.98925 34.4062 6.23043C36.8862 7.71902 39.1987 9.4273 41.2862 11.4312C42.1022 12.2147 42.8589 13.052 43.528 13.9652C43.6518 14.1341 43.7743 14.3068 43.8735 14.4906C44.0576 14.8317 44.3168 15.0943 44.6441 15.2964C45.1012 15.5787 45.5938 15.7811 46.1024 15.9495C46.5275 16.0903 46.5425 16.1217 46.397 16.5473C46.1967 17.1338 45.8523 17.6405 45.4968 18.1398C45.3446 18.3535 45.1783 18.5572 45.0229 18.7687C44.5893 19.3596 44.3665 20.0251 44.381 20.7543C44.4356 23.4968 44.0171 26.1688 43.19 28.7794C42.1466 32.0727 40.5643 35.0989 38.5835 37.9235C37.1629 39.9491 35.5657 41.8268 33.7924 43.5548C33.7425 43.6034 33.6878 43.6471 33.6354 43.693C33.6149 43.6727 33.5946 43.6525 33.5742 43.6324Z" fill="#79C917"/>
<path fill-rule="evenodd" clip-rule="evenodd" d="M46.6025 9.76829C46.3032 9.60051 46.0411 9.44263 45.7691 9.30424C45.5197 9.17754 45.2643 9.05998 45.0028 8.96182C44.8176 8.89229 44.7232 8.77963 44.6785 8.59056C44.5188 7.91654 44.2165 7.31022 43.7685 6.77936C43.5275 6.49377 43.2455 6.26359 42.8733 6.16533C42.4363 6.05002 42.0453 6.20807 41.8182 6.59804C41.6554 6.87729 41.5974 7.18792 41.5882 7.50365C41.5813 7.73812 41.6094 7.974 41.6274 8.20876C41.6465 8.45557 41.6334 8.49335 41.3925 8.51642C40.6991 8.58312 40.0295 8.74854 39.3734 8.97425C39.1888 9.03793 39.0345 9.00176 38.8813 8.88956C38.1182 8.33113 37.3524 7.77627 36.5876 7.22027C36.4002 7.08409 36.3965 7.02878 36.5929 6.82964C37.412 5.99909 38.2822 5.22668 39.2362 4.55111C40.5852 3.59575 42.0467 2.87864 43.6595 2.48484C45.1889 2.11137 46.7134 2.10667 48.2302 2.55654C48.6049 2.6677 48.6184 2.69273 48.5544 3.07089C48.1803 5.28515 47.5086 7.41504 46.7213 9.51234C46.6911 9.59316 46.6488 9.66928 46.6025 9.76829Z" fill="#79C917"/>
<path fill-rule="evenodd" clip-rule="evenodd" d="M48.7473 32.1519C48.411 32.9573 48.1036 33.7762 47.7329 34.5658C46.7035 36.7588 45.3703 38.7511 43.6781 40.4961C42.6064 41.6012 41.4408 42.5889 40.0764 43.3245C39.0351 43.886 37.9365 44.2847 36.763 44.4579C35.7899 44.6016 34.8222 44.5609 33.8665 44.3164C33.8009 44.2996 33.7392 44.2685 33.6387 44.2299C33.6944 44.1522 33.7285 44.0856 33.7795 44.0363C35.2309 42.6348 36.5802 41.1421 37.7959 39.5328C38.0116 39.2474 38.2494 39.1171 38.6173 39.1333C39.9744 39.1927 41.2329 38.8144 42.4311 38.2102C43.8888 37.4749 45.1286 36.458 46.238 35.2724C47.0542 34.4001 47.7705 33.4519 48.4228 32.4538C48.4897 32.3516 48.56 32.2515 48.6287 32.1504C48.6682 32.1508 48.7078 32.1513 48.7473 32.1519Z" fill="#039740"/>
<path fill-rule="evenodd" clip-rule="evenodd" d="M26.2539 46.1532C26.7876 45.4711 27.3238 44.7911 27.8545 44.1067C30.2422 41.0266 32.4316 37.8093 34.5147 34.5192C37.1353 30.3803 39.5882 26.1444 41.8695 21.8102C41.9164 21.721 41.9789 21.6398 42.0631 21.5103C42.1627 21.8729 42.1858 22.1892 42.1975 22.5053C42.2353 23.5311 42.1538 24.5502 41.9727 25.5586C41.8478 26.2541 41.6896 26.944 41.5285 27.6322C41.4796 27.8413 41.3928 28.0486 41.2869 28.2362C40.468 29.687 39.4869 31.028 38.4676 32.3428C36.1444 35.3402 33.6663 38.2073 31.1212 41.0176C29.6462 42.6462 28.1515 44.257 26.6648 45.8752C26.5762 45.9716 26.481 46.0622 26.389 46.1552C26.3442 46.1546 26.2991 46.1539 26.2539 46.1532Z" fill="#039740"/>
<path fill-rule="evenodd" clip-rule="evenodd" d="M36.7154 38.9034C36.6575 38.9927 36.6025 39.0799 36.5453 39.1656C35.6219 40.5489 34.5795 41.8423 33.5315 43.1316C33.355 43.3486 33.1819 43.5688 33.0005 43.7816C32.8631 43.9427 32.8053 43.9576 32.6123 43.869C31.8571 43.5223 31.1913 43.0443 30.5915 42.474C30.4515 42.3408 30.455 42.2622 30.5657 42.1076C30.5961 42.0651 30.6332 42.0272 30.6681 41.9881C31.8524 40.6536 33.0369 39.3193 34.2215 37.9849C34.5161 37.653 34.516 37.6532 34.8761 37.9183C35.3511 38.2679 35.8691 38.5383 36.4194 38.7491C36.4847 38.7741 36.5501 38.7993 36.6132 38.829C36.6437 38.8437 36.6692 38.8694 36.7154 38.9034Z" fill="#039740"/>
<path fill-rule="evenodd" clip-rule="evenodd" d="M36.8619 10.1831C34.1709 11.933 32.1719 14.3127 30.4922 17.0033C30.4963 16.9618 30.4968 16.9193 30.5055 16.8788C30.5164 16.8278 30.5307 16.7769 30.5492 16.7281C31.6396 13.8335 33.0625 11.1207 34.9796 8.67819C35.1239 8.49431 35.1783 8.47857 35.3344 8.63382C35.8417 9.13875 36.3401 9.65253 36.8619 10.1831Z" fill="#79C917"/>
<path fill-rule="evenodd" clip-rule="evenodd" d="M11.5387 54.0913C11.5387 52.9054 11.5387 51.7196 11.5387 50.5199C11.7778 50.5199 12.0018 50.5199 12.2427 50.5199C12.2427 52.148 12.2427 53.7776 12.2427 55.4266C12.0624 55.4266 11.8744 55.4266 11.6517 55.4266C10.7019 54.251 9.73258 53.0511 8.76316 51.8512C8.74506 51.8561 8.72707 51.861 8.70899 51.8661C8.69177 52.1549 8.70339 52.4452 8.70131 52.7347C8.69912 53.0406 8.70088 53.3465 8.70088 53.6522C8.70088 53.9495 8.70088 54.2466 8.70088 54.5436C8.70088 54.8394 8.70088 55.1351 8.70088 55.4383C8.46162 55.4383 8.24429 55.4383 8.01074 55.4383C8.01074 53.804 8.01074 52.1743 8.01074 50.5066C8.17094 50.5066 8.34397 50.4912 8.51184 50.5138C8.58224 50.5232 8.65295 50.6037 8.70472 50.6672C9.31184 51.4134 9.91544 52.1627 10.5201 52.9111C10.8425 53.3102 11.1652 53.7094 11.4878 54.1086C11.5047 54.1029 11.5217 54.0972 11.5387 54.0913Z" fill="#1F1F20"/>
<path fill-rule="evenodd" clip-rule="evenodd" d="M78.6641 55.4465C78.6641 53.7875 78.6641 52.1642 78.6641 50.5271C78.7007 50.5195 78.7323 50.507 78.7639 50.507C79.483 50.5071 80.2018 50.5053 80.9208 50.5112C81.2473 50.5139 81.5636 50.5836 81.8692 50.6974C83.0389 51.1326 83.5618 52.2166 83.3945 53.3552C83.2299 54.4757 82.4701 55.211 81.337 55.3964C81.2592 55.409 81.182 55.4283 81.1036 55.434C80.9813 55.4429 80.8585 55.4457 80.7358 55.446C80.0525 55.447 79.3693 55.4465 78.6641 55.4465ZM79.3801 54.8118C79.9294 54.8118 80.4543 54.8141 80.9792 54.8098C81.074 54.8089 81.1695 54.7845 81.2634 54.7645C82.1655 54.572 82.7015 53.9003 82.7 52.9664C82.6985 52.0511 82.1603 51.3759 81.2679 51.1928C81.0472 51.1476 80.8168 51.1399 80.5903 51.1347C80.1903 51.1259 79.79 51.1324 79.3801 51.1324C79.3801 52.3693 79.3801 53.5792 79.3801 54.8118Z" fill="#1F1F20"/>
<path fill-rule="evenodd" clip-rule="evenodd" d="M40.109 53.7971C40.4964 54.3451 40.8691 54.8721 41.2577 55.4219C40.9942 55.4713 40.7465 55.4345 40.4934 55.448C40.1938 55.0238 39.8874 54.6091 39.6039 54.1794C39.4852 53.9996 39.3648 53.9256 39.1394 53.9409C38.7385 53.968 38.3345 53.9485 37.9071 53.9485C37.9071 54.4493 37.9071 54.9345 37.9071 55.4328C37.6585 55.4328 37.4341 55.4328 37.1953 55.4328C37.1953 53.8008 37.1953 52.1698 37.1953 50.5253C37.2277 50.5189 37.2597 50.507 37.2916 50.507C37.9581 50.5073 38.625 50.4939 39.2908 50.517C39.5662 50.5265 39.8504 50.5817 40.1104 50.6733C40.7689 50.9052 41.1279 51.3846 41.1814 52.0847C41.2396 52.8451 40.9184 53.4067 40.2317 53.7384C40.2001 53.7534 40.1686 53.7685 40.109 53.7971ZM37.9083 53.3373C38.3816 53.3373 38.828 53.3427 39.2741 53.334C39.4122 53.3312 39.5528 53.3012 39.6867 53.2634C40.2112 53.1159 40.4816 52.744 40.4715 52.1985C40.462 51.6771 40.1714 51.3207 39.6479 51.1916C39.5632 51.1708 39.4766 51.1452 39.3906 51.1444C38.9091 51.1393 38.4277 51.1409 37.9462 51.142C37.9336 51.142 37.9209 51.1629 37.9084 51.1744C37.9083 51.8877 37.9083 52.6011 37.9083 53.3373Z" fill="#1F1F20"/>
<path fill-rule="evenodd" clip-rule="evenodd" d="M52.3518 55.5054C51.3956 55.4904 50.6591 55.2004 50.1269 54.5056C49.1016 53.1672 49.6301 50.8927 51.7028 50.5037C52.3413 50.3838 52.9614 50.4464 53.5436 50.7412C54.5544 51.2532 55.0003 52.2637 54.8769 53.2869C54.7422 54.4038 53.9613 55.2345 52.883 55.4399C52.6777 55.4789 52.4674 55.4915 52.3518 55.5054ZM54.1729 52.9718C54.1701 51.8798 53.3598 51.0875 52.2547 51.0843C51.3397 51.082 50.3521 51.6981 50.3378 52.9807C50.3257 54.0609 51.1627 54.8663 52.2637 54.8672C53.366 54.8681 54.1755 54.0642 54.1729 52.9718Z" fill="#1F1F20"/>
<path fill-rule="evenodd" clip-rule="evenodd" d="M33.1623 55.5103C32.0548 55.4675 31.2114 55.0632 30.7391 54.0922C30.0413 52.6578 30.7752 50.8185 32.5779 50.5043C33.5634 50.3327 34.4528 50.5426 35.1355 51.308C35.7921 52.0441 35.914 52.9199 35.6099 53.8333C35.3124 54.7267 34.6468 55.2441 33.7315 55.4407C33.5277 55.4845 33.3159 55.4924 33.1623 55.5103ZM33.1218 54.8679C34.2195 54.8706 35.0434 54.0594 35.0427 52.9768C35.0417 51.9024 34.2301 51.0925 33.1479 51.0861C32.036 51.0795 31.2122 51.8707 31.2061 52.9509C31.1999 54.0607 32.0037 54.865 33.1218 54.8679Z" fill="#1F1F20"/>
<path fill-rule="evenodd" clip-rule="evenodd" d="M59.6649 54.4278C59.8899 54.6482 60.1017 54.8553 60.3282 55.0771C60.2055 55.2227 60.0843 55.3664 59.9438 55.5333C59.7309 55.2965 59.5337 55.0773 59.3341 54.8556C59.2207 54.9428 59.1548 54.9973 59.0851 55.0463C58.3465 55.5661 57.546 55.6396 56.7158 55.3279C56.1498 55.1153 55.8611 54.6535 55.8976 54.1155C55.9186 53.8072 56.0357 53.5349 56.2589 53.3234C56.4355 53.156 56.6354 53.0125 56.8283 52.8629C56.9035 52.8048 56.9881 52.7588 57.0777 52.7012C56.9801 52.586 56.8872 52.4838 56.8028 52.375C56.6679 52.2007 56.5586 52.0121 56.5234 51.7904C56.4277 51.1875 56.7168 50.7236 57.3029 50.5412C57.6464 50.4345 57.9942 50.4293 58.3386 50.5287C59.0695 50.7397 59.3275 51.5775 58.8373 52.1639C58.7157 52.3095 58.5594 52.4284 58.4098 52.548C58.3014 52.6349 58.1776 52.7026 58.0815 52.7653C58.4646 53.1662 58.8478 53.5671 59.2615 54C59.3685 53.6929 59.4648 53.4164 59.5702 53.1132C59.7311 53.1624 59.9021 53.2147 60.0888 53.2715C60.0362 53.685 59.878 54.0473 59.6649 54.4278ZM58.8487 54.5019C58.3722 54.0232 57.9174 53.5662 57.4338 53.0804C57.2345 53.2345 57.0014 53.3773 56.8151 53.566C56.3813 54.0053 56.5143 54.6214 57.0962 54.8261C57.7365 55.0517 58.3325 54.9398 58.8487 54.5019ZM57.6276 52.4034C57.9199 52.2392 58.1916 52.0957 58.3786 51.8451C58.6465 51.4856 58.458 51.0436 58.0133 50.9828C57.9188 50.9699 57.8205 50.9695 57.7254 50.978C57.2256 51.0232 56.9833 51.4788 57.2408 51.9112C57.3459 52.0878 57.4956 52.2381 57.6276 52.4034Z" fill="#1F1F20"/>
<path fill-rule="evenodd" clip-rule="evenodd" d="M43.4113 52.6407C44.2434 52.6407 45.048 52.6407 45.8665 52.6407C45.8665 52.8389 45.8665 53.019 45.8665 53.2378C45.6055 53.2386 45.3382 53.2396 45.0707 53.24C44.7901 53.2403 44.5095 53.2401 44.2286 53.2401C43.9582 53.2401 43.6877 53.2401 43.4073 53.2401C43.4073 53.772 43.4073 54.2835 43.4073 54.8181C44.3582 54.8181 45.3012 54.8181 46.2587 54.8181C46.2587 55.0301 46.2587 55.2195 46.2587 55.4282C45.0818 55.4282 43.895 55.4282 42.6934 55.4282C42.6934 53.801 42.6934 52.1707 42.6934 50.5234C43.8428 50.5234 44.9963 50.5234 46.1626 50.5234C46.1626 50.7181 46.1626 50.9154 46.1626 51.1324C45.2427 51.1324 44.334 51.1324 43.4113 51.1324C43.4113 51.6358 43.4113 52.1193 43.4113 52.6407Z" fill="#1F1F20"/>
<path fill-rule="evenodd" clip-rule="evenodd" d="M26.1532 53.9587C26.1532 54.4596 26.1532 54.9367 26.1532 55.4301C25.9115 55.4301 25.6878 55.4301 25.4463 55.4301C25.4463 53.8067 25.4463 52.1772 25.4463 50.5292C25.483 50.5229 25.5314 50.5073 25.5798 50.5073C26.2372 50.507 26.8946 50.505 27.5519 50.512C27.8695 50.5154 28.1773 50.5827 28.4685 50.7128C29.1127 51.0007 29.421 51.5056 29.4306 52.2012C29.4404 52.9064 29.1456 53.4292 28.4971 53.7355C28.1335 53.9075 27.7427 53.9527 27.3462 53.9576C26.9608 53.9626 26.5753 53.9587 26.1532 53.9587ZM26.1587 53.3342C26.5696 53.3342 26.954 53.3389 27.3383 53.332C27.504 53.3292 27.6724 53.3176 27.834 53.2835C28.1621 53.2142 28.4448 53.0657 28.6052 52.7513C28.9393 52.0968 28.6044 51.357 27.887 51.193C27.3184 51.0632 26.7408 51.1592 26.1588 51.1299C26.1587 51.8742 26.1587 52.5882 26.1587 53.3342Z" fill="#1F1F20"/>
<path fill-rule="evenodd" clip-rule="evenodd" d="M18.2395 51.2118C18.092 51.3597 17.9519 51.5001 17.8071 51.6454C17.7176 51.5768 17.6363 51.5111 17.5515 51.4503C16.7755 50.8934 15.602 50.9755 14.9397 51.6428C14.4165 52.1699 14.2961 52.8144 14.478 53.5086C14.6597 54.2019 15.1393 54.6272 15.8271 54.8035C16.343 54.9359 16.8525 54.8881 17.3375 54.6543C17.3769 54.6354 17.4163 54.6157 17.453 54.5925C17.4748 54.5789 17.4916 54.5573 17.5245 54.526C17.5245 54.0159 17.5245 53.4936 17.5245 52.9554C17.753 52.9554 17.9668 52.9554 18.1961 52.9554C18.2006 53.0226 18.2076 53.0814 18.2076 53.1402C18.2084 53.6557 18.201 54.1715 18.2124 54.6867C18.2158 54.8396 18.1574 54.927 18.0401 55.0065C17.6635 55.2618 17.2474 55.4142 16.7994 55.4727C16.1884 55.5523 15.5935 55.495 15.0343 55.2126C14.0233 54.702 13.5625 53.67 13.7079 52.6142C13.8994 51.2238 15.035 50.4951 16.1938 50.4548C16.6732 50.438 17.1369 50.4993 17.5728 50.7122C17.8266 50.8358 18.0557 50.9913 18.2395 51.2118Z" fill="#1F1F20"/>
<path fill-rule="evenodd" clip-rule="evenodd" d="M65.6282 52.9539C65.6331 53.0129 65.6408 53.0632 65.6408 53.1136C65.6419 53.6467 65.6383 54.1798 65.6439 54.7128C65.6452 54.8391 65.6062 54.9188 65.4992 54.9923C65.116 55.2557 64.6927 55.4132 64.2358 55.4722C63.5686 55.5581 62.9218 55.4884 62.3341 55.1331C61.454 54.6012 61.0679 53.7981 61.1318 52.7936C61.2267 51.3019 62.4236 50.4829 63.6623 50.4535C64.2069 50.4405 64.729 50.5212 65.1969 50.816C65.3717 50.9262 65.5271 51.0667 65.6839 51.1877C65.5254 51.3582 65.389 51.5048 65.2473 51.657C64.9303 51.3674 64.5826 51.176 64.172 51.1131C63.1329 50.9541 62.2143 51.4763 61.9316 52.3731C61.5387 53.6199 62.3949 54.8283 63.7054 54.8668C64.1435 54.8797 64.557 54.8019 64.9509 54.5512C64.9509 54.0272 64.9509 53.4977 64.9509 52.9537C65.1877 52.9539 65.4017 52.9539 65.6282 52.9539Z" fill="#1F1F20"/>
<path fill-rule="evenodd" clip-rule="evenodd" d="M21.3893 50.5127C21.6349 50.5127 21.8618 50.5127 22.1043 50.5127C22.8476 52.1442 23.5917 53.7775 24.3467 55.4342C24.0805 55.4342 23.848 55.4342 23.5959 55.4342C23.4192 55.0391 23.2386 54.6352 23.0575 54.2298C22.1777 54.2298 21.3113 54.2298 20.4298 54.2298C20.2488 54.6343 20.0679 55.0387 19.8874 55.4421C19.6465 55.4421 19.4191 55.4421 19.1514 55.4421C19.9005 53.7918 20.6411 52.1605 21.3893 50.5127ZM22.8032 53.6421C22.4487 52.8391 22.1084 52.0688 21.7435 51.2426C21.3782 52.07 21.0354 52.8464 20.684 53.6421C21.4006 53.6421 22.0825 53.6421 22.8032 53.6421Z" fill="#1F1F20"/>
<path fill-rule="evenodd" clip-rule="evenodd" d="M3.86821 50.8851C3.77884 51.0943 3.70406 51.2693 3.62489 51.4546C3.23268 51.226 2.83323 51.0724 2.3977 51.0672C2.14716 51.0642 1.89145 51.0955 1.64683 51.1501C1.50988 51.1807 1.37194 51.2707 1.26711 51.3686C0.960867 51.6545 1.00122 52.1107 1.35538 52.3334C1.51514 52.4338 1.70055 52.5015 1.88268 52.5567C2.20012 52.653 2.52621 52.7207 2.84431 52.8149C3.03586 52.8717 3.225 52.944 3.40526 53.03C4.29758 53.4554 4.21557 54.6134 3.60022 55.087C3.29869 55.3192 2.95439 55.4389 2.58597 55.479C1.93082 55.5502 1.29167 55.4803 0.694311 55.1798C0.540363 55.1025 0.398698 55.001 0.238281 54.9027C0.330167 54.7061 0.410539 54.5341 0.500013 54.3426C0.563499 54.3823 0.618982 54.4163 0.673696 54.4515C1.31569 54.8646 2.00845 55.0049 2.75363 54.8153C2.89277 54.7798 3.03498 54.7079 3.14485 54.6159C3.46601 54.3471 3.44419 53.8828 3.09211 53.657C2.91207 53.5414 2.70044 53.4665 2.49397 53.4024C2.16898 53.3018 1.83389 53.2336 1.50769 53.1362C1.33334 53.0841 1.16284 53.0112 1.00056 52.9283C0.15451 52.4963 0.244421 51.425 0.724683 50.9628C1.00725 50.6909 1.34847 50.5526 1.72885 50.4943C2.34792 50.3991 2.95033 50.4529 3.52785 50.7058C3.63805 50.7537 3.74123 50.8177 3.86821 50.8851Z" fill="#1F1F20"/>
<path fill-rule="evenodd" clip-rule="evenodd" d="M44.4842 9.54447C44.4926 9.81964 44.4574 10.087 44.3472 10.3398C44.1714 10.7435 43.8446 10.8653 43.4429 10.6772C43.217 10.5714 43.0294 10.4152 42.8727 10.2223C42.2615 9.47033 41.934 8.61243 41.9099 7.64298C41.9029 7.35986 41.9439 7.08454 42.0748 6.82922C42.2677 6.45379 42.5376 6.36088 42.9232 6.52974C43.1617 6.63435 43.3547 6.79741 43.5185 6.99426C44.1334 7.73389 44.4445 8.58869 44.4842 9.54447Z" fill="#039740"/>
<path fill-rule="evenodd" clip-rule="evenodd" d="M73.4414 51.1367C73.4414 50.9185 73.4414 50.7299 73.4414 50.5234C74.7954 50.5234 76.1496 50.5234 77.5199 50.5234C77.5199 50.7134 77.5199 50.9088 77.5199 51.1274C76.9686 51.1274 76.4201 51.1274 75.8512 51.1274C75.8512 52.5709 75.8512 53.992 75.8512 55.4295C75.6077 55.4295 75.3841 55.4295 75.1405 55.4295C75.1405 54.0108 75.1405 52.5886 75.1405 51.1367C74.5659 51.1367 74.01 51.1367 73.4414 51.1367Z" fill="#1F1F20"/>
<path fill-rule="evenodd" clip-rule="evenodd" d="M72.98 54.8191C72.98 55.0352 72.98 55.2235 72.98 55.4298C71.8623 55.4298 70.7449 55.4298 69.6104 55.4298C69.6104 53.8063 69.6104 52.177 69.6104 50.5287C69.832 50.4849 70.0614 50.511 70.3104 50.5127C70.3104 51.9512 70.3104 53.3712 70.3104 54.8191C71.2087 54.8191 72.0882 54.8191 72.98 54.8191Z" fill="#1F1F20"/>
<path fill-rule="evenodd" clip-rule="evenodd" d="M5.45801 50.5127C5.69035 50.5127 5.90779 50.5127 6.14265 50.5127C6.14265 52.1503 6.14265 53.7847 6.14265 55.4468C6.03147 55.4468 5.92029 55.4468 5.80911 55.4468C5.69649 55.4468 5.58389 55.4468 5.45801 55.4468C5.45801 53.8003 5.45801 52.1716 5.45801 50.5127Z" fill="#1F1F20"/>
<path fill-rule="evenodd" clip-rule="evenodd" d="M27.1033 61.6301C26.9867 61.6258 26.8699 61.6214 26.7533 61.617C26.5494 61.017 26.3455 60.417 26.1216 59.758C25.8924 60.4165 25.6816 61.0225 25.4707 61.6284C25.3494 61.6289 25.2282 61.6293 25.1068 61.6299C24.8437 60.8543 24.5806 60.0789 24.3096 59.2802C24.4345 59.2802 24.5422 59.2802 24.6734 59.2802C24.8732 59.876 25.0781 60.4865 25.3025 61.1558C25.5346 60.4949 25.7498 59.8822 25.9646 59.2705C26.08 59.2705 26.1839 59.2705 26.2936 59.2705C26.5008 59.8793 26.7056 60.4817 26.9331 61.1505C27.1869 60.4987 27.3641 59.8845 27.5882 59.2744C27.6881 59.2744 27.788 59.2744 27.9082 59.2744C27.8784 59.3777 27.8557 59.469 27.8258 59.5577C27.6232 60.1613 27.4199 60.7648 27.2145 61.3673C27.184 61.4571 27.1408 61.5426 27.1033 61.6301Z" fill="#1F1F20"/>
<path fill-rule="evenodd" clip-rule="evenodd" d="M31.6266 61.6249C31.5227 61.628 31.4188 61.631 31.315 61.6339C31.3095 61.146 31.3029 60.6581 31.299 60.1703C31.2967 59.8747 31.2985 59.5793 31.2985 59.2726C31.4015 59.2726 31.4867 59.2726 31.594 59.2726C31.9086 59.7986 32.2293 60.3353 32.571 60.9069C32.9034 60.3445 33.221 59.807 33.5393 59.2686C33.6338 59.2686 33.72 59.2686 33.8306 59.2686C33.8306 60.0581 33.8306 60.8403 33.8306 61.6227C33.7289 61.6261 33.6273 61.6296 33.5255 61.633C33.5167 61.5219 33.5015 61.411 33.4998 61.2996C33.4937 60.8726 33.492 60.4456 33.4885 60.0186C33.4652 60.0307 33.4417 60.043 33.4185 60.0551C33.1901 60.4365 32.9632 60.8187 32.7328 61.199C32.6096 61.4023 32.5229 61.4031 32.3985 61.2007C32.1976 60.8739 32.0016 60.5441 31.8032 60.2158C31.7634 60.1499 31.7213 60.0857 31.6382 60.0255C31.6343 60.5587 31.6304 61.0918 31.6266 61.6249Z" fill="#1F1F20"/>
<path fill-rule="evenodd" clip-rule="evenodd" d="M56.516 61.6209C56.1057 61.618 55.6955 61.6147 55.2852 61.6118C55.2852 60.8358 55.2852 60.0597 55.2852 59.2745C55.7283 59.2745 56.1501 59.2448 56.5657 59.2817C57.119 59.331 57.5234 59.7622 57.5764 60.2907C57.6354 60.8766 57.3573 61.3474 56.8351 61.5369C56.7322 61.5744 56.6225 61.5935 56.516 61.6209ZM55.6473 61.3104C55.9436 61.3104 56.233 61.339 56.5141 61.3036C56.9365 61.2505 57.2098 60.9185 57.2338 60.4948C57.258 60.069 57.0162 59.7059 56.6136 59.6045C56.2997 59.5254 55.9767 59.5375 55.6473 59.5656C55.6473 60.1551 55.6473 60.7269 55.6473 61.3104Z" fill="#1F1F20"/>
<path fill-rule="evenodd" clip-rule="evenodd" d="M37.2121 61.6343C37.107 61.6336 37.0018 61.6329 36.8965 61.6322C36.8965 60.8493 36.8965 60.0667 36.8965 59.2865C37.0898 59.2166 37.2075 59.2894 37.3228 59.4385C37.6644 59.8801 38.0208 60.3105 38.372 60.7449C38.4258 60.8113 38.4825 60.8754 38.5752 60.9848C38.5752 60.3858 38.5752 59.836 38.5752 59.2747C38.7065 59.2747 38.8084 59.2747 38.9381 59.2747C38.9381 60.0577 38.9381 60.8396 38.9381 61.6217C38.8377 61.6234 38.7374 61.6251 38.6371 61.6268C38.185 61.0627 37.7329 60.4986 37.2807 59.9345C37.266 59.9398 37.2514 59.9451 37.2367 59.9502C37.2285 60.5115 37.2204 61.0729 37.2121 61.6343Z" fill="#1F1F20"/>
<path fill-rule="evenodd" clip-rule="evenodd" d="M64.9898 61.622C64.8899 61.6231 64.7899 61.6243 64.69 61.6254C64.2369 61.0598 63.7838 60.4942 63.3308 59.9287C63.3085 59.9366 63.2864 59.9446 63.264 59.9524C63.264 60.5132 63.264 61.074 63.264 61.6349C63.1593 61.6332 63.0547 61.6317 62.9502 61.6301C62.9502 60.853 62.9502 60.0759 62.9502 59.2896C63.1289 59.2207 63.2506 59.2732 63.3688 59.4259C63.7167 59.8757 64.0791 60.3145 64.4365 60.757C64.4887 60.8215 64.5452 60.8825 64.634 60.9843C64.634 60.387 64.634 59.8418 64.634 59.2798C64.7548 59.2798 64.8556 59.2798 64.9899 59.2798C64.9898 60.0567 64.9898 60.8393 64.9898 61.622Z" fill="#1F1F20"/>
<path fill-rule="evenodd" clip-rule="evenodd" d="M60.0557 61.6529C59.9947 61.6507 59.9329 61.6416 59.8728 61.6481C59.7628 61.6602 59.6968 61.6134 59.6372 61.5236C59.4979 61.3136 59.3483 61.1103 59.2097 60.9136C58.9654 60.9136 58.7396 60.9136 58.4874 60.9136C58.4874 61.15 58.4874 61.3805 58.4874 61.6272C58.346 61.6521 58.2308 61.6654 58.1152 61.6118C58.1193 60.9303 58.1234 60.2485 58.1273 59.5671C58.1279 59.4729 58.1274 59.3787 58.1274 59.2733C58.5414 59.2733 58.9372 59.2417 59.3258 59.2808C59.9057 59.339 60.2163 59.9005 59.9928 60.4244C59.91 60.6187 59.755 60.7416 59.5452 60.8401C59.6904 61.0471 59.8277 61.2358 59.9564 61.4301C60.0007 61.4971 60.0233 61.5783 60.0557 61.6529ZM58.4744 59.5397C58.4744 59.8413 58.4744 60.1008 58.4744 60.3602C58.4744 60.4365 58.4744 60.5128 58.4744 60.6283C58.7559 60.6146 59.0163 60.6196 59.2715 60.585C59.5588 60.5458 59.706 60.3565 59.706 60.0848C59.706 59.8065 59.5451 59.618 59.2436 59.5817C59.0032 59.5524 58.7589 59.554 58.4744 59.5397Z" fill="#1F1F20"/>
<path fill-rule="evenodd" clip-rule="evenodd" d="M23.0484 61.6276C22.9286 61.6275 22.8089 61.6275 22.6893 61.6274C22.5248 61.3921 22.3604 61.1566 22.1933 60.9174C21.9583 60.9174 21.7258 60.9174 21.4699 60.9174C21.4632 61.1576 21.4567 61.389 21.4504 61.6206C21.339 61.6226 21.2275 61.6243 21.1162 61.6262C21.1162 60.8508 21.1162 60.0753 21.1162 59.2823C21.1711 59.2758 21.2287 59.2635 21.2861 59.2635C21.6014 59.2635 21.9176 59.251 22.2315 59.2718C22.829 59.3117 23.1658 59.798 22.9972 60.3538C22.9267 60.5862 22.7574 60.7298 22.5363 60.8375C22.7121 61.1087 22.8803 61.3682 23.0484 61.6276ZM21.4595 59.5378C21.4595 59.7476 21.4595 59.9193 21.4595 60.0912C21.4595 60.2614 21.4595 60.4318 21.4595 60.6189C21.6846 60.6189 21.8749 60.6222 22.065 60.6173C22.1428 60.6153 22.2215 60.6014 22.2973 60.5825C22.5521 60.5187 22.6904 60.3318 22.684 60.0682C22.6778 59.8189 22.5396 59.6307 22.2864 59.5936C22.0231 59.5551 21.7541 59.556 21.4595 59.5378Z" fill="#1F1F20"/>
<path fill-rule="evenodd" clip-rule="evenodd" d="M7.99703 61.6295C7.8762 61.6293 7.75537 61.6288 7.63453 61.6284C7.47006 61.3931 7.30559 61.1577 7.13749 60.9171C6.90449 60.9171 6.67193 60.9171 6.41634 60.9171C6.40965 61.1572 6.40317 61.3887 6.39681 61.6202C6.28541 61.6222 6.1739 61.624 6.0625 61.6259C6.0625 60.8501 6.0625 60.0743 6.0625 59.2773C6.13619 59.2722 6.21119 59.2627 6.28629 59.2629C6.58409 59.2632 6.88289 59.2514 7.17949 59.2719C7.76666 59.3127 8.09692 59.779 7.94725 60.3328C7.89353 60.5317 7.79857 60.6401 7.4887 60.8528C7.65789 61.1115 7.82751 61.3706 7.99703 61.6295ZM6.40526 59.5376C6.41063 59.9202 6.39495 60.2629 6.4182 60.6346C6.70921 60.6167 6.97247 60.6198 7.22905 60.5796C7.49484 60.538 7.63344 60.3399 7.62982 60.0761C7.6262 59.8254 7.48794 59.632 7.2353 59.5941C6.97083 59.5545 6.70033 59.5558 6.40526 59.5376Z" fill="#1F1F20"/>
<path fill-rule="evenodd" clip-rule="evenodd" d="M49.6878 61.639C49.5823 61.636 49.4767 61.6328 49.3711 61.6298C49.3711 60.8467 49.3711 60.0634 49.3711 59.2725C49.4868 59.2725 49.5886 59.2725 49.7081 59.2725C49.7081 59.6028 49.7081 59.9227 49.7081 60.2565C50.1597 60.2565 50.594 60.2565 51.0475 60.2565C51.0475 59.9388 51.0475 59.6193 51.0475 59.2807C51.1737 59.2807 51.2817 59.2807 51.4143 59.2807C51.4143 60.0605 51.4143 60.8424 51.4143 61.6244C51.2972 61.6234 51.1798 61.6225 51.0627 61.6218C51.0627 61.2846 51.0627 60.9475 51.0627 60.5961C50.6067 60.5961 50.1681 60.5961 49.7296 60.5961C49.7154 60.9517 49.7016 61.2953 49.6878 61.639Z" fill="#1F1F20"/>
<path fill-rule="evenodd" clip-rule="evenodd" d="M36.3047 61.6209C35.7301 61.6236 35.1556 61.6263 34.5811 61.6289C34.5811 60.8449 34.5811 60.0608 34.5811 59.2725C35.1443 59.2725 35.6935 59.2725 36.2513 59.2725C36.2513 59.3605 36.2513 59.437 36.2513 59.5443C35.8179 59.5443 35.3863 59.5443 34.9397 59.5443C34.9397 59.7976 34.9397 60.0207 34.9397 60.2665C35.3195 60.2665 35.7019 60.2665 36.0973 60.2665C36.0973 60.3718 36.0973 60.4555 36.0973 60.565C35.7196 60.565 35.3386 60.565 34.941 60.565C34.941 60.8208 34.941 61.0521 34.941 61.3137C35.379 61.3137 35.8288 61.3137 36.3048 61.3137C36.3047 61.4352 36.3047 61.528 36.3047 61.6209Z" fill="#1F1F20"/>
<path fill-rule="evenodd" clip-rule="evenodd" d="M81.6606 61.62C81.5491 61.6219 81.4376 61.6236 81.326 61.6254C81.3228 60.8586 81.3194 60.0918 81.3174 59.3251C81.3174 59.31 81.3317 59.295 81.3431 59.2726C81.4413 59.2726 81.5426 59.2726 81.6631 59.2726C81.6631 59.6023 81.6631 59.9218 81.6631 60.256C82.1149 60.256 82.5478 60.256 83.0106 60.256C83.0106 59.9329 83.0106 59.6076 83.0106 59.2725C83.1413 59.2725 83.2428 59.2725 83.3579 59.2725C83.3579 60.062 83.3579 60.8437 83.3579 61.6255C83.2462 61.6234 83.1346 61.6215 83.0229 61.6193C83.0229 61.2826 83.0229 60.9456 83.0229 60.595C82.568 60.595 82.1364 60.595 81.6787 60.595C81.6728 60.935 81.6668 61.2775 81.6606 61.62Z" fill="#1F1F20"/>
<path fill-rule="evenodd" clip-rule="evenodd" d="M69.9482 61.6353C69.8433 61.6336 69.7386 61.6319 69.6338 61.6302C69.6338 60.8533 69.6338 60.0761 69.6338 59.2808C69.7344 59.2808 69.8338 59.2808 69.954 59.2808C69.954 59.5971 69.954 59.9168 69.954 60.2541C70.4147 60.2541 70.8557 60.2541 71.3178 60.2541C71.3178 59.9353 71.3178 59.6157 71.3178 59.2798C71.4384 59.2798 71.5394 59.2798 71.6736 59.2798C71.6736 60.0567 71.6736 60.8394 71.6736 61.6221C71.5576 61.6219 71.4417 61.6217 71.3257 61.6215C71.3257 61.2843 71.3257 60.947 71.3257 60.5957C70.8693 60.5957 70.4298 60.5957 69.9748 60.5957C69.9658 60.9464 69.9569 61.2909 69.9482 61.6353Z" fill="#1F1F20"/>
<path fill-rule="evenodd" clip-rule="evenodd" d="M62.3608 61.6246C61.7861 61.6255 61.2114 61.6264 60.6367 61.6272C60.6367 60.8506 60.6367 60.0738 60.6367 59.2798C61.1908 59.2798 61.7382 59.2798 62.3065 59.2798C62.3102 59.3588 62.3139 59.441 62.3186 59.5438C61.8757 59.5438 61.4488 59.5438 61.0045 59.5438C61.0045 59.7872 61.0045 60.0111 61.0045 60.2605C61.3723 60.2605 61.7537 60.2605 62.1515 60.2605C62.1515 60.3741 62.1515 60.4636 62.1515 60.571C61.7712 60.571 61.3968 60.571 61.0047 60.571C61.0047 60.8258 61.0047 61.0635 61.0047 61.3239C61.4508 61.3239 61.8946 61.3239 62.3608 61.3239C62.3608 61.4385 62.3608 61.5316 62.3608 61.6246Z" fill="#1F1F20"/>
<path fill-rule="evenodd" clip-rule="evenodd" d="M74.147 61.6207C73.5727 61.6234 72.9981 61.6261 72.4238 61.6286C72.4238 60.8517 72.4238 60.0747 72.4238 59.2798C72.9731 59.2798 73.5205 59.2798 74.0897 59.2798C74.0938 59.3567 74.0984 59.4386 74.1045 59.5492C73.6545 59.5492 73.2208 59.5492 72.771 59.5492C72.771 59.7997 72.771 60.0231 72.771 60.2655C73.1499 60.2655 73.5337 60.2655 73.9349 60.2655C73.9349 60.3725 73.9349 60.4616 73.9349 60.5733C73.5475 60.5733 73.1648 60.5733 72.7682 60.5733C72.7682 60.827 72.7682 61.0593 72.7682 61.3179C73.2155 61.3179 73.6673 61.3179 74.1469 61.3179C74.147 61.4352 74.147 61.5279 74.147 61.6207Z" fill="#1F1F20"/>
<path fill-rule="evenodd" clip-rule="evenodd" d="M76.8382 61.6281C76.7201 61.6257 76.6019 61.6233 76.4836 61.6209C76.405 61.437 76.3265 61.253 76.2428 61.0567C75.8265 61.0567 75.4097 61.0567 74.9749 61.0567C74.894 61.2432 74.8114 61.4331 74.7287 61.6232C74.6102 61.6245 74.4917 61.6255 74.373 61.6265C74.6605 60.9831 74.9475 60.3397 75.2355 59.6965C75.2992 59.554 75.366 59.4128 75.4327 59.2686C75.5453 59.2686 75.6493 59.2686 75.7695 59.2686C75.7866 59.2935 75.816 59.3255 75.8333 59.3633C76.1549 60.0686 76.4753 60.7744 76.7947 61.4808C76.8154 61.5272 76.8239 61.579 76.8382 61.6281ZM76.1039 60.7453C75.9312 60.3551 75.7766 60.0059 75.6064 59.6218C75.4351 60.0127 75.2793 60.3678 75.1137 60.7453C75.4557 60.7453 75.7592 60.7453 76.1039 60.7453Z" fill="#1F1F20"/>
<path fill-rule="evenodd" clip-rule="evenodd" d="M5.67754 61.6204C5.56614 61.6324 5.45485 61.6443 5.32711 61.658C5.23138 61.4525 5.14049 61.2573 5.04575 61.0541C4.63369 61.0541 4.22427 61.0541 3.79324 61.0541C3.70683 61.2421 3.61681 61.4381 3.51812 61.6528C3.4144 61.6528 3.31034 61.6528 3.20639 61.6528C3.20595 61.6201 3.19466 61.5825 3.20673 61.5555C3.54959 60.794 3.89477 60.0336 4.24093 59.2705C4.36483 59.2705 4.47667 59.2705 4.5986 59.2705C4.95902 60.0554 5.31822 60.8379 5.67754 61.6204ZM3.9269 60.7416C4.26659 60.7416 4.57448 60.7416 4.91483 60.7416C4.74926 60.3694 4.59433 60.0213 4.41779 59.6245C4.2395 60.0303 4.08731 60.3765 3.9269 60.7416Z" fill="#1F1F20"/>
<path fill-rule="evenodd" clip-rule="evenodd" d="M16.3675 61.6316C16.2623 61.6327 16.1572 61.6338 16.0518 61.6346C16.0465 61.1287 16.0402 60.6228 16.0362 60.1169C16.034 59.8383 16.0359 59.5596 16.0359 59.2764C16.605 59.2764 17.1539 59.2764 17.7125 59.2764C17.7125 59.3653 17.7125 59.4408 17.7125 59.5446C17.2754 59.5446 16.8416 59.5446 16.3933 59.5446C16.3933 59.8296 16.3933 60.0871 16.3933 60.3655C16.7778 60.3655 17.1598 60.3655 17.5585 60.3655C17.5585 60.4744 17.5585 60.5637 17.5585 60.6758C17.1723 60.6758 16.79 60.6758 16.387 60.6758C16.3801 61.0087 16.3738 61.3202 16.3675 61.6316Z" fill="#1F1F20"/>
<path fill-rule="evenodd" clip-rule="evenodd" d="M78.8768 61.6184C78.3385 61.6237 77.8001 61.6289 77.2618 61.634C77.2566 61.1291 77.2503 60.6241 77.2462 60.1191C77.244 59.8422 77.2459 59.5653 77.2459 59.2764C77.3589 59.2764 77.4526 59.2764 77.5728 59.2764C77.5728 59.9438 77.5728 60.6187 77.5728 61.3185C78.0133 61.3185 78.4284 61.3185 78.8768 61.3185C78.8768 61.4341 78.8768 61.5263 78.8768 61.6184Z" fill="#1F1F20"/>
<path fill-rule="evenodd" clip-rule="evenodd" d="M54.8768 61.6184C54.3386 61.6237 53.8002 61.6289 53.2618 61.634C53.2564 61.1291 53.2502 60.6241 53.2462 60.1191C53.244 59.8422 53.2459 59.5653 53.2459 59.2764C53.3589 59.2764 53.4525 59.2764 53.5728 59.2764C53.5728 59.9438 53.5728 60.6187 53.5728 61.3185C54.0133 61.3185 54.4284 61.3185 54.8767 61.3185C54.8768 61.4341 54.8768 61.5263 54.8768 61.6184Z" fill="#1F1F20"/>
<path fill-rule="evenodd" clip-rule="evenodd" d="M85.3841 54.9957C85.3861 55.2748 85.1891 55.4863 84.9231 55.491C84.6492 55.4959 84.4258 55.2726 84.4277 54.9959C84.4297 54.7311 84.6438 54.5164 84.9098 54.5127C85.1756 54.5089 85.3823 54.7193 85.3841 54.9957Z" fill="#1F1F20"/>
<path fill-rule="evenodd" clip-rule="evenodd" d="M65.7696 60.0428C65.7016 60.0428 65.6439 60.0428 65.5595 60.0428C65.5954 59.8784 65.628 59.7283 65.6639 59.5631C65.6443 59.5406 65.6152 59.51 65.5893 59.4767C65.5084 59.3722 65.5013 59.2515 65.6003 59.1728C65.6631 59.1226 65.7769 59.108 65.8616 59.1204C65.9631 59.1355 66.0171 59.2687 65.9886 59.4006C65.965 59.5107 65.9247 59.6174 65.8879 59.7243C65.8515 59.8302 65.8102 59.9343 65.7696 60.0428Z" fill="#1F1F20"/>
<path fill-rule="evenodd" clip-rule="evenodd" d="M39.4928 60.0669C39.5387 59.8642 39.5711 59.7204 39.6059 59.5669C39.5747 59.526 39.533 59.4817 39.5036 59.4305C39.4493 59.3357 39.4622 59.2306 39.5424 59.1699C39.603 59.1242 39.7102 59.0938 39.7771 59.1156C39.843 59.1372 39.9381 59.2444 39.9276 59.2947C39.8764 59.539 39.7999 59.779 39.7156 60.0145C39.7044 60.0464 39.5977 60.0441 39.4928 60.0669Z" fill="#1F1F20"/>
<path fill-rule="evenodd" clip-rule="evenodd" d="M26.2548 46.1538C26.2999 46.1546 26.3449 46.1553 26.3899 46.1561C26.2327 46.3293 26.1034 46.5306 25.8613 46.6734C25.9138 46.4699 26.0273 46.3606 26.1588 46.2644C26.2462 46.2908 26.2624 46.2733 26.2617 46.1523L26.2548 46.1538Z" fill="#79C917"/>
<path fill-rule="evenodd" clip-rule="evenodd" d="M48.7476 32.1502C48.708 32.1497 48.6683 32.1491 48.6289 32.1486C48.6665 31.9977 48.7303 31.8643 48.8886 31.7549C48.8897 31.9252 48.8439 32.0462 48.7476 32.1502Z" fill="#79C917"/>
<path fill-rule="evenodd" clip-rule="evenodd" d="M33.5742 43.6333C33.5944 43.6536 33.6148 43.6736 33.6351 43.694C33.5795 43.7445 33.5238 43.795 33.4682 43.8454C33.4534 43.8331 33.4387 43.8208 33.4238 43.8085C33.4739 43.75 33.524 43.6917 33.5742 43.6333Z" fill="#79C917"/>
<path fill-rule="evenodd" clip-rule="evenodd" d="M26.2609 46.1523C26.2617 46.2733 26.2456 46.291 26.1582 46.2644C26.1925 46.227 26.2267 46.1896 26.2609 46.1523Z" fill="#039740"/>
<path fill-rule="evenodd" clip-rule="evenodd" d="M33.418 60.0561C33.4412 60.0439 33.4646 60.0317 33.488 60.0195C33.4646 60.0316 33.4413 60.0437 33.418 60.0561Z" fill="#1F1F20"/>
</g>
<defs>
<clipPath id="clip0">
<rect width="86" height="63" fill="white"/>
</clipPath>
</defs>
</svg>
