<svg width="22" height="8" viewBox="0 0 22 8" fill="none" xmlns="http://www.w3.org/2000/svg">
<path d="M20 1C20 0.447715 20.4477 0 21 0C21.5523 0 22 0.447715 22 1C22 1.55228 21.5523 2 21 2C20.4477 2 20 1.55228 20 1Z" fill="#FF838F"/>
<path d="M0 1C0 0.447715 0.447715 0 1 0H16C16.5523 0 17 0.447715 17 1C17 1.55228 16.5523 2 16 2H1C0.447715 2 0 1.55228 0 1Z" fill="#FF838F"/>
<path d="M20 7C20 6.44772 20.4477 6 21 6C21.5523 6 22 6.44772 22 7C22 7.55228 21.5523 8 21 8C20.4477 8 20 7.55228 20 7Z" fill="#FF838F"/>
<path d="M6 7C6 6.44772 6.44772 6 7 6H16C16.5523 6 17 6.44772 17 7C17 7.55228 16.5523 8 16 8H7C6.44771 8 6 7.55228 6 7Z" fill="#FF838F"/>
</svg>
