<svg width="16" height="15" viewBox="0 0 16 15" fill="none" xmlns="http://www.w3.org/2000/svg">
<path d="M3.35279 0C3.07307 0 2.84555 0.227552 2.84555 0.507242V1.66668V2.89859C2.84555 3.17831 3.07307 3.40583 3.35279 3.40583H3.78759C4.06731 3.40583 4.29483 3.17828 4.29483 2.89859V1.66668V0.507242C4.29483 0.227552 4.06731 0 3.78756 0H3.35279Z" fill="#0F4E8C"/>
<path d="M11.3239 0C11.0442 0 10.8167 0.227552 10.8167 0.507242V1.66668V2.89859C10.8167 3.17831 11.0442 3.40583 11.3239 3.40583H11.7587C12.0384 3.40583 12.266 3.17828 12.266 2.89859V1.66668V0.507242C12.266 0.227552 12.0384 0 11.7587 0H11.3239Z" fill="#0F4E8C"/>
<path d="M1.17884 15H14.9824C14.996 14.5171 14.9641 14.033 14.9955 13.5507H2.19336C1.71306 13.5507 1.32377 13.1614 1.32377 12.6811V5.72453H13.7877V15C13.8553 14.9965 14.7882 15 15.0921 15V2.82594C15.0921 2.18563 14.5729 1.6665 13.9326 1.6665H12.9906V2.89842C12.9906 3.57771 12.438 4.13033 11.7587 4.13033H11.3239C10.6446 4.13033 10.092 3.57771 10.092 2.89842V1.6665H5.01947V2.89842C5.01947 3.57771 4.46685 4.13033 3.78756 4.13033H3.35276C2.67347 4.13033 2.12085 3.57771 2.12085 2.89842V1.6665H1.17884C0.538533 1.6665 0.0194092 2.18566 0.0194092 2.82594V13.8406C0.0194092 14.4809 0.538533 15 1.17884 15Z" fill="#0F4E8C"/>
<path d="M4.10468 9.04897C4.74007 9.04897 5.25515 8.53389 5.25515 7.89851C5.25515 7.26313 4.74007 6.74805 4.10468 6.74805C3.4693 6.74805 2.95422 7.26313 2.95422 7.89851C2.95422 8.53389 3.4693 9.04897 4.10468 9.04897Z" fill="#0F4E8C"/>
<path d="M7.55574 9.04897C8.19113 9.04897 8.70621 8.53389 8.70621 7.89851C8.70621 7.26313 8.19113 6.74805 7.55574 6.74805C6.92036 6.74805 6.40528 7.26313 6.40528 7.89851C6.40528 8.53389 6.92036 9.04897 7.55574 9.04897Z" fill="#0F4E8C"/>
<path d="M11.0068 9.04897C11.6422 9.04897 12.1573 8.53389 12.1573 7.89851C12.1573 7.26313 11.6422 6.74805 11.0068 6.74805C10.3714 6.74805 9.85637 7.26313 9.85637 7.89851C9.85637 8.53389 10.3714 9.04897 11.0068 9.04897Z" fill="#0F4E8C"/>
<path d="M11.0068 12.1945C11.6422 12.1945 12.1573 11.6794 12.1573 11.044C12.1573 10.4086 11.6422 9.89355 11.0068 9.89355C10.3714 9.89355 9.85637 10.4086 9.85637 11.044C9.85637 11.6794 10.3714 12.1945 11.0068 12.1945Z" fill="#0F4E8C"/>
<path d="M7.55574 12.1944C8.19111 12.1944 8.70618 11.6793 8.70618 11.044C8.70618 10.4086 8.19111 9.89355 7.55574 9.89355C6.92038 9.89355 6.40531 10.4086 6.40531 11.044C6.40531 11.6793 6.92038 12.1944 7.55574 12.1944Z" fill="#0F4E8C"/>
<path d="M4.10469 12.1944C4.74006 12.1944 5.25513 11.6793 5.25513 11.044C5.25513 10.4086 4.74006 9.89355 4.10469 9.89355C3.46932 9.89355 2.95425 10.4086 2.95425 11.044C2.95425 11.6793 3.46932 12.1944 4.10469 12.1944Z" fill="#0F4E8C"/>
</svg>
