<svg width="11" height="11" viewBox="0 0 11 11" fill="none" xmlns="http://www.w3.org/2000/svg">
<path d="M10.7115 8.07288L9.17324 6.5378C8.62384 5.98956 7.68986 6.20888 7.4701 6.92157C7.30529 7.41501 6.75589 7.68913 6.26143 7.57946C5.16264 7.30534 3.67926 5.87991 3.40456 4.7286C3.23974 4.23516 3.56938 3.68691 4.06384 3.52246C4.77806 3.30317 4.99782 2.37115 4.44842 1.82291L2.91011 0.287828C2.47059 -0.0959426 1.81131 -0.0959426 1.42673 0.287828L0.382879 1.32949C-0.660976 2.42598 0.492758 5.33167 3.07493 7.90841C5.65709 10.4852 8.5689 11.6913 9.66769 10.5948L10.7115 9.55314C11.0961 9.11454 11.0961 8.45665 10.7115 8.07288Z" fill="#FF838F"/>
</svg>
