<svg width="52" height="41" viewBox="0 0 52 41" fill="none" xmlns="http://www.w3.org/2000/svg">
<path d="M15.2407 0C17.1126 0 18.5274 1.69545 18.1922 3.53711L15.9226 16.0094C15.5954 17.8076 16.9768 19.463 18.8045 19.463C20.4223 19.463 21.7337 20.7745 21.7337 22.3923V38C21.7337 39.6569 20.3906 41 18.7337 41H3C1.34314 41 0 39.6569 0 38V19.5881C0 19.2936 0.0433639 19.0007 0.128696 18.7189L5.1506 2.13074C5.53367 0.865418 6.69987 0 8.02191 0H15.2407ZM45.507 0C47.3789 0 48.7936 1.69545 48.4585 3.53711L46.1889 16.0094C45.8616 17.8076 47.243 19.463 49.0708 19.463C50.6885 19.463 52 20.7745 52 22.3923V38C52 39.6569 50.6569 41 49 41H33.2663C31.6094 41 30.2663 39.6569 30.2663 38V19.5881C30.2663 19.2936 30.3096 19.0007 30.395 18.7189L35.4169 2.13074C35.7999 0.865418 36.9661 0 38.2882 0H45.507Z" fill="white"/>
</svg>
