<svg width="104" height="76" viewBox="0 0 104 76" fill="none" xmlns="http://www.w3.org/2000/svg">
<g clip-path="url(#clip0)">
<path fill-rule="evenodd" clip-rule="evenodd" d="M104 9.4169C103.488 9.97874 102.977 10.5412 102.464 11.1021C100.794 12.9277 99.1239 14.7531 97.4518 16.5765C97.3544 16.6827 97.2386 16.7722 97.1113 16.8877C97.0125 16.745 96.9356 16.6341 96.8593 16.5228C96.1837 15.54 95.3558 14.7266 94.2662 14.2002C93.3941 13.7789 92.4663 13.5873 91.5057 13.5329C88.8535 13.3829 86.702 14.4064 84.9143 16.3006C83.3414 17.9672 82.1788 19.8901 81.2818 21.9817C80.3339 24.1924 79.6975 26.4925 79.2956 28.8598C78.942 30.943 78.7047 33.0353 78.8018 35.1527C78.882 36.905 79.1947 38.6069 79.9613 40.2031C80.4702 41.2626 81.1362 42.2051 82.0836 42.9286C83.1641 43.7536 84.3945 44.1396 85.7485 44.1754C87.2087 44.2144 88.6227 44.0136 89.9642 43.4121C90.051 43.373 90.1358 43.3289 90.2234 43.2915C90.5786 43.1402 90.7532 42.864 90.817 42.4924C91.0253 41.2776 91.2392 40.0635 91.4572 38.8504C91.7405 37.2742 92.0295 35.6994 92.3164 34.1238C92.3256 34.072 92.3389 34.0208 92.346 33.9686C92.3924 33.6289 92.3543 33.5856 92.0046 33.5855C90.1485 33.5849 88.2924 33.5859 86.4363 33.583C86.3129 33.5828 86.1894 33.5559 86.0271 33.5368C86.0635 33.2936 86.09 33.0784 86.1284 32.8655C86.5945 30.2838 87.0618 27.7025 87.5298 25.1213C87.627 24.5836 87.6683 24.5502 88.2064 24.5501C92.9585 24.5483 97.7102 24.5467 102.462 24.5452C102.632 24.5452 102.802 24.5425 102.971 24.5518C103.202 24.5648 103.247 24.6214 103.207 24.8527C103.06 25.704 102.909 26.5546 102.76 27.4056C102.473 29.0453 102.185 30.6849 101.9 32.3249C101.594 34.0894 101.291 35.8546 100.984 37.6191C100.678 39.3732 100.368 41.1265 100.061 42.8803C99.7099 44.883 99.3597 46.8861 99.01 48.8891C98.9811 49.0552 98.9468 49.2211 98.933 49.3886C98.8994 49.7925 98.687 50.0797 98.3483 50.2771C97.7634 50.6179 97.1826 50.9679 96.5821 51.2797C94.6581 52.2789 92.6453 53.0448 90.5182 53.4972C89.3028 53.7558 88.0721 53.913 86.8316 53.9574C85.805 53.9941 84.773 54.0209 83.7486 53.961C80.7411 53.785 77.9344 52.9557 75.4242 51.2566C73.2383 49.7772 71.6615 47.7848 70.517 45.4339C69.6979 43.7514 69.1874 41.9756 68.8641 40.1399C68.4801 37.958 68.3918 35.758 68.502 33.5529C68.733 28.921 69.6079 24.418 71.3396 20.0968C72.507 17.1837 73.981 14.4396 75.9251 11.9594C77.8624 9.48781 80.1602 7.41804 82.8916 5.84004C84.8206 4.7255 86.8939 4.02155 89.1066 3.73504C90.5202 3.55203 91.9389 3.54227 93.3607 3.63588C94.5481 3.71407 95.7239 3.86017 96.875 4.16514C99.2972 4.80698 101.412 5.96939 103.091 7.84932C103.379 8.1717 103.627 8.52888 103.895 8.8688C103.926 8.90742 103.965 8.93894 104 8.9737C104 9.12155 104 9.26917 104 9.4169Z" fill="#79C917"/>
<path fill-rule="evenodd" clip-rule="evenodd" d="M0.000265304 48.5913C0.0816808 48.5141 0.173571 48.4455 0.243053 48.3587C2.12608 46.0075 4.00646 43.6544 5.88803 41.3019C6.16159 40.9599 6.17219 40.9732 6.47717 41.2913C7.10198 41.9432 7.81045 42.4966 8.58005 42.9705C10.1858 43.9593 11.9302 44.4967 13.8234 44.4691C15.7719 44.4407 17.3834 43.6643 18.5953 42.1429C19.4881 41.0225 19.8432 39.7185 19.7502 38.2945C19.6448 36.6855 18.9373 35.374 17.7587 34.2891C16.9294 33.5256 16.0098 32.8902 15.0461 32.3086C14.095 31.7345 13.1358 31.1697 12.2197 30.5437C10.6198 29.4503 9.27752 28.0972 8.27375 26.432C7.32049 24.8505 6.77339 23.1357 6.60765 21.3023C6.37269 18.7039 6.61971 16.1549 7.57615 13.7156C9.5516 8.67667 13.1413 5.39846 18.4395 4.03525C20.3083 3.55439 22.2115 3.33472 24.1409 3.4137C27.2392 3.54067 30.1658 4.30727 32.877 5.82527C33.7591 6.31918 34.5511 6.93769 35.2631 7.65495C35.3376 7.72998 35.4126 7.80501 35.4823 7.88425C35.6803 8.10905 35.6794 8.1349 35.4915 8.36234C34.232 9.88577 32.9726 11.4094 31.7131 12.933C31.0666 13.7152 30.4205 14.4975 29.7731 15.2791C29.6867 15.3834 29.5951 15.4832 29.4859 15.6079C29.357 15.4803 29.2455 15.371 29.1351 15.2607C27.8889 14.016 26.4026 13.2064 24.6698 12.8669C23.2514 12.5891 21.8522 12.6604 20.5391 13.3071C18.6973 14.2139 17.5359 15.6872 17.2233 17.7077C16.9118 19.722 17.4961 21.458 19.1561 22.7674C20.1729 23.5694 21.2704 24.2459 22.3753 24.9154C23.7813 25.7672 25.1318 26.6953 26.3342 27.8228C28.2896 29.6561 29.6401 31.8417 30.2584 34.4563C30.4782 35.3851 30.5475 36.329 30.5559 37.2804C30.5727 39.21 30.3915 41.1141 29.7888 42.9585C28.9616 45.4892 27.6423 47.721 25.6733 49.549C24.0592 51.0474 22.1781 52.0983 20.107 52.8315C17.9547 53.5936 15.7329 53.8995 13.4541 53.869C10.9525 53.8356 8.51733 53.4466 6.16941 52.574C4.53447 51.9663 2.97631 51.2056 1.57872 50.155C1.08094 49.7807 0.626793 49.3492 0.151427 48.9451C0.105548 48.906 0.0507851 48.8774 0 48.844C0.000265197 48.7601 0.000265304 48.6757 0.000265304 48.5913Z" fill="#79C917"/>
<path fill-rule="evenodd" clip-rule="evenodd" d="M59.5108 -0.140137C59.5132 -0.0891116 59.5043 -0.0345296 59.5196 0.0122794C59.9809 1.42559 60.0549 2.88374 60.037 4.35374C60.0052 6.9847 59.5092 9.54417 58.8441 12.0779C58.526 13.2901 58.2031 14.5009 57.7306 15.6658C57.4286 16.4097 57.0692 17.1246 56.65 17.8098C56.4564 18.1263 56.3829 18.1624 56.0287 18.0431C55.5484 17.8813 55.0741 17.7017 54.598 17.5274C54.5499 17.5099 54.5077 17.476 54.4346 17.4333C54.4782 17.3061 54.5097 17.1753 54.5657 17.0561C55.9989 14.0102 57.2577 10.8976 58.201 7.66413C58.662 6.08442 59.0315 4.48468 59.2324 2.85103C59.3508 1.88945 59.4601 0.924299 59.3378 -0.0473142C59.3339 -0.0784293 59.3259 -0.109022 59.3197 -0.14C59.3835 -0.140137 59.4471 -0.140137 59.5108 -0.140137Z" fill="#039740"/>
<path fill-rule="evenodd" clip-rule="evenodd" d="M11.6562 74.3405C11.6562 73.4041 11.6562 72.4676 11.6562 71.5254C11.8801 71.4459 12.0301 71.4992 12.1751 71.6863C12.6017 72.2369 13.0478 72.7724 13.4868 73.3133C13.5388 73.3774 13.5941 73.4389 13.6669 73.5238C13.7801 73.2973 13.7124 73.0781 13.7235 72.8693C13.7358 72.6382 13.7263 72.4056 13.7263 72.174C13.7263 71.9543 13.7263 71.7343 13.7263 71.5036C13.8662 71.5036 13.9812 71.5036 14.119 71.5036C14.1246 71.579 14.1356 71.6597 14.1357 71.7403C14.137 72.5304 14.1349 73.3206 14.1382 74.1109C14.1388 74.2373 14.1354 74.3522 14.0022 74.4149C13.9385 74.4149 13.8749 74.4149 13.8112 74.4149C13.7662 74.3448 13.7271 74.2698 13.675 74.2053C13.2118 73.6307 12.7465 73.0578 12.2816 72.4845C12.232 72.4235 12.1813 72.3636 12.131 72.3031C12.1141 72.3109 12.0972 72.3185 12.0804 72.3262C12.0804 72.9965 12.0804 73.6666 12.0804 74.3369C11.9391 74.3381 11.7977 74.3394 11.6562 74.3405Z" fill="#1F1F20"/>
<path fill-rule="evenodd" clip-rule="evenodd" d="M22.9762 74.4152C22.9204 74.3771 22.8699 74.3213 22.8083 74.304C22.1773 74.1269 21.6033 73.4456 21.8627 72.4893C22.0628 71.7521 22.8417 71.3211 23.639 71.4779C24.276 71.6031 24.7118 72.0109 24.8304 72.592C24.9561 73.2081 24.7382 73.7875 24.2452 74.1148C24.1243 74.195 23.9793 74.2387 23.8496 74.3073C23.8061 74.3304 23.7761 74.3785 23.7399 74.4149C23.4854 74.4152 23.2308 74.4152 22.9762 74.4152ZM24.4429 72.9264C24.4484 72.3045 23.9709 71.8253 23.3428 71.8221C22.7125 71.8191 22.2258 72.2898 22.2197 72.9083C22.2137 73.5251 22.6921 74.004 23.3243 74.014C23.9494 74.0238 24.4376 73.5491 24.4429 72.9264Z" fill="#1F1F20"/>
<path fill-rule="evenodd" clip-rule="evenodd" d="M35.2608 74.4143C35.247 74.2656 35.1092 74.3059 35.0274 74.2713C34.4555 74.0294 34.105 73.4975 34.1206 72.8785C34.1362 72.2593 34.5118 71.7476 35.1019 71.5416C35.9695 71.2387 36.8767 71.6597 37.1263 72.4815C37.3562 73.2377 36.9871 73.9958 36.2523 74.2849C36.1718 74.3165 36.1003 74.3707 36.0246 74.4143C35.77 74.4143 35.5155 74.4143 35.2608 74.4143ZM34.5519 72.9021C34.545 73.5304 35.0063 73.9999 35.6437 74.0131C36.2635 74.0259 36.7619 73.549 36.7747 72.9313C36.7875 72.324 36.2936 71.8264 35.6727 71.8209C35.0372 71.8155 34.559 72.2766 34.5519 72.9021Z" fill="#1F1F20"/>
<path fill-rule="evenodd" clip-rule="evenodd" d="M53.0818 74.4152C53.0241 74.3714 52.972 74.3163 52.9077 74.2856C52.3505 74.0175 52.2671 73.4392 52.7335 73.0289C52.8432 72.9321 52.9682 72.8521 53.0995 72.7545C53.0301 72.6596 52.9572 72.5733 52.8993 72.478C52.6447 72.0597 52.8297 71.6006 53.3085 71.499C53.4784 71.4631 53.6698 71.4627 53.8387 71.5011C54.2826 71.6021 54.4445 72.0897 54.1531 72.44C54.0344 72.583 53.8709 72.6894 53.7135 72.8248C53.9236 73.0292 54.141 73.2402 54.3888 73.4812C54.4543 73.3151 54.5128 73.1672 54.58 72.9965C54.6813 73.0306 54.776 73.0624 54.8979 73.1036C54.8156 73.3326 54.7416 73.538 54.6471 73.8011C54.7562 73.8819 54.8925 73.9829 55.0053 74.0667C54.9442 74.2174 54.904 74.3165 54.8639 74.4156C54.8215 74.4156 54.7788 74.4156 54.7365 74.4156C54.6364 74.2867 54.5363 74.1582 54.4474 74.0437C54.1805 74.1797 53.9493 74.2977 53.7181 74.4156C53.506 74.4153 53.2939 74.4152 53.0818 74.4152ZM53.3579 72.9832C53.2529 73.0509 53.1717 73.0984 53.096 73.1534C53.045 73.1903 52.9961 73.233 52.956 73.2811C52.7396 73.5409 52.8108 73.8381 53.1204 73.9781C53.4504 74.1275 53.8581 74.0452 54.1205 73.7838C53.8743 73.5254 53.628 73.2668 53.3579 72.9832ZM53.4444 72.5961C53.5874 72.4937 53.714 72.4201 53.8192 72.3235C53.9704 72.1847 53.9863 72.0073 53.8808 71.8775C53.7784 71.7516 53.5307 71.7159 53.3586 71.8025C53.1912 71.8865 53.1169 72.0451 53.1952 72.2182C53.2529 72.3459 53.3501 72.4561 53.4444 72.5961Z" fill="#1F1F20"/>
<path fill-rule="evenodd" clip-rule="evenodd" d="M15.9761 74.4146C15.9188 74.3769 15.8661 74.3272 15.8036 74.3031C15.0692 74.0205 14.7206 73.458 14.8163 72.7017C14.9024 72.0207 15.4267 71.5359 16.1668 71.4515C16.5403 71.409 17.1901 71.5295 17.4262 71.8904C17.3509 71.9719 17.2757 72.0531 17.2021 72.1329C16.5296 71.7086 15.918 71.7296 15.4978 72.186C15.1402 72.5742 15.1293 73.1914 15.4628 73.6085C15.8021 74.0329 16.5404 74.1398 17.0171 73.8134C17.0171 73.5306 17.0171 73.2285 17.0171 72.9104C17.1644 72.9104 17.2848 72.9104 17.4315 72.9104C17.4315 73.2544 17.4368 73.5896 17.4266 73.9241C17.4249 73.9838 17.3734 74.0646 17.3209 74.0957C17.1862 74.1757 17.0363 74.2302 16.8961 74.3014C16.8395 74.3303 16.7916 74.3764 16.7398 74.4146C16.4853 74.4146 16.2307 74.4146 15.9761 74.4146Z" fill="#1F1F20"/>
<path fill-rule="evenodd" clip-rule="evenodd" d="M49.3903 74.4133C49.3155 74.3707 49.2423 74.3248 49.1656 74.2859C49.0085 74.2063 48.8494 74.1306 48.6729 74.0442C48.7313 73.9198 48.7743 73.8276 48.8143 73.7429C49.068 73.8329 49.3047 73.9475 49.5544 73.9956C49.7439 74.0323 49.9547 74.0072 50.1476 73.9687C50.376 73.923 50.4778 73.7876 50.4868 73.6083C50.4971 73.4034 50.3668 73.2986 50.2016 73.2366C50.0346 73.1735 49.8575 73.1367 49.6858 73.0854C49.524 73.0373 49.3574 72.9992 49.2042 72.9319C48.92 72.8075 48.749 72.5941 48.7533 72.2703C48.7577 71.9415 48.9172 71.7005 49.2144 71.5754C49.7461 71.3516 50.2643 71.4185 50.7899 71.6916C50.7432 71.8086 50.7029 71.9094 50.654 72.032C50.3485 71.8766 50.0499 71.7753 49.7264 71.82C49.6038 71.8371 49.473 71.8658 49.3682 71.9271C49.1014 72.083 49.1059 72.414 49.3749 72.5637C49.4926 72.6291 49.6298 72.6622 49.7605 72.7022C49.9722 72.767 50.1888 72.8164 50.3978 72.8886C50.7037 72.9941 50.897 73.1992 50.9122 73.5364C50.9266 73.8575 50.7435 74.1228 50.4156 74.2764C50.3437 74.3101 50.2205 74.2788 50.2179 74.4134C49.9419 74.4133 49.6661 74.4133 49.3903 74.4133Z" fill="#1F1F20"/>
<path fill-rule="evenodd" clip-rule="evenodd" d="M80.8962 74.4138C80.8327 74.3732 80.7722 74.3267 80.7052 74.2938C80.5382 74.212 80.3681 74.1363 80.1777 74.0482C80.2417 73.9186 80.2867 73.8275 80.3277 73.7448C80.5785 73.8338 80.8154 73.9482 81.0655 73.9966C81.2551 74.0331 81.4655 74.0077 81.6585 73.9698C81.882 73.926 81.9903 73.7848 81.9985 73.6086C82.0082 73.4046 81.8774 73.2988 81.7127 73.2366C81.5456 73.1733 81.3681 73.1377 81.1965 73.0862C81.035 73.038 80.8696 72.9971 80.7153 72.9314C80.4284 72.8092 80.2604 72.5939 80.2638 72.2715C80.2673 71.9431 80.4281 71.7029 80.7248 71.5766C81.2562 71.3503 81.7738 71.4191 82.2999 71.6934C82.254 71.8088 82.2138 71.9096 82.1645 72.0336C81.8596 71.8746 81.5601 71.7775 81.2373 71.8205C81.1145 71.8369 80.9837 71.8661 80.8789 71.9273C80.6122 72.083 80.6137 72.4226 80.8887 72.5619C81.074 72.6557 81.2866 72.6965 81.4877 72.7596C81.6485 72.8103 81.8161 72.8448 81.97 72.911C82.2414 73.0281 82.4162 73.2268 82.4205 73.5387C82.4247 73.8528 82.2768 74.0731 82.0101 74.2362C81.9149 74.2942 81.7575 74.2593 81.7238 74.4138C81.4479 74.4138 81.172 74.4138 80.8962 74.4138Z" fill="#1F1F20"/>
<path fill-rule="evenodd" clip-rule="evenodd" d="M2.16438 74.4134C2.08455 74.3646 2.00964 74.3044 1.92424 74.2683C1.07164 73.9078 0.756716 72.8626 1.27159 72.0925C1.78635 71.3224 3.01195 71.2157 3.63927 71.9043C3.5641 71.9835 3.48732 72.0642 3.3998 72.1563C3.10451 71.9101 2.7803 71.7719 2.39948 71.8338C2.13123 71.8774 1.89547 71.9893 1.71395 72.199C1.36986 72.5962 1.3672 73.2297 1.70904 73.6251C2.11307 74.0925 2.72077 74.1177 3.40232 73.6885C3.44635 73.7277 3.49461 73.7674 3.53877 73.811C3.57549 73.8473 3.60732 73.8886 3.67388 73.9651C3.47816 74.0795 3.2993 74.1832 3.1216 74.2889C3.05557 74.328 2.99246 74.3718 2.92801 74.4133C2.67356 74.4134 2.41898 74.4134 2.16438 74.4134Z" fill="#1F1F20"/>
<path fill-rule="evenodd" clip-rule="evenodd" d="M57.6013 74.4144C57.5487 74.3756 57.5013 74.3194 57.4422 74.3008C56.692 74.065 56.3108 73.28 56.5003 72.533C56.7005 71.7439 57.4808 71.3606 58.2132 71.4617C58.6043 71.5155 58.8225 71.6355 59.0521 71.8972C58.9781 71.9825 58.9047 72.0674 58.8345 72.1481C58.1584 71.7051 57.5338 71.7313 57.1322 72.2035C56.7755 72.6234 56.7953 73.2841 57.1763 73.6755C57.5962 74.1067 58.224 74.116 58.7973 73.6881C58.8416 73.7203 58.893 73.7526 58.938 73.7922C58.9844 73.8332 59.0244 73.8812 59.1018 73.9624C58.9039 74.0791 58.7253 74.1826 58.5487 74.2891C58.4852 74.3274 58.4261 74.3725 58.365 74.4145C58.1104 74.4144 57.856 74.4144 57.6013 74.4144Z" fill="#1F1F20"/>
<path fill-rule="evenodd" clip-rule="evenodd" d="M96.4895 74.4135C96.4773 74.3014 96.4554 74.1892 96.4548 74.0769C96.4514 73.4447 96.4531 72.8123 96.4531 72.1801C96.4531 72.0776 96.4531 71.9751 96.4531 71.8486C96.1154 71.8486 95.8116 71.8486 95.4833 71.8486C95.4774 71.7262 95.4726 71.627 95.4668 71.5078C96.2631 71.5078 97.0414 71.5078 97.8476 71.5078C97.8524 71.6033 97.8573 71.7023 97.8639 71.8332C97.5297 71.8332 97.217 71.8332 96.8714 71.8332C96.8714 72.7137 96.8714 73.5636 96.8714 74.4134C96.7442 74.4135 96.6169 74.4135 96.4895 74.4135Z" fill="#1F1F20"/>
<path fill-rule="evenodd" clip-rule="evenodd" d="M10.3748 74.415C10.3622 74.3239 10.339 74.2327 10.3388 74.1417C10.336 73.3099 10.337 72.4783 10.3376 71.6466C10.3376 71.606 10.3435 71.5658 10.348 71.5078C10.4789 71.5078 10.6024 71.5078 10.7567 71.5078C10.7567 72.4721 10.7567 73.4435 10.7567 74.415C10.6294 74.415 10.5021 74.415 10.3748 74.415Z" fill="#1F1F20"/>
<path fill-rule="evenodd" clip-rule="evenodd" d="M63.0752 74.4146C63.0752 73.4502 63.0752 72.4858 63.0752 71.5054C63.2091 71.5054 63.332 71.5054 63.4791 71.5054C63.4845 71.5763 63.4939 71.6456 63.4941 71.7148C63.4952 72.5134 63.4961 73.3118 63.493 74.1103C63.4927 74.2119 63.4696 74.3131 63.4571 74.4147C63.3298 74.4146 63.2025 74.4146 63.0752 74.4146Z" fill="#1F1F20"/>
<path fill-rule="evenodd" clip-rule="evenodd" d="M43.9039 74.3374C43.9082 74.363 43.9124 74.3889 43.9169 74.4145C43.2167 74.4145 42.5165 74.4145 41.8164 74.4145C41.8175 74.3919 41.8186 74.3695 41.8195 74.3471C42.5143 74.3439 43.2091 74.3406 43.9039 74.3374Z" fill="#1F1F20"/>
<path fill-rule="evenodd" clip-rule="evenodd" d="M73.3213 74.4138C73.3233 74.3902 73.3253 74.3665 73.3275 74.343C74.0222 74.3418 74.7172 74.3408 75.4123 74.3398C75.4154 74.3645 75.4186 74.3892 75.4218 74.4139C74.7216 74.4138 74.0213 74.4138 73.3213 74.4138Z" fill="#1F1F20"/>
<path fill-rule="evenodd" clip-rule="evenodd" d="M89.6664 74.3354C89.6708 74.3612 89.675 74.387 89.6796 74.413C88.9793 74.413 88.2792 74.413 87.5791 74.413C87.5804 74.3902 87.5815 74.3677 87.5824 74.345C88.277 74.3418 88.9718 74.3385 89.6664 74.3354Z" fill="#1F1F20"/>
<path fill-rule="evenodd" clip-rule="evenodd" d="M64.3477 74.4149C64.3686 74.3938 64.3895 74.3728 64.4104 74.3518C65.0614 74.3455 65.7123 74.3394 66.3634 74.333C66.3706 74.3603 66.3775 74.3876 66.3846 74.4149C65.7056 74.4149 65.0267 74.4149 64.3477 74.4149Z" fill="#1F1F20"/>
<path fill-rule="evenodd" clip-rule="evenodd" d="M95.3859 74.333C95.393 74.3603 95.3998 74.3876 95.4068 74.4149C94.7279 74.4149 94.0491 74.4149 93.3701 74.4149C93.3911 74.3938 93.4119 74.3728 93.4329 74.3518C94.0836 74.3454 94.7347 74.3394 95.3859 74.333Z" fill="#1F1F20"/>
<path fill-rule="evenodd" clip-rule="evenodd" d="M68.3453 74.3372C68.3494 74.363 68.3535 74.3889 68.3576 74.4147C67.8484 74.4147 67.3392 74.4147 66.8301 74.4147C66.8389 74.3852 66.8479 74.3557 66.8568 74.3262C67.353 74.3298 67.8492 74.3336 68.3453 74.3372Z" fill="#1F1F20"/>
<path fill-rule="evenodd" clip-rule="evenodd" d="M30.8015 74.3462C30.8026 74.3689 30.8038 74.3915 30.8049 74.4143C30.6563 74.4143 30.5078 74.4143 30.3594 74.4143C30.3599 74.3922 30.3607 74.3701 30.3614 74.348C30.5082 74.3474 30.6549 74.3468 30.8015 74.3462Z" fill="#1F1F20"/>
<path fill-rule="evenodd" clip-rule="evenodd" d="M7.73595 74.3354C7.74563 74.3616 7.75519 74.3878 7.76487 74.4142C7.61635 74.4142 7.46784 74.4142 7.31934 74.4142C7.32344 74.3902 7.32755 74.3664 7.33167 74.3423C7.46639 74.34 7.60123 74.3377 7.73595 74.3354Z" fill="#1F1F20"/>
<path fill-rule="evenodd" clip-rule="evenodd" d="M9.22852 74.413C9.22984 74.39 9.23129 74.3672 9.23249 74.3442C9.37861 74.3447 9.52473 74.3453 9.67086 74.3457C9.67178 74.3682 9.67298 74.3906 9.67391 74.4132C9.52553 74.413 9.37702 74.413 9.22852 74.413Z" fill="#1F1F20"/>
<path fill-rule="evenodd" clip-rule="evenodd" d="M12.0805 74.3354C12.0846 74.3614 12.0888 74.3875 12.0929 74.4134C11.9445 74.4134 11.796 74.4134 11.6475 74.4134C11.6504 74.3886 11.6534 74.3639 11.6565 74.3391C11.7979 74.3379 11.9392 74.3366 12.0805 74.3354Z" fill="#1F1F20"/>
<path fill-rule="evenodd" clip-rule="evenodd" d="M25.9391 74.3354C25.9487 74.3616 25.9585 74.3878 25.9681 74.4142C25.8195 74.4142 25.671 74.4142 25.5225 74.4142C25.5266 74.3902 25.5308 74.3662 25.5349 74.3423C25.6697 74.3399 25.8044 74.3377 25.9391 74.3354Z" fill="#1F1F20"/>
<path fill-rule="evenodd" clip-rule="evenodd" d="M27.4316 74.4147C27.4336 74.3912 27.4353 74.3678 27.4372 74.3442C27.582 74.3444 27.7268 74.3444 27.8715 74.3445C27.8735 74.368 27.8753 74.3913 27.8772 74.4147C27.7287 74.4147 27.5802 74.4147 27.4316 74.4147Z" fill="#1F1F20"/>
<path fill-rule="evenodd" clip-rule="evenodd" d="M100.372 74.4146C100.381 74.3883 100.391 74.3619 100.4 74.3354C100.535 74.3379 100.67 74.3403 100.805 74.3428C100.809 74.3668 100.813 74.3907 100.818 74.4146C100.669 74.4146 100.521 74.4146 100.372 74.4146Z" fill="#1F1F20"/>
<path fill-rule="evenodd" clip-rule="evenodd" d="M61.7373 74.4141C61.7412 74.3885 61.7453 74.3629 61.7491 74.3374C61.8907 74.3384 62.0326 74.3396 62.1742 74.3406C62.177 74.3651 62.1799 74.3895 62.1828 74.4141C62.0343 74.4141 61.8859 74.4141 61.7373 74.4141Z" fill="#1F1F20"/>
<path fill-rule="evenodd" clip-rule="evenodd" d="M32.333 74.4147C32.3396 74.3874 32.3464 74.3603 32.353 74.333C32.4941 74.3382 32.6353 74.3436 32.7764 74.3488C32.7771 74.3708 32.7779 74.3929 32.7786 74.4147C32.63 74.4147 32.4816 74.4147 32.333 74.4147Z" fill="#1F1F20"/>
<path fill-rule="evenodd" clip-rule="evenodd" d="M86.2422 74.4133C86.2463 74.3874 86.2505 74.3614 86.2546 74.3354C86.395 74.3357 86.5351 74.3359 86.6754 74.3362C86.6796 74.3619 86.6838 74.3876 86.6879 74.4133C86.5392 74.4133 86.3908 74.4133 86.2422 74.4133Z" fill="#1F1F20"/>
<path fill-rule="evenodd" clip-rule="evenodd" d="M90.3707 74.3398C90.3738 74.3647 90.3771 74.3897 90.3801 74.4147C90.2316 74.4147 90.083 74.4147 89.9346 74.4147C89.9366 74.391 89.9386 74.3675 89.9405 74.3437C90.0838 74.3426 90.2271 74.3412 90.3707 74.3398Z" fill="#1F1F20"/>
<path fill-rule="evenodd" clip-rule="evenodd" d="M92.4795 74.4131C92.4836 74.3873 92.4878 74.3612 92.492 74.3354C92.6349 74.3383 92.7779 74.3412 92.9207 74.3441C92.9222 74.367 92.9236 74.39 92.9251 74.413C92.7765 74.4131 92.6281 74.4131 92.4795 74.4131Z" fill="#1F1F20"/>
<path fill-rule="evenodd" clip-rule="evenodd" d="M98.752 74.3354C98.7614 74.3615 98.7711 74.3876 98.7804 74.4139C98.632 74.4139 98.4834 74.4139 98.335 74.4139C98.3391 74.3899 98.3433 74.3659 98.3474 74.3418C98.4823 74.3397 98.6172 74.3376 98.752 74.3354Z" fill="#1F1F20"/>
<path fill-rule="evenodd" clip-rule="evenodd" d="M76.506 74.3521C76.5099 74.3727 76.5096 74.3935 76.5051 74.4138C76.3778 74.4138 76.2504 74.4138 76.123 74.4138C76.1243 74.3913 76.1253 74.3688 76.1262 74.3462C76.2529 74.3484 76.3794 74.3501 76.506 74.3521Z" fill="#1F1F20"/>
<path fill-rule="evenodd" clip-rule="evenodd" d="M78.2236 74.4146C78.226 74.3901 78.2283 74.3659 78.2307 74.3415C78.3515 74.34 78.4724 74.3388 78.5932 74.3374C78.5971 74.363 78.6015 74.3889 78.6056 74.4146C78.4783 74.4146 78.3509 74.4146 78.2236 74.4146Z" fill="#1F1F20"/>
<path fill-rule="evenodd" clip-rule="evenodd" d="M84.5884 74.3524C84.5934 74.3729 84.593 74.3935 84.587 74.4136C84.4598 74.4136 84.3325 74.4136 84.2051 74.4136C84.2061 74.3912 84.2071 74.3688 84.2082 74.3462C84.335 74.3484 84.4617 74.3503 84.5884 74.3524Z" fill="#1F1F20"/>
<path fill-rule="evenodd" clip-rule="evenodd" d="M46.7178 74.4147C46.7197 74.3909 46.7215 74.3673 46.7234 74.3437C46.8447 74.3415 46.966 74.3396 47.0874 74.3374C47.0915 74.3631 47.0957 74.389 47.0998 74.4147C46.9724 74.4147 46.845 74.4147 46.7178 74.4147Z" fill="#1F1F20"/>
<path fill-rule="evenodd" clip-rule="evenodd" d="M60.0869 74.3574C60.0939 74.3766 60.0926 74.3953 60.083 74.4133C59.9557 74.4133 59.8285 74.4133 59.7012 74.4133C59.7021 74.3911 59.7031 74.3686 59.7039 74.3462C59.8316 74.3499 59.9593 74.3537 60.0869 74.3574Z" fill="#1F1F20"/>
<path fill-rule="evenodd" clip-rule="evenodd" d="M19.7934 74.3486C19.7937 74.3703 19.7942 74.3919 19.7945 74.4137C19.6672 74.4137 19.5399 74.4137 19.4127 74.4137C19.4058 74.3933 19.4055 74.3728 19.4114 74.3523C19.5387 74.3511 19.666 74.3498 19.7934 74.3486Z" fill="#1F1F20"/>
<path fill-rule="evenodd" clip-rule="evenodd" d="M44.9999 74.3511C45.0039 74.3718 45.0036 74.3924 44.9991 74.4131C44.8718 74.4131 44.7445 74.4131 44.6172 74.4131C44.6175 74.3916 44.6178 74.3701 44.6182 74.3486C44.7453 74.3494 44.8726 74.3502 44.9999 74.3511Z" fill="#1F1F20"/>
<path fill-rule="evenodd" clip-rule="evenodd" d="M40.5435 74.4142C40.5421 74.3936 40.5418 74.3729 40.5421 74.3523C40.6651 74.3483 40.7879 74.344 40.911 74.3398C40.9158 74.3646 40.9206 74.3894 40.9253 74.414C40.7981 74.4142 40.6708 74.4142 40.5435 74.4142Z" fill="#1F1F20"/>
<path fill-rule="evenodd" clip-rule="evenodd" d="M38.246 74.3418C38.2483 74.3657 38.2503 74.3895 38.2526 74.4134C38.1253 74.4134 37.9981 74.4134 37.8708 74.4134C37.8638 74.3934 37.8635 74.3729 37.8693 74.3526C37.9949 74.3491 38.1204 74.3453 38.246 74.3418Z" fill="#1F1F20"/>
<path fill-rule="evenodd" clip-rule="evenodd" d="M54.5293 48.4052C54.5584 48.3526 54.5797 48.2932 54.6179 48.2484C57.2278 45.186 59.107 41.718 60.4236 37.9354C61.1566 35.8294 61.7007 33.6771 62.0408 31.475C62.3751 29.3109 62.4831 27.1326 62.3607 24.9477C62.2234 22.4924 61.7861 20.0952 60.8501 17.8049C60.3575 16.5999 59.7701 15.4451 58.9811 14.4017C58.7845 14.1418 58.7391 13.8758 58.8317 13.5707C59.2484 12.1982 59.5854 10.8063 59.8597 9.39921C60.1506 7.90748 60.3618 6.40649 60.4094 4.88532C60.4174 4.6261 60.4485 4.36755 60.4735 4.04834C60.662 4.14458 60.8039 4.20445 60.9327 4.28515C61.582 4.6919 62.1596 5.18766 62.7055 5.72021C64.145 7.12377 65.1578 8.8046 65.9325 10.6399C66.7124 12.4876 67.2029 14.4107 67.4765 16.3932C67.709 18.0784 67.8155 19.7703 67.7724 21.4702C67.7348 22.9578 67.5763 24.4342 67.3519 25.9054C67.0464 27.9086 66.6064 29.8804 66.007 31.8168C64.5862 36.4064 62.3611 40.5664 59.2695 44.2604C58.0501 45.7176 56.6692 47.0081 55.127 48.1255C55.0414 48.1876 54.964 48.2618 54.8752 48.3183C54.7828 48.3769 54.681 48.421 54.5832 48.4714C54.5654 48.4492 54.5474 48.4271 54.5293 48.4052Z" fill="#79C917"/>
<path fill-rule="evenodd" clip-rule="evenodd" d="M35.7455 49.7784C35.6304 49.636 35.5439 49.5439 35.4746 49.4406C34.2096 47.5544 33.4314 45.4737 32.9865 43.2615C32.5496 41.0886 32.4204 38.892 32.5453 36.6839C32.7172 33.6466 33.3399 30.6932 34.3133 27.8131C35.5066 24.2816 37.2591 21.0526 39.6446 18.1717C40.7484 16.8387 41.988 15.6467 43.3945 14.6299C43.4973 14.5557 43.5897 14.4671 43.6936 14.3947C43.7764 14.3371 43.8663 14.2722 43.9895 14.3492C42.7753 15.7626 41.726 17.2745 40.8373 18.8956C39.3764 21.5605 38.3671 24.3894 37.7417 27.3569C37.3272 29.3239 37.1221 31.3119 37.1405 33.3224C37.1617 35.635 37.4558 37.9028 38.241 40.0926C38.6413 41.2088 39.1389 42.2767 39.8165 43.2552C39.9758 43.4852 39.9816 43.6809 39.8184 43.9171C38.5391 45.7672 37.2688 47.6235 35.9942 49.4766C35.9303 49.5698 35.8504 49.6522 35.7455 49.7784Z" fill="#039740"/>
<path fill-rule="evenodd" clip-rule="evenodd" d="M40.6016 52.6359C41.1011 52.0077 41.604 51.3822 42.0995 50.7508C44.4077 47.8099 46.4769 44.7165 48.1464 41.3689C49.3651 38.9252 50.3424 36.3935 50.9489 33.7279C51.2816 32.2654 51.4904 30.7866 51.5649 29.2878C51.8366 23.8244 50.2304 18.9373 47.0081 14.5426C45.0672 11.8955 42.7207 9.65304 40.0978 7.68555C38.1131 6.19655 36.0079 4.89914 33.7987 3.76628C33.7094 3.72039 33.6281 3.65908 33.543 3.60476C33.5523 3.58102 33.5617 3.55743 33.5711 3.53369C33.653 3.55374 33.74 3.56231 33.8165 3.5954C36.4903 4.75147 39.1071 6.01883 41.6077 7.51612C44.6067 9.31189 47.4033 11.3727 49.9277 13.79C50.9145 14.7352 51.8296 15.7454 52.6387 16.847C52.7885 17.0508 52.9366 17.2591 53.0565 17.4808C53.2792 17.8923 53.5926 18.209 53.9883 18.4529C54.5411 18.7933 55.1369 19.0376 55.7519 19.2408C56.2659 19.4105 56.2841 19.4485 56.1082 19.9619C55.8659 20.6695 55.4495 21.2806 55.0195 21.883C54.8355 22.1408 54.6344 22.3865 54.4465 22.6417C53.9222 23.3545 53.6527 24.1573 53.6703 25.0369C53.7362 28.3454 53.2302 31.5688 52.2299 34.7181C50.9681 38.691 49.0546 42.3416 46.6593 45.749C44.9414 48.1927 43.0098 50.4578 40.8654 52.5424C40.805 52.6009 40.739 52.6536 40.6755 52.7091C40.6507 52.6846 40.6262 52.6602 40.6016 52.6359Z" fill="#79C917"/>
<path fill-rule="evenodd" clip-rule="evenodd" d="M56.3571 11.7842C55.9952 11.5818 55.6783 11.3913 55.3492 11.2244C55.0478 11.0715 54.7388 10.9297 54.4226 10.8113C54.1986 10.7274 54.0844 10.5915 54.0304 10.3634C53.8374 9.55033 53.4718 8.8189 52.9299 8.17849C52.6385 7.83397 52.2975 7.55629 51.8474 7.43775C51.319 7.29866 50.8462 7.48931 50.5714 7.95976C50.3746 8.29664 50.3044 8.67136 50.2934 9.05224C50.285 9.33509 50.319 9.61965 50.3408 9.90285C50.3639 10.2006 50.348 10.2462 50.0567 10.274C49.2182 10.3545 48.4083 10.554 47.615 10.8263C47.3918 10.9031 47.2051 10.8595 47.0199 10.7241C46.097 10.0505 45.171 9.38112 44.246 8.71038C44.0194 8.5461 44.015 8.47938 44.2524 8.23914C45.2431 7.23721 46.2954 6.30542 47.449 5.49045C49.0804 4.33794 50.8478 3.47287 52.7982 2.9978C54.6476 2.54727 56.4912 2.5416 58.3255 3.08429C58.7786 3.21839 58.795 3.24858 58.7176 3.70479C58.2651 6.37596 57.4529 8.94535 56.5008 11.4754C56.4643 11.5729 56.4131 11.6647 56.3571 11.7842Z" fill="#79C917"/>
<path fill-rule="evenodd" clip-rule="evenodd" d="M58.9505 38.7865C58.5439 39.7581 58.1721 40.746 57.7239 41.6984C56.479 44.344 54.8668 46.7474 52.8204 48.8525C51.5244 50.1856 50.1148 51.3772 48.4648 52.2645C47.2056 52.9419 45.8771 53.4228 44.458 53.6318C43.2812 53.8051 42.1109 53.756 40.9552 53.4611C40.8759 53.4409 40.8013 53.4033 40.6797 53.3568C40.7471 53.2631 40.7883 53.1827 40.85 53.1233C42.6052 51.4325 44.2368 49.6319 45.707 47.6904C45.9679 47.3461 46.2555 47.1889 46.7004 47.2085C48.3415 47.2802 49.8633 46.8238 51.3124 46.0949C53.0752 45.2079 54.5744 43.9812 55.916 42.5509C56.9031 41.4987 57.7693 40.3547 58.5582 39.1507C58.6391 39.0274 58.724 38.9066 58.8071 38.7847C58.8549 38.7851 58.9028 38.7858 58.9505 38.7865Z" fill="#039740"/>
<path fill-rule="evenodd" clip-rule="evenodd" d="M31.749 55.6767C32.3944 54.8539 33.0429 54.0335 33.6846 53.2079C36.5721 49.4923 39.2198 45.6111 41.7389 41.6421C44.9079 36.6491 47.8742 31.5391 50.633 26.3106C50.6897 26.2029 50.7653 26.105 50.8671 25.9487C50.9875 26.3863 51.0155 26.7677 51.0296 27.1491C51.0753 28.3866 50.9768 29.6159 50.7578 30.8325C50.6067 31.6715 50.4154 32.5037 50.2206 33.334C50.1615 33.5862 50.0566 33.8363 49.9285 34.0625C48.9382 35.8127 47.7517 37.4305 46.5191 39.0166C43.7096 42.6325 40.7128 46.0912 37.6351 49.4814C35.8513 51.446 34.0438 53.3892 32.2459 55.3413C32.1387 55.4577 32.0237 55.5669 31.9123 55.6792C31.8582 55.6784 31.8037 55.6776 31.749 55.6767Z" fill="#039740"/>
<path fill-rule="evenodd" clip-rule="evenodd" d="M44.4004 46.9313C44.3305 47.039 44.2639 47.1442 44.1947 47.2477C43.078 48.9164 41.8174 50.4767 40.5501 52.032C40.3367 52.2938 40.1274 52.5594 39.9079 52.8161C39.7418 53.0104 39.6719 53.0284 39.4386 52.9216C38.5253 52.5032 37.7201 51.9266 36.9948 51.2386C36.8254 51.0779 36.8297 50.9832 36.9636 50.7967C37.0003 50.7454 37.0452 50.6997 37.0874 50.6525C38.5196 49.0426 39.9521 47.433 41.3845 45.8233C41.7409 45.4229 41.7406 45.4231 42.1762 45.7429C42.7506 46.1647 43.377 46.4908 44.0425 46.7451C44.1214 46.7754 44.2005 46.8057 44.2769 46.8415C44.3138 46.8592 44.3445 46.8903 44.4004 46.9313Z" fill="#039740"/>
<path fill-rule="evenodd" clip-rule="evenodd" d="M44.577 12.2844C41.3227 14.3954 38.9053 17.2662 36.874 20.5119C36.8789 20.4619 36.8796 20.4107 36.8901 20.3618C36.9033 20.3002 36.9207 20.2389 36.9429 20.18C38.2616 16.6881 39.9824 13.4155 42.3007 10.469C42.4752 10.2472 42.541 10.2282 42.7297 10.4155C43.3432 11.0246 43.9459 11.6444 44.577 12.2844Z" fill="#79C917"/>
<path fill-rule="evenodd" clip-rule="evenodd" d="M13.9538 65.253C13.9538 63.8224 13.9538 62.3918 13.9538 60.9446C14.243 60.9446 14.5139 60.9446 14.8053 60.9446C14.8053 62.9087 14.8053 64.8746 14.8053 66.8639C14.5872 66.8639 14.3599 66.8639 14.0905 66.8639C12.9419 65.4456 11.7697 63.9982 10.5974 62.5506C10.5755 62.5565 10.5538 62.5624 10.5319 62.5685C10.5111 62.917 10.5251 63.2672 10.5226 63.6164C10.52 63.9854 10.5221 64.3544 10.5221 64.7233C10.5221 65.0818 10.5221 65.4403 10.5221 65.7986C10.5221 66.1554 10.5221 66.5121 10.5221 66.8779C10.2327 66.8779 9.96993 66.8779 9.6875 66.8779C9.6875 64.9064 9.6875 62.9404 9.6875 60.9286C9.88123 60.9286 10.0905 60.9099 10.2935 60.9372C10.3786 60.9486 10.4641 61.0457 10.5267 61.1223C11.2609 62.0225 11.9909 62.9264 12.7221 63.8292C13.112 64.3107 13.5022 64.7923 13.8923 65.2738C13.9128 65.267 13.9333 65.26 13.9538 65.253Z" fill="#1F1F20"/>
<path fill-rule="evenodd" clip-rule="evenodd" d="M95.1279 66.8881C95.1279 64.8868 95.1279 62.9285 95.1279 60.9537C95.1723 60.9445 95.2105 60.9295 95.2486 60.9295C96.1182 60.9296 96.9875 60.9273 97.857 60.9345C98.2518 60.9378 98.6343 61.0218 99.0039 61.1591C100.418 61.684 101.051 62.9917 100.848 64.3653C100.649 65.7171 99.7306 66.604 98.3603 66.8277C98.2662 66.8429 98.1728 66.8662 98.0781 66.8731C97.9302 66.8838 97.7816 66.8872 97.6333 66.8876C96.807 66.8888 95.9807 66.8881 95.1279 66.8881ZM95.9939 66.1225C96.6581 66.1225 97.2928 66.1253 97.9276 66.12C98.0423 66.119 98.1578 66.0896 98.2714 66.0655C99.3622 65.8332 100.01 65.0229 100.009 63.8963C100.007 62.7922 99.3559 61.9776 98.2767 61.7568C98.0099 61.7022 97.7312 61.6929 97.4573 61.6866C96.9736 61.676 96.4895 61.6838 95.9939 61.6838C95.9939 63.1759 95.9939 64.6355 95.9939 66.1225Z" fill="#1F1F20"/>
<path fill-rule="evenodd" clip-rule="evenodd" d="M48.505 64.8981C48.9734 65.5592 49.4242 66.195 49.8941 66.8582C49.5755 66.9178 49.276 66.8734 48.9698 66.8896C48.6075 66.3779 48.237 65.8777 47.8941 65.3594C47.7506 65.1424 47.605 65.0532 47.3324 65.0716C46.8476 65.1043 46.359 65.0808 45.8422 65.0808C45.8422 65.6849 45.8422 66.2702 45.8422 66.8714C45.5416 66.8714 45.2702 66.8714 44.9814 66.8714C44.9814 64.9026 44.9814 62.935 44.9814 60.9512C45.0206 60.9435 45.0593 60.9292 45.0979 60.9292C45.9038 60.9295 46.7104 60.9134 47.5155 60.9412C47.8485 60.9527 48.1923 61.0193 48.5067 61.1297C49.303 61.4095 49.7371 61.9878 49.8018 62.8324C49.8722 63.7497 49.4837 64.4272 48.6533 64.8273C48.6152 64.8455 48.577 64.8636 48.505 64.8981ZM45.8436 64.3434C46.4161 64.3434 46.9558 64.35 47.4953 64.3394C47.6624 64.3361 47.8323 64.2999 47.9942 64.2543C48.6285 64.0763 48.9555 63.6277 48.9434 62.9697C48.9318 62.3407 48.5804 61.9107 47.9474 61.755C47.845 61.7299 47.7402 61.6991 47.6362 61.698C47.0539 61.6919 46.4717 61.6938 45.8894 61.6952C45.8742 61.6952 45.8589 61.7203 45.8437 61.7342C45.8436 62.5947 45.8436 63.4554 45.8436 64.3434Z" fill="#1F1F20"/>
<path fill-rule="evenodd" clip-rule="evenodd" d="M63.3094 66.9591C62.1531 66.9409 61.2625 66.5911 60.6189 65.7529C59.379 64.1384 60.0181 61.3945 62.5246 60.9253C63.2968 60.7806 64.0467 60.8561 64.7507 61.2118C65.9731 61.8294 66.5123 63.0484 66.3632 64.2827C66.2002 65.6301 65.2558 66.6322 63.9518 66.88C63.7036 66.927 63.4493 66.9422 63.3094 66.9591ZM65.5117 63.9026C65.5084 62.5852 64.5285 61.6295 63.1921 61.6256C62.0856 61.6228 60.8913 62.3661 60.874 63.9134C60.8594 65.2165 61.8715 66.188 63.2029 66.1891C64.536 66.1902 65.5149 65.2205 65.5117 63.9026Z" fill="#1F1F20"/>
<path fill-rule="evenodd" clip-rule="evenodd" d="M40.1039 66.9651C38.7646 66.9133 37.7447 66.4257 37.1735 65.2543C36.3297 63.5239 37.2172 61.305 39.3972 60.926C40.5889 60.719 41.6645 60.9723 42.4901 61.8956C43.2841 62.7836 43.4315 63.8401 43.0638 64.942C42.704 66.0197 41.8991 66.6439 40.7922 66.8811C40.5457 66.9339 40.2896 66.9435 40.1039 66.9651ZM40.055 66.19C41.3824 66.1933 42.3788 65.2147 42.3778 63.9088C42.3767 62.6126 41.3952 61.6356 40.0865 61.6279C38.7418 61.6199 37.7456 62.5744 37.7383 63.8775C37.7308 65.2163 38.7028 66.1865 40.055 66.19Z" fill="#1F1F20"/>
<path fill-rule="evenodd" clip-rule="evenodd" d="M72.1533 65.6592C72.4254 65.925 72.6815 66.1749 72.9554 66.4424C72.807 66.6181 72.6605 66.7914 72.4905 66.9928C72.233 66.7071 71.9946 66.4427 71.7533 66.1753C71.6161 66.2804 71.5365 66.3462 71.4521 66.4053C70.559 67.0324 69.5909 67.121 68.5869 66.745C67.9024 66.4886 67.5533 65.9314 67.5975 65.2824C67.6229 64.9106 67.7645 64.582 68.0344 64.3269C68.2479 64.1249 68.4897 63.9519 68.723 63.7714C68.8139 63.7013 68.9162 63.6457 69.0246 63.5763C68.9065 63.4373 68.7942 63.314 68.6921 63.1827C68.529 62.9725 68.3968 62.745 68.3543 62.4776C68.2385 61.7503 68.5881 61.1906 69.2969 60.9706C69.7122 60.8418 70.1329 60.8356 70.5494 60.9555C71.4333 61.21 71.7453 62.2207 71.1525 62.9281C71.0054 63.1038 70.8163 63.2472 70.6354 63.3915C70.5043 63.4963 70.3546 63.578 70.2385 63.6536C70.7017 64.1372 71.1651 64.6209 71.6655 65.1431C71.7949 64.7726 71.9113 64.4391 72.0387 64.0734C72.2334 64.1327 72.4401 64.1957 72.6658 64.2643C72.6023 64.763 72.411 65.2001 72.1533 65.6592ZM71.1662 65.7485C70.5899 65.1711 70.04 64.6197 69.4552 64.0337C69.2142 64.2196 68.9323 64.3919 68.707 64.6195C68.1824 65.1495 68.3432 65.8928 69.047 66.1397C69.8213 66.4118 70.5419 66.2769 71.1662 65.7485ZM69.6896 63.2171C70.0431 63.019 70.3715 62.8458 70.5977 62.5435C70.9217 62.1099 70.6937 61.5766 70.156 61.5034C70.0417 61.4878 69.9229 61.4872 69.8078 61.4976C69.2034 61.552 68.9104 62.1017 69.2218 62.6233C69.3489 62.8364 69.5299 63.0176 69.6896 63.2171Z" fill="#1F1F20"/>
<path fill-rule="evenodd" clip-rule="evenodd" d="M52.4981 63.5034C53.5044 63.5034 54.4773 63.5034 55.4671 63.5034C55.4671 63.7424 55.4671 63.9597 55.4671 64.2237C55.1516 64.2246 54.8283 64.2258 54.5049 64.2263C54.1654 64.2268 53.8261 64.2264 53.4865 64.2264C53.1595 64.2264 52.8324 64.2264 52.4933 64.2264C52.4933 64.8682 52.4933 65.4851 52.4933 66.1301C53.6431 66.1301 54.7836 66.1301 55.9414 66.1301C55.9414 66.3858 55.9414 66.6143 55.9414 66.8661C54.5182 66.8661 53.083 66.8661 51.6299 66.8661C51.6299 64.9032 51.6299 62.9364 51.6299 60.9492C53.0199 60.9492 54.4148 60.9492 55.8252 60.9492C55.8252 61.184 55.8252 61.4221 55.8252 61.6838C54.7129 61.6838 53.6139 61.6838 52.4981 61.6838C52.4981 62.2911 52.4981 62.8744 52.4981 63.5034Z" fill="#1F1F20"/>
<path fill-rule="evenodd" clip-rule="evenodd" d="M31.6273 65.0934C31.6273 65.6976 31.6273 66.2732 31.6273 66.8683C31.3351 66.8683 31.0645 66.8683 30.7725 66.8683C30.7725 64.91 30.7725 62.9442 30.7725 60.9561C30.8168 60.9485 30.8754 60.9298 30.9339 60.9298C31.7289 60.9294 32.5239 60.927 33.3187 60.9355C33.7029 60.9395 34.0751 61.0207 34.4272 61.1776C35.2063 61.5249 35.5791 62.134 35.5907 62.9732C35.6025 63.8239 35.2461 64.4546 34.4618 64.8241C34.0221 65.0315 33.5495 65.0861 33.0701 65.092C32.604 65.098 32.1377 65.0934 31.6273 65.0934ZM31.6339 64.3399C32.1309 64.3399 32.5958 64.3456 33.0605 64.3373C33.2608 64.3339 33.4645 64.3199 33.6599 64.2788C34.0567 64.1953 34.3985 64.016 34.5926 63.6368C34.9966 62.8472 34.5915 61.9548 33.724 61.757C33.0365 61.6004 32.3379 61.7162 31.6341 61.6808C31.6339 62.5787 31.6339 63.44 31.6339 64.3399Z" fill="#1F1F20"/>
<path fill-rule="evenodd" clip-rule="evenodd" d="M22.0568 61.7792C21.8784 61.9576 21.709 62.127 21.5339 62.3023C21.4256 62.2195 21.3273 62.1402 21.2248 62.0669C20.2864 61.3951 18.8672 61.4942 18.0663 62.2991C17.4336 62.935 17.288 63.7124 17.508 64.55C17.7277 65.3863 18.3076 65.8994 19.1394 66.1121C19.7633 66.2718 20.3795 66.2142 20.966 65.9321C21.0136 65.9093 21.0612 65.8855 21.1057 65.8575C21.132 65.8411 21.1523 65.815 21.1921 65.7773C21.1921 65.1619 21.1921 64.5318 21.1921 63.8826C21.4684 63.8826 21.7269 63.8826 22.0043 63.8826C22.0097 63.9637 22.0181 64.0346 22.0181 64.1055C22.0192 64.7274 22.0101 65.3497 22.024 65.9712C22.0281 66.1556 21.9575 66.261 21.8156 66.3569C21.3602 66.6649 20.857 66.8487 20.3153 66.9193C19.5763 67.0153 18.857 66.9462 18.1807 66.6055C16.9581 65.9896 16.4009 64.7447 16.5767 63.471C16.8083 61.7937 18.1816 60.9146 19.5828 60.8659C20.1626 60.8457 20.7234 60.9197 21.2505 61.1765C21.5575 61.3256 21.8345 61.5133 22.0568 61.7792Z" fill="#1F1F20"/>
<path fill-rule="evenodd" clip-rule="evenodd" d="M79.3646 63.8808C79.3706 63.9519 79.38 64.0126 79.38 64.0734C79.3812 64.7165 79.3769 65.3597 79.3836 66.0027C79.3852 66.155 79.3381 66.2511 79.2086 66.3399C78.7452 66.6576 78.2333 66.8476 77.6809 66.9188C76.874 67.0224 76.0918 66.9383 75.3811 66.5096C74.3168 65.868 73.8499 64.8992 73.9272 63.6874C74.0419 61.8879 75.4893 60.8999 76.9873 60.8644C77.6459 60.8487 78.2773 60.9461 78.8431 61.3017C79.0545 61.4346 79.2425 61.6042 79.4321 61.7501C79.2404 61.9558 79.0754 62.1326 78.9041 62.3163C78.5206 61.9669 78.1002 61.736 77.6037 61.6601C76.347 61.4683 75.2362 62.0983 74.8944 63.1802C74.4193 64.6842 75.4546 66.142 77.0394 66.1884C77.5692 66.2039 78.0692 66.1101 78.5457 65.8077C78.5457 65.1756 78.5457 64.5368 78.5457 63.8805C78.8319 63.8808 79.0908 63.8808 79.3646 63.8808Z" fill="#1F1F20"/>
<path fill-rule="evenodd" clip-rule="evenodd" d="M25.8655 60.9355C26.1625 60.9355 26.4369 60.9355 26.7301 60.9355C27.629 62.9037 28.5289 64.874 29.4419 66.8726C29.12 66.8726 28.8388 66.8726 28.5339 66.8726C28.3203 66.3959 28.1019 65.9087 27.8828 65.4196C26.8189 65.4196 25.7712 65.4196 24.7052 65.4196C24.4863 65.9076 24.2675 66.3955 24.0492 66.8821C23.7579 66.8821 23.483 66.8821 23.1592 66.8821C24.0651 64.8913 24.9607 62.9234 25.8655 60.9355ZM27.5754 64.7107C27.1466 63.742 26.7352 62.8128 26.2938 61.816C25.8521 62.8142 25.4376 63.7508 25.0125 64.7107C25.8792 64.7107 26.7037 64.7107 27.5754 64.7107Z" fill="#1F1F20"/>
<path fill-rule="evenodd" clip-rule="evenodd" d="M4.67776 61.385C4.56969 61.6374 4.47926 61.8484 4.38352 62.072C3.90921 61.7963 3.42616 61.6109 2.89948 61.6047C2.59649 61.601 2.28727 61.6388 1.99144 61.7047C1.82583 61.7416 1.65902 61.8502 1.53225 61.9682C1.16191 62.3131 1.21071 62.8635 1.639 63.1321C1.8322 63.2533 2.05641 63.335 2.27667 63.4015C2.66054 63.5177 3.05488 63.5993 3.43956 63.713C3.6712 63.7815 3.89993 63.8688 4.11792 63.9725C5.19701 64.4856 5.09783 65.8826 4.35368 66.454C3.98904 66.734 3.57268 66.8785 3.12716 66.9269C2.33487 67.0128 1.56196 66.9285 0.839564 66.5659C0.653395 66.4726 0.482078 66.3503 0.288086 66.2316C0.399204 65.9944 0.496398 65.7869 0.604599 65.556C0.681373 65.6038 0.748468 65.6449 0.814635 65.6873C1.591 66.1857 2.42876 66.3549 3.3299 66.1261C3.49816 66.0834 3.67014 65.9966 3.80301 65.8857C4.19139 65.5613 4.165 65.0013 3.73923 64.7289C3.5215 64.5894 3.26558 64.499 3.0159 64.4217C2.62288 64.3004 2.21766 64.2181 1.82318 64.1006C1.61235 64.0378 1.40615 63.9498 1.20991 63.8498C0.186781 63.3286 0.295511 62.0363 0.876293 61.4788C1.218 61.1507 1.63064 60.9839 2.09063 60.9135C2.83928 60.7987 3.56777 60.8636 4.26617 61.1686C4.39943 61.2265 4.52421 61.3037 4.67776 61.385Z" fill="#1F1F20"/>
<path fill-rule="evenodd" clip-rule="evenodd" d="M53.7946 11.5138C53.8048 11.8458 53.7623 12.1683 53.629 12.4733C53.4163 12.9603 53.0212 13.1072 52.5354 12.8803C52.2623 12.7526 52.0354 12.5642 51.8458 12.3315C51.1067 11.4244 50.7107 10.3895 50.6816 9.21998C50.6731 8.87843 50.7226 8.54631 50.881 8.2383C51.1143 7.7854 51.4407 7.67332 51.9069 7.87703C52.1954 8.00321 52.4288 8.19993 52.6268 8.43739C53.3704 9.32965 53.7466 10.3608 53.7946 11.5138Z" fill="#039740"/>
<path fill-rule="evenodd" clip-rule="evenodd" d="M88.8135 61.689C88.8135 61.4258 88.8135 61.1983 88.8135 60.9492C90.4508 60.9492 92.0884 60.9492 93.7456 60.9492C93.7456 61.1783 93.7456 61.4141 93.7456 61.6778C93.079 61.6778 92.4157 61.6778 91.7277 61.6778C91.7277 63.4192 91.7277 65.1335 91.7277 66.8677C91.4331 66.8677 91.1627 66.8677 90.8682 66.8677C90.8682 65.1562 90.8682 63.4406 90.8682 61.689C90.1734 61.689 89.501 61.689 88.8135 61.689Z" fill="#1F1F20"/>
<path fill-rule="evenodd" clip-rule="evenodd" d="M88.2547 66.131C88.2547 66.3917 88.2547 66.6188 88.2547 66.8677C86.903 66.8677 85.5517 66.8677 84.1797 66.8677C84.1797 64.9092 84.1797 62.9438 84.1797 60.9553C84.4477 60.9024 84.7252 60.9339 85.0262 60.936C85.0262 62.6714 85.0262 64.3843 85.0262 66.131C86.1126 66.131 87.1761 66.131 88.2547 66.131Z" fill="#1F1F20"/>
<path fill-rule="evenodd" clip-rule="evenodd" d="M6.60059 60.9355C6.88156 60.9355 7.14451 60.9355 7.42853 60.9355C7.42853 62.9111 7.42853 64.8828 7.42853 66.8878C7.29407 66.8878 7.15963 66.8878 7.02517 66.8878C6.88899 66.8878 6.75281 66.8878 6.60059 66.8878C6.60059 64.9015 6.60059 62.9368 6.60059 60.9355Z" fill="#1F1F20"/>
<path fill-rule="evenodd" clip-rule="evenodd" d="M32.776 74.3475C32.6349 74.3422 32.4937 74.337 32.3527 74.3317C32.1061 73.6079 31.8595 72.884 31.5888 72.0891C31.3116 72.8834 31.0567 73.6145 30.8016 74.3454C30.6549 74.346 30.5083 74.3466 30.3616 74.3472C30.0434 73.4116 29.7252 72.4761 29.3975 71.5127C29.5485 71.5127 29.6788 71.5127 29.8375 71.5127C30.0791 72.2315 30.3268 72.9679 30.5983 73.7753C30.8789 72.978 31.1392 72.2389 31.3989 71.501C31.5385 71.501 31.6641 71.501 31.7968 71.501C32.0473 72.2354 32.2949 72.9621 32.5701 73.7689C32.877 72.9826 33.0913 72.2417 33.3623 71.5056C33.4832 71.5056 33.604 71.5056 33.7493 71.5056C33.7132 71.6303 33.6858 71.7404 33.6497 71.8475C33.4047 72.5756 33.1588 73.3036 32.9104 74.0304C32.8735 74.1388 32.8212 74.2419 32.776 74.3475Z" fill="#1F1F20"/>
<path fill-rule="evenodd" clip-rule="evenodd" d="M38.2461 74.3417C38.1205 74.3453 37.9949 74.3489 37.8693 74.3525C37.8627 73.7639 37.8547 73.1754 37.85 72.5868C37.8473 72.2303 37.8494 71.8739 37.8494 71.5039C37.974 71.5039 38.077 71.5039 38.2068 71.5039C38.5872 72.1385 38.975 72.7859 39.3883 73.4755C39.7902 72.797 40.1744 72.1486 40.5593 71.499C40.6734 71.499 40.7778 71.499 40.9115 71.499C40.9115 72.4515 40.9115 73.3951 40.9115 74.3389C40.7885 74.343 40.6657 74.3472 40.5426 74.3514C40.5318 74.2173 40.5136 74.0836 40.5115 73.9491C40.5041 73.4341 40.502 72.919 40.4978 72.4038C40.4696 72.4185 40.4412 72.4333 40.4131 72.4479C40.137 72.908 39.8626 73.369 39.584 73.8278C39.4349 74.073 39.3301 74.074 39.1796 73.8298C38.9366 73.4356 38.6997 73.0377 38.4597 72.6417C38.4116 72.5623 38.3608 72.4847 38.2602 72.4121C38.2555 73.0553 38.2508 73.6986 38.2461 74.3417Z" fill="#1F1F20"/>
<path fill-rule="evenodd" clip-rule="evenodd" d="M68.3459 74.3364C67.8498 74.3329 67.3537 74.329 66.8574 74.3255C66.8574 73.3893 66.8574 72.4531 66.8574 71.5058C67.3933 71.5058 67.9034 71.47 68.406 71.5145C69.0751 71.574 69.5642 72.0942 69.6283 72.7318C69.6996 73.4385 69.3632 74.0065 68.7318 74.2351C68.6074 74.2804 68.4747 74.3033 68.3459 74.3364ZM67.2954 73.9618C67.6537 73.9618 68.0036 73.9964 68.3436 73.9536C68.8544 73.8895 69.1849 73.4891 69.2139 72.9779C69.2431 72.4642 68.9508 72.0263 68.4639 71.904C68.0843 71.8085 67.6938 71.8231 67.2954 71.8571C67.2954 72.5681 67.2954 73.2579 67.2954 73.9618Z" fill="#1F1F20"/>
<path fill-rule="evenodd" clip-rule="evenodd" d="M44.9999 74.3524C44.8728 74.3515 44.7455 74.3507 44.6182 74.3497C44.6182 73.4054 44.6182 72.4613 44.6182 71.5201C44.852 71.4358 44.9943 71.5235 45.1337 71.7034C45.5468 72.2361 45.9778 72.7554 46.4025 73.2794C46.4675 73.3595 46.5361 73.4369 46.6482 73.5688C46.6482 72.8462 46.6482 72.1829 46.6482 71.5059C46.8071 71.5059 46.9303 71.5059 47.0871 71.5059C47.0871 72.4503 47.0871 73.3937 47.0871 74.3371C46.9657 74.3392 46.8443 74.3412 46.7231 74.3433C46.1763 73.6628 45.6296 72.9823 45.0829 72.3018C45.065 72.3082 45.0473 72.3145 45.0296 72.3207C45.0197 72.9979 45.0098 73.6751 44.9999 74.3524Z" fill="#1F1F20"/>
<path fill-rule="evenodd" clip-rule="evenodd" d="M78.5925 74.3375C78.4717 74.3388 78.3508 74.3403 78.23 74.3416C77.682 73.6593 77.1341 72.9769 76.5862 72.2947C76.5592 72.3043 76.5325 72.3139 76.5055 72.3233C76.5055 72.9999 76.5055 73.6764 76.5055 74.3531C76.3789 74.3509 76.2524 74.3492 76.126 74.3472C76.126 73.4098 76.126 72.4723 76.126 71.5238C76.3421 71.4407 76.4893 71.504 76.6322 71.6882C77.053 72.2308 77.4911 72.7602 77.9234 73.294C77.9864 73.3718 78.0548 73.4453 78.1622 73.5682C78.1622 72.8477 78.1622 72.1899 78.1622 71.5119C78.3083 71.5119 78.4302 71.5119 78.5926 71.5119C78.5925 72.4491 78.5925 73.3933 78.5925 74.3375Z" fill="#1F1F20"/>
<path fill-rule="evenodd" clip-rule="evenodd" d="M72.6259 74.3749C72.5521 74.3723 72.4774 74.3613 72.4047 74.3691C72.2717 74.3837 72.1919 74.3273 72.1198 74.219C71.9514 73.9656 71.7705 73.7204 71.6028 73.4831C71.3074 73.4831 71.0344 73.4831 70.7294 73.4831C70.7294 73.7683 70.7294 74.0463 70.7294 74.3439C70.5584 74.374 70.4191 74.39 70.2793 74.3254C70.2842 73.5032 70.2891 72.6808 70.2939 71.8587C70.2946 71.7452 70.294 71.6315 70.294 71.5043C70.7946 71.5043 71.2734 71.4662 71.7432 71.5133C72.4446 71.5835 72.8201 72.261 72.5498 72.8929C72.4497 73.1274 72.2623 73.2756 72.0086 73.3944C72.1841 73.6441 72.3502 73.8717 72.5058 74.1062C72.5594 74.187 72.5867 74.2849 72.6259 74.3749ZM70.7136 71.8257C70.7136 72.1895 70.7136 72.5026 70.7136 72.8155C70.7136 72.9076 70.7136 72.9996 70.7136 73.139C71.054 73.1224 71.3689 73.1284 71.6776 73.0867C72.025 73.0394 72.2031 72.811 72.203 72.4833C72.203 72.1476 72.0084 71.9202 71.6439 71.8763C71.3531 71.8411 71.0577 71.8429 70.7136 71.8257Z" fill="#1F1F20"/>
<path fill-rule="evenodd" clip-rule="evenodd" d="M27.8727 74.3442C27.7279 74.3441 27.5831 74.3441 27.4384 74.344C27.2396 74.0601 27.0407 73.7761 26.8386 73.4874C26.5545 73.4874 26.2733 73.4874 25.9638 73.4874C25.9558 73.7772 25.9479 74.0565 25.9402 74.3358C25.8055 74.3382 25.6708 74.3402 25.5361 74.3426C25.5361 73.4071 25.5361 72.4716 25.5361 71.515C25.6025 71.5071 25.6721 71.4922 25.7416 71.4922C26.1229 71.4922 26.5053 71.4772 26.8848 71.5023C27.6074 71.5504 28.0146 72.1372 27.8108 72.8075C27.7255 73.088 27.5208 73.2612 27.2535 73.3911C27.4661 73.7183 27.6695 74.0313 27.8727 74.3442ZM25.9512 71.8232C25.9512 72.0762 25.9512 72.2834 25.9512 72.4908C25.9512 72.6962 25.9512 72.9016 25.9512 73.1274C26.2234 73.1274 26.4536 73.1314 26.6836 73.1255C26.7776 73.123 26.8728 73.1063 26.9645 73.0835C27.2726 73.0065 27.4398 72.781 27.432 72.4631C27.4246 72.1623 27.2574 71.9353 26.9512 71.8905C26.6328 71.8441 26.3076 71.8451 25.9512 71.8232Z" fill="#1F1F20"/>
<path fill-rule="evenodd" clip-rule="evenodd" d="M9.67048 74.3466C9.52437 74.3462 9.37824 74.3457 9.23212 74.3452C9.03321 74.0613 8.83432 73.7773 8.63104 73.4871C8.34927 73.4871 8.06804 73.4871 7.75895 73.4871C7.75086 73.7768 7.74303 74.056 7.73534 74.3353C7.60062 74.3377 7.46577 74.3399 7.33105 74.3421C7.33105 73.4063 7.33105 72.4704 7.33105 71.5089C7.42016 71.5028 7.51086 71.4913 7.60168 71.4915C7.96182 71.4919 8.32316 71.4777 8.68183 71.5024C9.3919 71.5517 9.79128 72.1142 9.61029 72.7823C9.54532 73.0222 9.43048 73.153 9.05576 73.4096C9.26036 73.7216 9.46549 74.0342 9.67048 74.3466ZM7.74556 71.8229C7.75205 72.2845 7.73309 72.698 7.7612 73.1463C8.11312 73.1247 8.43149 73.1284 8.74176 73.08C9.06319 73.0298 9.23079 72.7908 9.22641 72.4726C9.22204 72.1701 9.05484 71.9368 8.74933 71.8911C8.4295 71.8434 8.10238 71.845 7.74556 71.8229Z" fill="#1F1F20"/>
<path fill-rule="evenodd" clip-rule="evenodd" d="M60.0871 74.3583C59.9595 74.3547 59.8318 74.3508 59.7041 74.3472C59.7041 73.4025 59.7041 72.4576 59.7041 71.5034C59.844 71.5034 59.9671 71.5034 60.1116 71.5034C60.1116 71.902 60.1116 72.2879 60.1116 72.6905C60.6578 72.6905 61.183 72.6905 61.7314 72.6905C61.7314 72.3072 61.7314 71.9218 61.7314 71.5133C61.884 71.5133 62.0146 71.5133 62.175 71.5133C62.175 72.454 62.175 73.3973 62.175 74.3407C62.0334 74.3395 61.8914 74.3384 61.7498 74.3375C61.7498 73.9308 61.7498 73.5241 61.7498 73.1002C61.1983 73.1002 60.6679 73.1002 60.1377 73.1002C60.1204 73.5292 60.1038 73.9436 60.0871 74.3583Z" fill="#1F1F20"/>
<path fill-rule="evenodd" clip-rule="evenodd" d="M43.9038 74.3365C43.2089 74.3397 42.5142 74.343 41.8193 74.3461C41.8193 73.4003 41.8193 72.4544 41.8193 71.5034C42.5005 71.5034 43.1646 71.5034 43.8391 71.5034C43.8391 71.6097 43.8391 71.7019 43.8391 71.8314C43.315 71.8314 42.7932 71.8314 42.253 71.8314C42.253 72.137 42.253 72.4061 42.253 72.7026C42.7124 72.7026 43.1748 72.7026 43.6529 72.7026C43.6529 72.8296 43.6529 72.9305 43.6529 73.0627C43.1961 73.0627 42.7355 73.0627 42.2546 73.0627C42.2546 73.3712 42.2546 73.6503 42.2546 73.9658C42.7843 73.9658 43.3283 73.9658 43.9039 73.9658C43.9038 74.1124 43.9038 74.2243 43.9038 74.3365Z" fill="#1F1F20"/>
<path fill-rule="evenodd" clip-rule="evenodd" d="M98.752 74.3354C98.6171 74.3376 98.4823 74.3397 98.3473 74.3418C98.3434 73.4168 98.3393 72.4919 98.3369 71.5669C98.3369 71.5488 98.3543 71.5306 98.368 71.5035C98.4867 71.5035 98.6093 71.5035 98.755 71.5035C98.755 71.9013 98.755 72.2867 98.755 72.6899C99.3014 72.6899 99.8249 72.6899 100.385 72.6899C100.385 72.3002 100.385 71.9078 100.385 71.5034C100.543 71.5034 100.665 71.5034 100.805 71.5034C100.805 72.4558 100.805 73.3988 100.805 74.342C100.669 74.3395 100.535 74.3372 100.399 74.3346C100.399 73.9283 100.399 73.5218 100.399 73.0988C99.8493 73.0988 99.3273 73.0988 98.7738 73.0988C98.7667 73.5091 98.7594 73.9222 98.752 74.3354Z" fill="#1F1F20"/>
<path fill-rule="evenodd" clip-rule="evenodd" d="M84.5892 74.3538C84.4623 74.3518 84.3357 74.3497 84.209 74.3477C84.209 73.4104 84.209 72.4728 84.209 71.5135C84.3307 71.5135 84.4508 71.5135 84.5962 71.5135C84.5962 71.895 84.5962 72.2807 84.5962 72.6876C85.1533 72.6876 85.6867 72.6876 86.2454 72.6876C86.2454 72.3029 86.2454 71.9175 86.2454 71.5122C86.3913 71.5122 86.5134 71.5122 86.6757 71.5122C86.6757 72.4494 86.6757 73.3937 86.6757 74.3379C86.5355 74.3376 86.3953 74.3373 86.255 74.3371C86.255 73.9304 86.255 73.5234 86.255 73.0997C85.703 73.0997 85.1716 73.0997 84.6213 73.0997C84.6105 73.5228 84.5997 73.9383 84.5892 74.3538Z" fill="#1F1F20"/>
<path fill-rule="evenodd" clip-rule="evenodd" d="M75.413 74.3409C74.7181 74.342 74.0231 74.343 73.3281 74.344C73.3281 73.4072 73.3281 72.4701 73.3281 71.5122C73.9982 71.5122 74.6601 71.5122 75.3474 71.5122C75.3519 71.6076 75.3564 71.7067 75.3621 71.8307C74.8264 71.8307 74.3102 71.8307 73.7729 71.8307C73.7729 72.1243 73.7729 72.3944 73.7729 72.6953C74.2176 72.6953 74.6789 72.6953 75.1599 72.6953C75.1599 72.8324 75.1599 72.9403 75.1599 73.0699C74.7 73.0699 74.2473 73.0699 73.7731 73.0699C73.7731 73.3773 73.7731 73.664 73.7731 73.9781C74.3126 73.9781 74.8493 73.9781 75.413 73.9781C75.413 74.1164 75.413 74.2287 75.413 74.3409Z" fill="#1F1F20"/>
<path fill-rule="evenodd" clip-rule="evenodd" d="M89.6669 74.3362C88.9724 74.3394 88.2775 74.3427 87.583 74.3457C87.583 73.4084 87.583 72.4711 87.583 71.5122C88.2472 71.5122 88.9092 71.5122 89.5975 71.5122C89.6026 71.6051 89.608 71.7038 89.6155 71.8372C89.0712 71.8372 88.5468 71.8372 88.0029 71.8372C88.0029 72.1394 88.0029 72.409 88.0029 72.7014C88.4611 72.7014 88.9252 72.7014 89.4103 72.7014C89.4103 72.8305 89.4103 72.9378 89.4103 73.0726C88.9419 73.0726 88.4791 73.0726 87.9995 73.0726C87.9995 73.3787 87.9995 73.6589 87.9995 73.9709C88.5404 73.9709 89.0868 73.9709 89.6668 73.9709C89.6669 74.1124 89.6669 74.2243 89.6669 74.3362Z" fill="#1F1F20"/>
<path fill-rule="evenodd" clip-rule="evenodd" d="M92.9206 74.3455C92.7778 74.3426 92.6348 74.3397 92.4918 74.3368C92.3967 74.1149 92.3017 73.893 92.2006 73.6562C91.6972 73.6562 91.1931 73.6562 90.6673 73.6562C90.5694 73.8812 90.4695 74.1103 90.3695 74.3396C90.2262 74.3411 90.0829 74.3423 89.9395 74.3436C90.2871 73.5674 90.6342 72.7912 90.9824 72.0153C91.0595 71.8434 91.1403 71.673 91.2209 71.499C91.3571 71.499 91.4829 71.499 91.6281 71.499C91.6488 71.5291 91.6844 71.5678 91.7053 71.6133C92.0943 72.4642 92.4817 73.3156 92.8679 74.1678C92.8931 74.2237 92.9032 74.2862 92.9206 74.3455ZM92.0326 73.2805C91.8237 72.8098 91.6367 72.3885 91.431 71.9252C91.2238 72.3967 91.0353 72.8251 90.8351 73.2805C91.2487 73.2805 91.6157 73.2805 92.0326 73.2805Z" fill="#1F1F20"/>
<path fill-rule="evenodd" clip-rule="evenodd" d="M6.86675 74.3358C6.73203 74.3502 6.59745 74.3646 6.44297 74.3811C6.32721 74.1333 6.21729 73.8978 6.10272 73.6526C5.60442 73.6526 5.1093 73.6526 4.58806 73.6526C4.48356 73.8794 4.37471 74.1159 4.25536 74.3749C4.12993 74.3749 4.00409 74.3749 3.87839 74.3749C3.87785 74.3354 3.86419 74.2901 3.87879 74.2575C4.29341 73.3389 4.71084 72.4216 5.12945 71.501C5.27929 71.501 5.41453 71.501 5.56199 71.501C5.99784 72.4478 6.43223 73.3917 6.86675 74.3358ZM4.74969 73.2756C5.16048 73.2756 5.53282 73.2756 5.9444 73.2756C5.74418 72.8266 5.55682 72.4067 5.34333 71.928C5.12772 72.4176 4.94368 72.8352 4.74969 73.2756Z" fill="#1F1F20"/>
<path fill-rule="evenodd" clip-rule="evenodd" d="M19.7936 74.3491C19.6662 74.3503 19.5392 74.3517 19.4117 74.3527C19.4053 73.7424 19.3977 73.1321 19.3929 72.5217C19.3902 72.1857 19.3925 71.8495 19.3925 71.5078C20.0808 71.5078 20.7445 71.5078 21.4201 71.5078C21.4201 71.6151 21.4201 71.7062 21.4201 71.8313C20.8914 71.8313 20.3668 71.8313 19.8248 71.8313C19.8248 72.1752 19.8248 72.4858 19.8248 72.8216C20.2897 72.8216 20.7516 72.8216 21.2338 72.8216C21.2338 72.9531 21.2338 73.0607 21.2338 73.196C20.7668 73.196 20.3044 73.196 19.8171 73.196C19.8088 73.5976 19.8011 73.9734 19.7936 74.3491Z" fill="#1F1F20"/>
<path fill-rule="evenodd" clip-rule="evenodd" d="M95.3863 74.3332C94.7353 74.3395 94.0843 74.3458 93.4333 74.3519C93.427 73.7428 93.4194 73.1337 93.4144 72.5245C93.4117 72.1905 93.414 71.8564 93.414 71.5078C93.5507 71.5078 93.664 71.5078 93.8094 71.5078C93.8094 72.313 93.8094 73.1271 93.8094 73.9713C94.3421 73.9713 94.844 73.9713 95.3863 73.9713C95.3863 74.1108 95.3863 74.222 95.3863 74.3332Z" fill="#1F1F20"/>
<path fill-rule="evenodd" clip-rule="evenodd" d="M66.3629 74.3332C65.712 74.3395 65.0609 74.3458 64.4099 74.3519C64.4033 73.7428 64.3958 73.1337 64.391 72.5245C64.3883 72.1905 64.3905 71.8564 64.3905 71.5078C64.5272 71.5078 64.6405 71.5078 64.786 71.5078C64.786 72.313 64.786 73.1271 64.786 73.9713C65.3187 73.9713 65.8206 73.9713 66.3628 73.9713C66.3629 74.1108 66.3629 74.222 66.3629 74.3332Z" fill="#1F1F20"/>
<path fill-rule="evenodd" clip-rule="evenodd" d="M103.256 66.3439C103.259 66.6805 103.02 66.9358 102.699 66.9415C102.367 66.9473 102.097 66.6779 102.1 66.3442C102.102 66.0247 102.361 65.7657 102.683 65.7613C103.004 65.7566 103.254 66.0105 103.256 66.3439Z" fill="#1F1F20"/>
<path fill-rule="evenodd" clip-rule="evenodd" d="M79.5352 72.4323C79.4529 72.4323 79.3832 72.4323 79.2811 72.4323C79.3244 72.234 79.3639 72.0528 79.4073 71.8536C79.3836 71.8265 79.3484 71.7895 79.3171 71.7493C79.2193 71.6233 79.2107 71.4777 79.3304 71.3827C79.4064 71.3222 79.544 71.3045 79.6464 71.3195C79.7691 71.3377 79.8345 71.4984 79.8 71.6576C79.7714 71.7903 79.7227 71.9191 79.6782 72.0481C79.6342 72.1758 79.5842 72.3014 79.5352 72.4323Z" fill="#1F1F20"/>
<path fill-rule="evenodd" clip-rule="evenodd" d="M47.7591 72.4619C47.8147 72.2174 47.8539 72.044 47.8959 71.8587C47.8582 71.8094 47.8077 71.756 47.7722 71.6942C47.7066 71.5799 47.7221 71.453 47.8191 71.3799C47.8924 71.3247 48.022 71.288 48.1029 71.3144C48.1827 71.3404 48.2977 71.4697 48.285 71.5304C48.223 71.8251 48.1305 72.1147 48.0285 72.3988C48.015 72.4372 47.886 72.4344 47.7591 72.4619Z" fill="#1F1F20"/>
<path fill-rule="evenodd" clip-rule="evenodd" d="M31.7492 55.6775C31.8038 55.6785 31.8582 55.6793 31.9126 55.6803C31.7226 55.8892 31.5661 56.1321 31.2734 56.3043C31.3369 56.0589 31.4741 55.927 31.6332 55.811C31.7389 55.8428 31.7585 55.8217 31.7576 55.6758L31.7492 55.6775Z" fill="#79C917"/>
<path fill-rule="evenodd" clip-rule="evenodd" d="M58.9502 38.7846C58.9023 38.7839 58.8543 38.7832 58.8066 38.7825C58.8521 38.6006 58.9293 38.4396 59.1207 38.3076C59.1221 38.5131 59.0666 38.659 58.9502 38.7846Z" fill="#79C917"/>
<path fill-rule="evenodd" clip-rule="evenodd" d="M40.6018 52.6372C40.6262 52.6616 40.6509 52.6858 40.6755 52.7104C40.6082 52.7713 40.5408 52.8322 40.4736 52.8931C40.4557 52.8782 40.4379 52.8634 40.4199 52.8486C40.4805 52.778 40.5411 52.7077 40.6018 52.6372Z" fill="#79C917"/>
<path fill-rule="evenodd" clip-rule="evenodd" d="M31.757 55.6758C31.758 55.8217 31.7385 55.8431 31.6328 55.811C31.6743 55.7659 31.7157 55.7208 31.757 55.6758Z" fill="#039740"/>
<path fill-rule="evenodd" clip-rule="evenodd" d="M40.4131 72.4478C40.4409 72.4333 40.4689 72.4188 40.497 72.4043C40.4689 72.4187 40.441 72.4331 40.4131 72.4478Z" fill="#1F1F20"/>
</g>
<defs>
<clipPath id="clip0">
<rect width="104" height="76" fill="white"/>
</clipPath>
</defs>
</svg>
