<svg width="20" height="20" viewBox="0 0 20 20" fill="none" xmlns="http://www.w3.org/2000/svg">
<path fill-rule="evenodd" clip-rule="evenodd" d="M10 20C15.5228 20 20 15.5228 20 10C20 4.47715 15.5228 0 10 0C4.47715 0 0 4.47715 0 10C0 15.5228 4.47715 20 10 20ZM13.6585 11.2526C13.8755 11.0627 14 10.7884 14 10.5C14 10.2117 13.8755 9.93732 13.6585 9.74744L9.6585 6.24744C9.24287 5.88375 8.61111 5.92587 8.24742 6.34151C7.88374 6.75714 7.92586 7.38891 8.3415 7.75259L11.4814 10.5L8.3415 13.2474C7.92586 13.6111 7.88374 14.2429 8.24742 14.6585C8.6111 15.0742 9.24287 15.1163 9.6585 14.7526L13.6585 11.2526Z" fill="#6AD387"/>
</svg>
