<svg width="50" height="50" viewBox="0 0 50 50" fill="none" xmlns="http://www.w3.org/2000/svg">
<g clip-path="url(#clip0)">
<path d="M42.75 7.18542C38 2.59375 31.75 0 25.0938 0C5.98958 0 -6.00625 20.6979 3.53333 37.1625L0 50L13.1979 46.5583C18.9479 49.6646 23.6583 49.3896 25.1062 49.5729C47.2583 49.5729 58.2854 22.7729 42.7187 7.26667L42.75 7.18542Z" fill="#ECEFF1"/>
<path d="M25.1396 45.3148L25.1271 45.3127H25.0938C18.4646 45.3127 14.2292 42.1731 13.8125 41.9919L6 44.0231L8.09375 36.4294L7.59583 35.6481C5.53333 32.3648 4.4375 28.5835 4.4375 24.6898C4.4375 6.37103 26.8229 -2.78939 39.7771 10.1585C52.7 22.971 43.6271 45.3148 25.1396 45.3148Z" fill="#6AD387"/>
<path d="M36.4732 29.8065L36.4544 29.9628C35.8274 29.6503 32.7732 28.1565 32.2044 27.9503C30.9274 27.4774 31.2878 27.8753 28.8357 30.6836C28.4711 31.0899 28.1086 31.1211 27.4899 30.8399C26.8649 30.5274 24.8586 29.8711 22.4836 27.7461C20.6336 26.0899 19.392 24.0586 19.0253 23.4336C18.4149 22.3794 19.692 22.2294 20.8545 20.0294C21.0628 19.5919 20.9565 19.2482 20.8024 18.9378C20.6461 18.6253 19.4024 15.5628 18.8815 14.3419C18.3815 13.1253 17.867 13.2794 17.4815 13.2794C16.2815 13.1753 15.4045 13.1919 14.6315 13.9961C11.269 17.6919 12.117 21.5044 14.994 25.5586C20.6482 32.9586 23.6607 34.3211 29.169 36.2128C30.6565 36.6857 32.0128 36.619 33.0857 36.4649C34.2815 36.2753 36.7669 34.9628 37.2857 33.494C37.8169 32.0253 37.8169 30.8065 37.6607 30.5253C37.5065 30.244 37.0982 30.0878 36.4732 29.8065Z" fill="#FAFAFA"/>
</g>
<defs>
<clipPath id="clip0">
<rect width="50" height="50" fill="white"/>
</clipPath>
</defs>
</svg>
