<svg width="42" height="42" viewBox="0 0 42 42" fill="none" xmlns="http://www.w3.org/2000/svg">
<g clip-path="url(#clip0)">
<path d="M35.9087 6.03552C31.9188 2.17867 26.669 0 21.078 0C5.03106 0 -5.04506 17.3856 2.96789 31.2153L0 41.9984L11.0858 39.1075C15.9157 41.7167 19.8723 41.4857 21.0885 41.6397C39.6955 41.6397 48.9579 19.1285 35.8824 6.10377L35.9087 6.03552Z" fill="#ECEFF1"/>
<path d="M21.1166 38.0628L21.1061 38.0611H21.0781C15.5099 38.0611 11.9522 35.4239 11.6022 35.2717L5.03999 36.9779L6.79867 30.5994L6.38044 29.9431C4.648 27.1852 3.72754 24.0091 3.72754 20.7385C3.72754 5.35131 22.5306 -2.34315 33.4117 8.53269C44.2665 19.2948 36.6456 38.0628 21.1166 38.0628Z" fill="#6AD387"/>
<path d="M30.6358 25.0365L30.62 25.1678C30.0933 24.9053 27.5279 23.6506 27.0501 23.4773C25.9774 23.0801 26.2802 23.4143 24.2205 25.7733C23.9143 26.1145 23.6098 26.1407 23.09 25.9045C22.5651 25.642 20.8799 25.0908 18.8849 23.3059C17.331 21.9147 16.288 20.2085 15.9801 19.6835C15.4673 18.798 16.54 18.672 17.5165 16.8241C17.6915 16.4566 17.6022 16.1679 17.4728 15.9071C17.3415 15.6446 16.2968 13.0722 15.8593 12.0468C15.4393 11.0248 15.0071 11.1543 14.6834 11.1543C13.6754 11.0668 12.9387 11.0808 12.2894 11.7563C9.46505 14.8607 10.1773 18.063 12.5939 21.4684C17.3433 27.6842 19.8737 28.8286 24.5005 30.4176C25.7499 30.8148 26.8892 30.7588 27.7904 30.6293C28.7948 30.4701 30.8825 29.3676 31.3182 28.1339C31.7645 26.9002 31.7645 25.8765 31.6332 25.6403C31.5037 25.404 31.1607 25.2728 30.6358 25.0365Z" fill="#FAFAFA"/>
</g>
<path d="M30.4241 25.6524L27.642 22.8762C26.6484 21.8846 24.9592 22.2813 24.5618 23.5702C24.2637 24.4626 23.2701 24.9584 22.3758 24.76C20.3886 24.2643 17.7059 21.6863 17.2091 19.6041C16.911 18.7117 17.5071 17.7202 18.4014 17.4228C19.6931 17.0262 20.0905 15.3406 19.0969 14.3491L16.3148 11.5728C15.5199 10.8787 14.3276 10.8787 13.6321 11.5728L11.7442 13.4567C9.85635 15.4397 11.9429 20.6948 16.6129 25.355C21.2829 30.0151 26.549 32.1965 28.5362 30.2134L30.4241 28.3295C31.1196 27.5363 31.1196 26.3465 30.4241 25.6524Z" fill="white"/>
<defs>
<clipPath id="clip0">
<rect width="41.9984" height="41.9984" fill="white"/>
</clipPath>
</defs>
</svg>
