<svg width="80" height="80" viewBox="0 0 80 80" fill="none" xmlns="http://www.w3.org/2000/svg">
<circle cx="40" cy="40" r="40" fill="white"/>
<path d="M28.7869 28.4038V17.5002C26.0885 18.5097 24.167 21.1106 24.167 24.1613C24.167 24.2257 24.169 24.2897 24.1708 24.3538H24.167V28.3879C24.167 29.2889 24.6956 30.0638 25.4586 30.4261V32.6338L27.0126 34.026L28.7869 32.6338V28.4038Z" fill="#DDF1FF"/>
<path d="M44.7019 19.1179L43.6374 23.7716L44.6368 28.4098H44.6359L44.6928 28.6695L44.7723 29.0384L44.7737 29.0381L45.0128 30.1291L44.1282 34.1655L39.6541 54.3586C39.0277 53.6885 38.1983 53.1965 37.2345 52.9935C34.7365 52.4668 32.2756 54.0716 31.7494 56.57C31.4945 57.7802 31.7262 59.0174 32.4017 60.0532C33.0772 61.0891 34.1157 61.8002 35.3261 62.0551C35.6467 62.1226 35.9694 62.1561 36.2897 62.1561C37.1778 62.1561 38.0478 61.8993 38.8093 61.4029C39.8423 60.7293 40.5519 59.6946 40.8087 58.4889H40.809L41.3046 56.252L43.266 56.665L43.6826 54.6876L41.7418 54.2788L46.1414 34.4217H46.6433L46.9676 31.4157L46.6433 28.1269L44.7019 19.1179ZM38.8335 58.0619C38.6899 58.744 38.2893 59.3293 37.7054 59.71C37.1215 60.0907 36.4242 60.2212 35.7424 60.0776C35.0603 59.934 34.475 59.5334 34.0943 58.9495C33.7136 58.3657 33.583 57.6685 33.7267 56.9865C33.9852 55.7591 35.0723 54.9146 36.2795 54.9146C36.4572 54.9146 36.6373 54.9329 36.818 54.9709C38.2259 55.2674 39.1301 56.6541 38.8335 58.0619Z" fill="#B1D2FF"/>
<path d="M47.1435 34.4216L51.5457 54.2903L49.6049 54.6991L50.0214 56.6765L51.9828 56.2634L52.4785 58.5004H52.4787C52.7355 59.7061 53.4451 60.7408 54.4781 61.4144C55.2396 61.9108 56.1096 62.1676 56.9977 62.1676C57.3179 62.1676 57.6406 62.1342 57.9614 62.0666C59.1716 61.8117 60.2101 61.1007 60.8858 60.0647C61.5614 59.0287 61.793 57.7917 61.5381 56.5815C61.0119 54.0832 58.5509 52.4783 56.0529 53.0049C55.0891 53.208 54.2598 53.7 53.6333 54.3701L49.1309 34.0488L49.1288 34.0492L48.2696 30.129L48.5115 29.0255V29.0252L48.6463 28.4097H48.6447L49.6517 23.7599L48.5873 19.106L46.6436 28.1266V34.4215H47.1435V34.4216ZM56.4692 54.9821C56.6498 54.9441 56.83 54.9258 57.0077 54.9258C58.2149 54.9258 59.302 55.7705 59.5605 56.9977C59.7041 57.6798 59.5736 58.3769 59.1928 58.9607C58.8121 59.5446 58.2269 59.9452 57.5448 60.0889C56.863 60.2326 56.1658 60.1019 55.5818 59.7212C54.9979 59.3405 54.5972 58.7552 54.4536 58.0733C54.1571 56.6654 55.0612 55.2788 56.4692 54.9821Z" fill="#92AED5"/>
<path d="M46.6406 32.2439C47.098 32.2439 47.4688 31.8731 47.4688 31.4158C47.4688 30.9584 47.098 30.5876 46.6406 30.5876C46.1833 30.5876 45.8125 30.9584 45.8125 31.4158C45.8125 31.8731 46.1833 32.2439 46.6406 32.2439Z" fill="#DDF1FF"/>
<path d="M47.4688 31.4155C47.4688 31.8729 47.098 32.2437 46.6406 32.2437V30.5874C47.098 30.5874 47.4688 30.9582 47.4688 31.4155Z" fill="#B1D2FF"/>
<path d="M28.7873 17.5002C28.0116 17.7904 27.3007 18.2127 26.6807 18.7387V33.3348L28.7768 32.6418L28.7873 32.6336V28.4038V17.5002Z" fill="#B1D2FF"/>
<path d="M26.6796 62.1685H24.5586V32.6348H26.6796L28.8008 47.4016L26.6796 62.1685Z" fill="#B1D2FF"/>
<path d="M26.6797 32.6335H28.8009V62.1673H26.6797V32.6335Z" fill="#92AED5"/>
</svg>
