<svg width="80" height="80" viewBox="0 0 80 80" fill="none" xmlns="http://www.w3.org/2000/svg">
<circle cx="40" cy="40" r="40" fill="white"/>
<path d="M59.8846 23.202L54.2342 17.5516C53.9469 17.2643 53.5744 17.0777 53.1723 17.0194C52.7703 16.9612 52.3602 17.0346 52.0032 17.2285C50.2672 18.168 48.3258 18.6635 46.3519 18.6708C44.378 18.6781 42.433 18.1971 40.6901 17.2704C40.3967 17.0937 40.0607 17.0003 39.7182 17.0003C39.3757 17.0003 39.0397 17.0937 38.7464 17.2704C37.0019 18.1921 35.0575 18.6704 33.0846 18.6631C31.1116 18.6557 29.1708 18.1631 27.4333 17.2285C27.0763 17.0346 26.6662 16.9612 26.2641 17.0194C25.862 17.0777 25.4896 17.2643 25.2023 17.5516L19.5519 23.202C19.3769 23.3769 19.2381 23.5846 19.1434 23.8131C19.0487 24.0417 19 24.2867 19 24.5341L19 45.2523C19.0001 45.5347 19.0636 45.8136 19.1858 46.0682C19.3081 46.3228 19.4859 46.5467 19.7063 46.7233L38.541 61.7911C38.8751 62.0586 39.2903 62.2043 39.7182 62.2043C40.1461 62.2043 40.5613 62.0586 40.8954 61.7911L59.7301 46.7233C59.9505 46.5467 60.1284 46.3228 60.2506 46.0682C60.3729 45.8136 60.4364 45.5347 60.4364 45.2523L60.4365 24.5341C60.4365 24.2867 60.3877 24.0417 60.293 23.8131C60.1984 23.5846 60.0596 23.3769 59.8846 23.202Z" fill="#E6FFED"/>
<path d="M29.1237 42.9564C28.9032 42.7798 28.7252 42.556 28.603 42.3013C28.4807 42.0467 28.4173 41.7678 28.4174 41.4854L28.4174 20.7671C28.4175 20.2676 28.616 19.7886 28.9692 19.4355L30.1087 18.296C29.1772 18.0492 28.2789 17.6908 27.4333 17.2285C27.0763 17.0346 26.6662 16.9612 26.2641 17.0194C25.862 17.0777 25.4896 17.2643 25.2023 17.5516L19.5519 23.202C19.3769 23.3769 19.2381 23.5846 19.1434 23.8131C19.0487 24.0417 19 24.2867 19 24.5341L19 45.2523C19.0001 45.5347 19.0636 45.8136 19.1858 46.0682C19.3081 46.3228 19.4859 46.5467 19.7063 46.7233L38.5411 61.7911C38.8751 62.0586 39.2903 62.2043 39.7182 62.2043C40.1462 62.2043 40.5613 62.0586 40.8954 61.7911L46.7813 57.0824L29.1237 42.9564Z" fill="#CCFFDA"/>
<path d="M54.2341 25.543L52.8663 24.1775C52.6297 23.9414 52.3347 23.7723 52.0114 23.6877C51.688 23.6031 51.348 23.6058 51.0261 23.6958C47.5069 24.6566 43.777 24.5086 40.3449 23.272C39.9394 23.1289 39.497 23.1289 39.0915 23.272C35.6594 24.5086 31.9295 24.6566 28.4103 23.6958C28.0884 23.6059 27.7484 23.6031 27.4251 23.6878C27.1017 23.7724 26.8067 23.9414 26.5701 24.1775L25.2022 25.543C25.0273 25.7179 24.8885 25.9256 24.7938 26.1541C24.6991 26.3827 24.6504 26.6277 24.6504 26.8751L24.6504 42.5367C24.6503 42.8191 24.7137 43.098 24.836 43.3526C24.9582 43.6073 25.1362 43.8311 25.3567 44.0077L38.541 54.5551C38.8751 54.8226 39.2902 54.9683 39.7182 54.9683C40.1461 54.9683 40.5613 54.8226 40.8954 54.5551L54.0797 44.0077C54.3002 43.8311 54.4781 43.6073 54.6004 43.3526C54.7227 43.098 54.7861 42.8191 54.786 42.5367L54.786 26.8751C54.786 26.6277 54.7373 26.3827 54.6426 26.1541C54.5479 25.9256 54.4091 25.7179 54.2341 25.543Z" fill="url(#paint0_linear)"/>
<path d="M37.8349 43.3688C37.5876 43.3691 37.3426 43.3205 37.1141 43.2259C36.8856 43.1313 36.678 42.9925 36.5033 42.8175L32.7363 39.0505L35.3996 36.3863L37.8349 38.8217L44.0372 32.6194L46.7004 35.2836L39.1665 42.8175C38.9918 42.9925 38.7842 43.1313 38.5557 43.2259C38.3272 43.3205 38.0822 43.3691 37.8349 43.3688Z" fill="white"/>
<defs>
<linearGradient id="paint0_linear" x1="27.8787" y1="46.5457" x2="51.5577" y2="22.8666" gradientUnits="userSpaceOnUse">
<stop stop-color="#B2D7F3"/>
<stop offset="1" stop-color="#8BBBFF"/>
</linearGradient>
</defs>
</svg>
