<svg width="80" height="80" viewBox="0 0 80 80" fill="none" xmlns="http://www.w3.org/2000/svg">
<circle cx="40" cy="40" r="40" fill="url(#paint0_linear)"/>
<path d="M28.7869 28.4035V17.5C26.0885 18.5095 24.167 21.1104 24.167 24.161C24.167 24.2254 24.169 24.2894 24.1708 24.3535H24.167V28.3876C24.167 29.2887 24.6956 30.0636 25.4586 30.4258V32.6335L27.0126 34.0257L28.7869 32.6335V28.4035Z" fill="white"/>
<path d="M44.7019 19.1172L43.6374 23.7709L44.6368 28.409H44.6359L44.6928 28.6688L44.7723 29.0377L44.7737 29.0374L45.0128 30.1284L44.1282 34.1647L39.6541 54.3578C39.0277 53.6877 38.1983 53.1957 37.2345 52.9927C34.7365 52.4661 32.2756 54.0709 31.7494 56.5693C31.4945 57.7795 31.7262 59.0166 32.4017 60.0525C33.0772 61.0884 34.1157 61.7994 35.3261 62.0543C35.6467 62.1218 35.9694 62.1554 36.2897 62.1554C37.1778 62.1554 38.0478 61.8986 38.8093 61.4022C39.8423 60.7285 40.5519 59.6939 40.8087 58.4881H40.809L41.3046 56.2512L43.266 56.6643L43.6826 54.6868L41.7418 54.2781L46.1414 34.421H46.6433L46.9676 31.415L46.6433 28.1261L44.7019 19.1172ZM38.8335 58.0612C38.6899 58.7433 38.2893 59.3285 37.7054 59.7093C37.1215 60.09 36.4242 60.2205 35.7424 60.0769C35.0603 59.9333 34.475 59.5326 34.0943 58.9487C33.7136 58.365 33.583 57.6678 33.7267 56.9857C33.9852 55.7584 35.0723 54.9138 36.2795 54.9138C36.4572 54.9138 36.6373 54.9322 36.818 54.9702C38.2259 55.2667 39.1301 56.6534 38.8335 58.0612Z" fill="white"/>
<path d="M47.1435 34.4216L51.5457 54.2903L49.6049 54.6991L50.0214 56.6765L51.9828 56.2634L52.4785 58.5004H52.4787C52.7355 59.7061 53.4451 60.7408 54.4781 61.4144C55.2396 61.9108 56.1096 62.1676 56.9977 62.1676C57.3179 62.1676 57.6406 62.1342 57.9614 62.0666C59.1716 61.8117 60.2101 61.1007 60.8858 60.0647C61.5614 59.0287 61.793 57.7917 61.5381 56.5815C61.0119 54.0832 58.5509 52.4783 56.0529 53.0049C55.0891 53.208 54.2598 53.7 53.6333 54.3701L49.1309 34.0488L49.1288 34.0492L48.2696 30.129L48.5115 29.0255V29.0252L48.6463 28.4097H48.6447L49.6517 23.7599L48.5873 19.106L46.6436 28.1266V34.4215H47.1435V34.4216ZM56.4692 54.9821C56.6498 54.9441 56.83 54.9258 57.0077 54.9258C58.2149 54.9258 59.302 55.7705 59.5605 56.9977C59.7041 57.6798 59.5736 58.3769 59.1928 58.9607C58.8121 59.5446 58.2269 59.9452 57.5448 60.0889C56.863 60.2326 56.1658 60.1019 55.5818 59.7212C54.9979 59.3405 54.5972 58.7552 54.4536 58.0733C54.1571 56.6654 55.0612 55.2788 56.4692 54.9821Z" fill="#E7E7E7"/>
<path d="M46.6406 32.2442C47.098 32.2442 47.4688 31.8734 47.4688 31.416C47.4688 30.9587 47.098 30.5879 46.6406 30.5879C46.1833 30.5879 45.8125 30.9587 45.8125 31.416C45.8125 31.8734 46.1833 32.2442 46.6406 32.2442Z" fill="white"/>
<path d="M47.4688 31.416C47.4688 31.8734 47.098 32.2442 46.6406 32.2442V30.5879C47.098 30.5879 47.4688 30.9586 47.4688 31.416Z" fill="white"/>
<path d="M28.7873 17.5C28.0116 17.7902 27.3007 18.2124 26.6807 18.7385V33.3346L28.7768 32.6416L28.7873 32.6334V28.4035V17.5Z" fill="white"/>
<path d="M26.6796 62.167H24.5586V32.6333H26.6796L28.8008 47.4001L26.6796 62.167Z" fill="white"/>
<path d="M26.6797 32.6333H28.8009V62.167H26.6797V32.6333Z" fill="#E7E7E7"/>
<defs>
<linearGradient id="paint0_linear" x1="-10.4167" y1="56.6667" x2="83.3333" y2="15" gradientUnits="userSpaceOnUse">
<stop stop-color="#FCA38F"/>
<stop offset="1" stop-color="#FFB9B9"/>
</linearGradient>
</defs>
</svg>
