<svg width="80" height="80" viewBox="0 0 80 80" fill="none" xmlns="http://www.w3.org/2000/svg">
<circle cx="40" cy="40" r="40" fill="white"/>
<path d="M30.8157 55.1624C35.528 50.4499 39.9238 52.6679 46.1936 57.189C50.0222 59.9497 53.8765 62.8044 58.2491 62.8044C60.5052 62.8044 62.4169 62.2397 64.0121 60.6445C67.4573 57.1993 67.3997 52.0876 63.4896 48.1775L62.2776 46.9656L60.0582 49.1851L62.3792 51.5061C64.4484 53.5754 64.4484 56.9424 62.3792 59.0117C61.3768 60.0141 60.0441 60.5661 58.6264 60.5661C55.2674 60.5661 51.7264 58.0128 48.302 55.5435C45.4254 53.4691 42.4507 51.3242 39.3462 50.4768C35.5874 49.451 32.2629 50.4494 29.1827 53.5296L24.084 58.6283L25.1936 59.738L30.8157 55.1624Z" fill="#BEC3C9"/>
<path d="M64.5983 49.2869L63.4891 48.1777C66.7816 51.4709 66.7814 56.8287 63.4885 60.1216C61.8933 61.7168 59.9816 62.2815 57.7255 62.2815C53.3528 62.2815 49.7077 59.2175 45.8792 56.4569C39.6094 51.9358 35.0043 49.9271 30.2921 54.6395L25.1934 59.7383L26.3031 60.848L31.4019 55.7493C36.1141 51.0368 40.1961 53.5687 46.4659 58.0898C50.2945 60.8505 54.2534 63.7051 58.6261 63.7051C60.8822 63.7051 63.0032 62.8266 64.5984 61.2314C67.8913 57.9383 67.8913 52.58 64.5983 49.2869Z" fill="#E6E6E6"/>
<path d="M32.0541 26.4583C31.2855 25.8838 30.6544 25.807 30.2659 26.1957C29.5941 26.8675 29.3652 28.0787 29.3652 28.0787L29.9723 30.2982C29.973 30.2981 32.1421 29.4153 32.8137 28.7437C33.2023 28.355 32.6296 27.0338 32.0541 26.4583Z" fill="#BEC3C9"/>
<path d="M32.6683 26.9953C32.4557 26.7827 32.2509 26.605 32.0545 26.4583C32.629 27.2267 32.7057 27.8579 32.3171 28.2465C31.6455 28.9181 30.4349 29.147 30.4342 29.1471L29.9727 30.298H31.585C31.585 30.298 32.7962 30.0692 33.468 29.3974C33.9559 28.9095 33.7131 28.0401 32.6683 26.9953Z" fill="#E6E6E6"/>
<path d="M39.5506 18.9623C38.9761 18.1937 38.8993 17.5626 39.288 17.1741C39.9598 16.5023 41.1709 16.2734 41.1709 16.2734L43.3905 16.8805C43.3904 16.8812 42.5075 19.0503 41.836 19.7219C41.4473 20.1105 40.1261 19.5378 39.5506 18.9623Z" fill="#BEC3C9"/>
<path d="M40.0878 19.5761C39.8752 19.3635 39.6976 19.1586 39.5508 18.9622C40.3193 19.5367 40.9505 19.6134 41.339 19.2248C42.0106 18.5532 42.2396 17.3426 42.2397 17.3419L43.3905 16.8804V18.4928C43.3905 18.4928 43.1617 19.7039 42.4899 20.3757C42.0021 20.8636 41.1326 20.6208 40.0878 19.5761Z" fill="#E6E6E6"/>
<path d="M29.0133 60.017C29.0133 58.8321 28.4729 57.3475 27.453 56.3277C26.5661 55.6761 25.4717 55.2905 24.2868 55.2905C21.3298 55.2905 18.9326 57.6877 18.9326 60.6448C18.9326 61.8296 19.3182 62.9241 19.9698 63.8109C21.0291 64.8703 22.4742 65.3712 23.6591 65.3712C26.6161 65.3713 29.0133 62.9741 29.0133 60.017Z" fill="#F8F0C9"/>
<path d="M27.453 56.3279C28.1046 57.2148 28.4901 58.3092 28.4901 59.4941C28.4901 62.4512 26.093 64.8484 23.1359 64.8484C21.951 64.8484 20.8566 64.4628 19.9697 63.8112C20.9442 65.1378 22.5146 65.9993 24.2868 65.9993C27.2438 65.9993 29.641 63.6021 29.641 60.645C29.641 58.8728 28.7794 57.3024 27.453 56.3279Z" fill="#E6E6E6"/>
<path d="M63.1721 42.6658C62.3053 39.4702 60.8769 37.9051 60.0908 35.5051C59.8808 36.449 59.5763 37.3642 59.1882 38.24C59.6914 39.8572 60.1974 41.5936 60.7033 43.4581C61.0743 44.8258 60.8162 46.0811 59.995 46.9023C59.1738 47.7235 57.9182 47.9817 56.5506 47.6107C54.6861 47.1049 52.9498 46.5988 51.3326 46.0957C50.4568 46.4838 49.5415 46.7884 48.5977 46.9983C50.9977 47.7843 52.5628 49.2127 55.7584 50.0796C60.5844 51.3886 64.4813 47.4917 63.1721 42.6658Z" fill="#BEC3C9"/>
<path d="M63.7321 42.6363C62.8609 39.4247 61.9885 36.5686 61.1254 34.0295C60.8894 33.3351 60.3415 34.3766 60.0905 35.5051C60.8765 37.9051 61.6384 40.4465 62.3591 43.1031C63.4475 47.1153 60.2077 50.3551 56.1955 49.2667C53.5387 48.5461 50.9973 47.7841 48.5973 46.9981C47.4688 47.2491 46.427 47.7969 47.1212 48.0329C49.6602 48.8959 52.5166 49.7684 55.7284 50.6397C60.9385 52.0532 65.1455 47.8462 63.7321 42.6363Z" fill="#E6E6E6"/>
<path d="M51.3318 46.0955C50.5458 46.8815 48.5969 48.1572 45.1083 47.3273C40.3151 45.4948 31.1927 40.889 28.2245 37.3823C28.0879 37.1877 27.9686 37.001 27.866 36.8233C26.1398 33.8335 27.5933 29.8503 29.3651 28.0785L30.4336 29.1471C28.8268 32.7999 29.3651 34.2437 31.1059 35.9767C32.836 38.0254 38.0577 41.9651 51.3318 46.0955ZM59.1874 38.24C59.9734 37.454 61.2491 35.5051 60.4192 32.0165C58.5868 27.2233 53.9809 18.1009 50.4742 15.1327C50.2796 14.9961 50.0929 14.8768 49.9152 14.7742C46.9254 13.048 42.9422 14.5015 41.1704 16.2733L42.239 17.3418C45.8918 15.735 47.3356 16.2733 49.0686 18.0141C51.1172 19.7442 55.057 24.9659 59.1874 38.24Z" fill="#FFF9D7"/>
<path d="M43.3897 18.493L42.2388 17.3421C43.2134 16.3674 45.6874 15.4712 47.1948 16.3418C47.645 16.6017 48.2849 17.1191 49.0685 18.0143C48.7917 17.7806 48.5492 17.6101 48.3457 17.4926C46.8383 16.6221 44.3644 17.5183 43.3897 18.493ZM31.106 35.9768C30.8723 35.7001 30.7018 35.4575 30.5843 35.254C29.714 33.7464 30.61 31.2727 31.5846 30.2981L30.4337 29.1472C29.4591 30.1218 28.563 32.5955 29.4335 34.1032C29.6935 34.5534 30.2109 35.1932 31.106 35.9768ZM60.4192 32.0169C60.4192 32.0168 60.4192 32.0167 60.4192 32.0166C56.5223 21.2492 52.8782 16.8211 50.4742 15.1328C53.1738 18.2229 56.5152 24.9877 59.5581 33.9135C59.2084 37.0162 57.7563 40.0113 55.4298 42.3379C53.1024 44.6653 50.1076 46.1161 47.0027 46.4653C38.0783 43.4228 31.3145 40.0817 28.2246 37.3824C29.9129 39.7864 34.341 43.4305 45.1084 47.3274C45.7556 47.5617 46.4271 47.7969 47.1209 48.0327C50.5959 47.6549 53.9464 46.0409 56.5394 43.4477C59.1323 40.8548 60.7465 37.5046 61.1244 34.0298C60.8888 33.3359 60.6535 32.6642 60.4192 32.0169Z" fill="#E9D4AB"/>
</svg>
