<svg width="80" height="81" viewBox="0 0 80 81" fill="none" xmlns="http://www.w3.org/2000/svg">
<circle cx="40" cy="40.5" r="40" fill="url(#paint0_linear)"/>
<path d="M55.1909 24.3911H23.8371C22.3344 24.3911 21.1162 25.6093 21.1162 27.112V50.7714C21.1162 52.2741 22.3344 53.4922 23.8371 53.4922H31.4068C32.0079 53.4922 32.4951 53.9795 32.4951 54.5806V59.7416C32.4951 60.2264 33.0813 60.4691 33.424 60.1264L39.7393 53.8111C39.9434 53.6071 40.2203 53.4923 40.5089 53.4923H55.1908C56.6935 53.4923 57.9117 52.2742 57.9117 50.7715V27.112C57.9118 25.6093 56.6936 24.3911 55.1909 24.3911Z" fill="white"/>
<path d="M56.2787 24.3911H53.0137C54.5163 24.3911 55.7345 25.6093 55.7345 27.112V50.7714C55.7345 52.2741 54.5163 53.4922 53.0137 53.4922H56.2787C57.7814 53.4922 58.9996 52.2741 58.9996 50.7714V27.112C58.9996 25.6093 57.7814 24.3911 56.2787 24.3911Z" fill="#EEEEEE"/>
<path d="M29.4231 40.0064C28.3087 40.0064 27.4053 39.1029 27.4053 37.9885C27.4053 36.8742 28.3087 35.9707 29.4231 35.9707C30.5375 35.9707 31.441 36.8742 31.441 37.9885C31.441 39.1029 30.5375 40.0064 29.4231 40.0064Z" fill="#14D79C"/>
<path d="M39.7483 40.0064C38.6339 40.0064 37.7305 39.1029 37.7305 37.9885C37.7305 36.8742 38.6339 35.9707 39.7483 35.9707C40.8627 35.9707 41.7662 36.8742 41.7662 37.9885C41.7662 39.1029 40.863 40.0064 39.7483 40.0064Z" fill="#14D79C"/>
<path d="M50.0735 40.0064C48.9591 40.0064 48.0557 39.1029 48.0557 37.9885C48.0557 36.8742 48.9591 35.9707 50.0735 35.9707C51.1879 35.9707 52.0913 36.8742 52.0913 37.9885C52.0913 39.1029 51.1879 40.0064 50.0735 40.0064Z" fill="#14D79C"/>
<defs>
<linearGradient id="paint0_linear" x1="-10.4167" y1="57.1667" x2="83.3333" y2="15.5" gradientUnits="userSpaceOnUse">
<stop stop-color="#FFB987"/>
<stop offset="1" stop-color="#F3FC91"/>
</linearGradient>
</defs>
</svg>
